<?xml version="1.0" encoding="UTF-8" standalone="no"?>
<!DOCTYPE svg PUBLIC "-//W3C//DTD SVG 1.1//EN" "http://www.w3.org/Graphics/SVG/1.1/DTD/svg11.dtd">
<svg width="100%" height="100%" viewBox="0 0 512 512" version="1.1" xmlns="http://www.w3.org/2000/svg" xmlns:xlink="http://www.w3.org/1999/xlink" xml:space="preserve" xmlns:serif="http://www.serif.com/" style="fill-rule:evenodd;clip-rule:evenodd;stroke-linejoin:round;stroke-miterlimit:1.5;">
    <g id="banjo">
        <g transform="matrix(1.0566,0,0,1.0566,15.8491,-89.2075)">
            <circle cx="197" cy="357" r="53" style="fill:white;"/>
        </g>
        <path d="M400,112L224,288" style="fill:none;stroke:white;stroke-width:64px;"/>
        <g transform="matrix(0.707107,0.707107,-0.707107,0.707107,400.055,-91.4844)">
            <path d="M96,48C96,39.169 103.169,32 112,32L176,32C184.831,32 192,39.169 192,48L192,48C194.742,47.982 197.484,47.982 200.225,48.002C208.71,48.181 216.296,55.881 215.99,64.563C215.706,72.634 208.581,79.822 200.225,79.998C197.447,80.018 194.679,80.215 192,80.059L192,96C194.742,95.982 197.484,95.982 200.225,96.002C208.376,96.174 215.701,103.242 215.99,111.437C216.286,119.847 209.071,127.811 200.225,127.998C197.447,128.018 194.679,128.215 192,128.059L192,144C192,152.831 184.831,160 176,160L112,160C103.169,160 96,152.831 96,144L96,128C90.923,128.051 85.842,128.573 81.437,126.592C73.103,122.844 69.379,111.146 74.657,103.17C77.513,98.854 82.544,96.112 87.775,96.002C90.516,95.982 93.258,95.982 96,96L96,80C90.923,80.051 85.842,80.573 81.437,78.592C71.88,74.294 68.861,59.268 77.639,51.808C82.372,47.786 89.283,47.95 96,48ZM128.449,56.013C129.904,56.135 130.301,56.294 131.061,56.609C133.682,57.694 135.629,60.259 135.95,63.104C135.994,63.501 135.989,63.601 136,64L136,128C135.828,134.125 127.74,138.497 122.669,133.965C121.217,132.667 120.268,130.827 120.05,128.896C120.006,128.499 120.011,128.399 120,128L120,64C120.041,62.54 120.177,62.135 120.449,61.358C121.436,58.538 124.101,56.389 127.104,56.05C127.968,55.953 128.172,56.005 128.449,56.013ZM160.449,56.013C161.904,56.135 162.301,56.294 163.061,56.609C165.682,57.694 167.629,60.259 167.95,63.104C167.994,63.501 167.989,63.601 168,64L168,128C167.948,129.836 167.705,130.438 167.208,131.471C164.855,136.356 156.917,137.479 153.476,132.629C152.522,131.286 152.046,129.643 152,128L152,64C152.041,62.54 152.177,62.135 152.449,61.358C153.436,58.538 156.101,56.389 159.104,56.05C159.968,55.953 160.172,56.005 160.449,56.013Z" style="fill:white;"/>
        </g>
        <g transform="matrix(0.6,0.6,-0.707107,0.707107,282.843,-58.8427)">
            <path d="M320,400C320,391.169 311.551,384 301.144,384L178.856,384C168.449,384 160,391.169 160,400C160,408.831 168.449,416 178.856,416L301.144,416C311.551,416 320,408.831 320,400Z" style="stroke:white;stroke-width:34.51px;stroke-linecap:round;"/>
        </g>
        <g transform="matrix(1.11628,0,0,1.11628,-35.7209,-23.814)">
            <path d="M204.556,136.001L205.112,136.004L205.667,136.008L206.222,136.014L206.776,136.022L207.33,136.032L207.883,136.043L208.437,136.056L208.989,136.071L209.541,136.088L210.093,136.106L210.645,136.126L211.195,136.148L211.746,136.172L212.296,136.197L212.846,136.224L213.395,136.253L213.943,136.283L214.492,136.315L215.039,136.349L215.587,136.385L216.133,136.422L216.68,136.461L217.226,136.502L217.771,136.544L218.316,136.588L218.86,136.634L219.404,136.682L219.948,136.731L220.491,136.782L221.033,136.834L221.576,136.889L222.117,136.945L222.658,137.002L223.199,137.062L223.739,137.122L224.278,137.185L224.817,137.249L225.356,137.315L225.894,137.383L226.431,137.452L226.968,137.523L227.505,137.596L228.041,137.67L228.576,137.746L229.111,137.823L229.645,137.903L230.179,137.983L230.713,138.066L231.245,138.15L231.777,138.236L232.309,138.323L232.84,138.412L233.371,138.502L233.901,138.595L234.43,138.688L234.959,138.784L235.488,138.881L236.015,138.98L236.543,139.08L237.069,139.182L237.595,139.285L238.121,139.39L238.646,139.497L239.17,139.605L239.694,139.715L240.217,139.827L240.74,139.94L241.262,140.054L241.783,140.17L242.304,140.288L242.824,140.408L243.344,140.529L243.863,140.651L244.381,140.775L244.899,140.901L245.416,141.028L245.933,141.157L246.449,141.287L246.964,141.419L247.479,141.552L247.993,141.687L248.507,141.824L249.019,141.962L249.532,142.102L250.043,142.243L250.554,142.385L251.065,142.53L251.574,142.675L252.083,142.823L252.592,142.971L253.099,143.122L253.607,143.274L254.113,143.427L254.619,143.582L255.124,143.738L255.628,143.896L256.132,144.056L256.635,144.216L257.138,144.379L257.64,144.543L258.141,144.708L258.641,144.875L259.141,145.043L259.64,145.213L260.138,145.385L260.636,145.558L261.133,145.732L261.629,145.908L262.125,146.085L262.62,146.264L263.114,146.444L263.607,146.626L264.1,146.809L264.592,146.994L265.084,147.18L265.574,147.367L266.064,147.556L266.553,147.747L267.042,147.939L267.53,148.132L268.017,148.327L268.503,148.523L268.988,148.721L269.473,148.92L269.957,149.12L270.441,149.322L270.923,149.526L271.405,149.73L271.886,149.937L272.367,150.144L272.846,150.353L273.325,150.564L273.803,150.776L274.28,150.989L274.757,151.204L275.233,151.42L275.708,151.637L276.182,151.856L276.655,152.077L277.128,152.298L277.6,152.522L278.071,152.746L278.541,152.972L279.011,153.199L279.48,153.428L279.948,153.658L280.415,153.889L280.881,154.122L281.347,154.356L281.811,154.592L282.275,154.829L282.738,155.067L283.201,155.306L283.662,155.547L284.123,155.79L284.583,156.033L285.042,156.278L285.5,156.525L285.957,156.772L286.414,157.021L286.869,157.272L287.324,157.523L287.778,157.776L288.231,158.031L288.684,158.286L289.135,158.543L289.586,158.802L290.036,159.061L290.485,159.322L290.933,159.585L291.38,159.848L291.826,160.113L292.272,160.379L292.716,160.647L293.16,160.916L293.603,161.186L294.045,161.457L294.486,161.73L294.926,162.004L295.365,162.279L295.804,162.556L296.241,162.834L296.678,163.113L297.114,163.393L297.549,163.675L297.983,163.958L298.416,164.242L298.848,164.528L299.279,164.814L299.709,165.102L300.139,165.392L300.567,165.682L300.995,165.974L301.422,166.267L301.847,166.561L302.272,166.857L302.696,167.154L303.119,167.452L303.541,167.751L303.962,168.051L304.382,168.353L304.801,168.656L305.22,168.96L305.637,169.266L306.053,169.572L306.469,169.88L306.883,170.189L307.296,170.499L307.709,170.811L308.121,171.123L308.531,171.437L308.941,171.752L309.349,172.069L309.757,172.386L310.164,172.705L310.569,173.025L310.974,173.346L311.378,173.668L311.781,173.991L312.182,174.316L312.583,174.642L312.983,174.969L313.382,175.297L313.779,175.626L314.176,175.957L314.572,176.288L314.967,176.621L315.36,176.955L315.753,177.29L316.145,177.627L316.535,177.964L316.925,178.303L317.314,178.642L317.701,178.983L318.088,179.325L318.473,179.668L318.858,180.013L319.241,180.358L319.624,180.705L320.005,181.052L320.385,181.401L320.765,181.751L321.143,182.102L321.52,182.454L321.896,182.808L322.271,183.162L322.645,183.518L323.018,183.874L323.39,184.232L323.761,184.591L324.13,184.951L324.499,185.312L324.867,185.674L325.233,186.037L325.599,186.401L325.963,186.767L326.326,187.133L326.688,187.501L327.049,187.87L327.409,188.239L327.768,188.61L328.126,188.982L328.482,189.355L328.838,189.729L329.192,190.104L329.546,190.48L329.898,190.857L330.249,191.235L330.599,191.615L330.948,191.995L331.295,192.376L331.642,192.759L331.987,193.142L332.332,193.527L332.675,193.912L333.017,194.299L333.358,194.686L333.697,195.075L334.036,195.465L334.373,195.855L334.71,196.247L335.045,196.64L335.379,197.033L335.712,197.428L336.043,197.824L336.374,198.221L336.703,198.618L337.031,199.017L337.358,199.417L337.684,199.818L338.009,200.219L338.332,200.622L338.654,201.026L338.975,201.431L339.295,201.836L339.614,202.243L339.931,202.651L340.248,203.059L340.563,203.469L340.877,203.879L341.189,204.291L341.501,204.704L341.811,205.117L342.12,205.531L342.428,205.947L342.734,206.363L343.04,206.78L343.344,207.199L343.647,207.618L343.949,208.038L344.249,208.459L344.548,208.881L344.846,209.304L345.143,209.728L345.439,210.153L345.733,210.578L346.026,211.005L346.318,211.433L346.608,211.861L346.898,212.291L347.186,212.721L347.472,213.152L347.758,213.584L348.042,214.017L348.325,214.451L348.607,214.886L348.887,215.322L349.166,215.759L349.444,216.196L349.721,216.635L349.996,217.074L350.27,217.514L350.543,217.955L350.814,218.397L351.084,218.84L351.353,219.284L351.621,219.728L351.887,220.174L352.152,220.62L352.415,221.067L352.678,221.515L352.939,221.964L353.198,222.414L353.457,222.865L353.714,223.316L353.969,223.769L354.224,224.222L354.477,224.676L354.728,225.131L354.979,225.586L355.228,226.043L355.475,226.5L355.722,226.958L355.967,227.417L356.21,227.877L356.453,228.338L356.694,228.799L356.933,229.262L357.171,229.725L357.408,230.189L357.644,230.653L357.878,231.119L358.111,231.585L358.342,232.052L358.572,232.52L358.801,232.989L359.028,233.459L359.254,233.929L359.478,234.4L359.702,234.872L359.923,235.345L360.144,235.818L360.363,236.292L360.58,236.767L360.796,237.243L361.011,237.72L361.224,238.197L361.436,238.675L361.647,239.154L361.856,239.633L362.063,240.114L362.27,240.595L362.474,241.077L362.678,241.559L362.88,242.043L363.08,242.527L363.279,243.012L363.477,243.497L363.673,243.983L363.868,244.47L364.061,244.958L364.253,245.447L364.444,245.936L364.633,246.426L364.82,246.916L365.006,247.408L365.191,247.9L365.374,248.393L365.556,248.886L365.736,249.38L365.915,249.875L366.092,250.371L366.268,250.867L366.442,251.364L366.615,251.862L366.787,252.36L366.957,252.859L367.125,253.359L367.292,253.859L367.457,254.36L367.621,254.862L367.784,255.365L367.944,255.868L368.104,256.372L368.262,256.876L368.418,257.381L368.573,257.887L368.726,258.393L368.878,258.901L369.029,259.408L369.177,259.917L369.325,260.426L369.47,260.935L369.615,261.446L369.757,261.957L369.898,262.468L370.038,262.981L370.176,263.493L370.313,264.007L370.448,264.521L370.581,265.036L370.713,265.551L370.843,266.067L370.972,266.584L371.099,267.101L371.225,267.619L371.349,268.137L371.471,268.656L371.592,269.176L371.712,269.696L371.83,270.217L371.946,270.738L372.06,271.26L372.173,271.783L372.285,272.306L372.395,272.83L372.503,273.354L372.61,273.879L372.715,274.405L372.818,274.931L372.92,275.457L373.02,275.985L373.119,276.512L373.216,277.041L373.312,277.57L373.405,278.099L373.498,278.629L373.588,279.16L373.677,279.691L373.764,280.223L373.85,280.755L373.934,281.287L374.017,281.821L374.097,282.355L374.177,282.889L374.254,283.424L374.33,283.959L374.404,284.495L374.477,285.032L374.548,285.569L374.617,286.106L374.685,286.644L374.751,287.183L374.815,287.722L374.878,288.261L374.938,288.801L374.998,289.342L375.055,289.883L375.111,290.424L375.166,290.967L375.218,291.509L375.269,292.052L375.318,292.596L375.366,293.14L375.412,293.684L375.456,294.229L375.498,294.774L375.539,295.32L375.578,295.867L375.615,296.413L375.651,296.961L375.685,297.508L375.717,298.057L375.747,298.605L375.776,299.154L375.803,299.704L375.828,300.254L375.852,300.805L375.874,301.355L375.894,301.907L375.912,302.459L375.929,303.011L375.944,303.563L375.957,304.117L375.968,304.67L375.978,305.224L375.986,305.778L375.992,306.333L375.996,306.888L375.999,307.444L376,308L375.999,308.556L375.996,309.112L375.992,309.667L375.986,310.222L375.978,310.776L375.968,311.33L375.957,311.883L375.944,312.437L375.929,312.989L375.912,313.541L375.894,314.093L375.874,314.645L375.852,315.195L375.828,315.746L375.803,316.296L375.776,316.846L375.747,317.395L375.717,317.943L375.685,318.492L375.651,319.039L375.615,319.587L375.578,320.133L375.539,320.68L375.498,321.226L375.456,321.771L375.412,322.316L375.366,322.86L375.318,323.404L375.269,323.948L375.218,324.491L375.166,325.033L375.111,325.576L375.055,326.117L374.998,326.658L374.938,327.199L374.878,327.739L374.815,328.278L374.751,328.817L374.685,329.356L374.617,329.894L374.548,330.431L374.477,330.968L374.404,331.505L374.33,332.041L374.254,332.576L374.177,333.111L374.097,333.645L374.017,334.179L373.934,334.713L373.85,335.245L373.764,335.777L373.677,336.309L373.588,336.84L373.498,337.371L373.405,337.901L373.312,338.43L373.216,338.959L373.119,339.488L373.02,340.015L372.92,340.543L372.818,341.069L372.715,341.595L372.61,342.121L372.503,342.646L372.395,343.17L372.285,343.694L372.173,344.217L372.06,344.74L371.946,345.262L371.83,345.783L371.712,346.304L371.592,346.824L371.471,347.344L371.349,347.863L371.225,348.381L371.099,348.899L370.972,349.416L370.843,349.933L370.713,350.449L370.581,350.964L370.448,351.479L370.313,351.993L370.176,352.507L370.038,353.019L369.898,353.532L369.757,354.043L369.615,354.554L369.47,355.065L369.325,355.574L369.177,356.083L369.029,356.592L368.878,357.099L368.726,357.607L368.573,358.113L368.418,358.619L368.262,359.124L368.104,359.628L367.944,360.132L367.784,360.635L367.621,361.138L367.457,361.64L367.292,362.141L367.125,362.641L366.957,363.141L366.787,363.64L366.615,364.138L366.442,364.636L366.268,365.133L366.092,365.629L365.915,366.125L365.736,366.62L365.556,367.114L365.374,367.607L365.191,368.1L365.006,368.592L364.82,369.084L364.633,369.574L364.444,370.064L364.253,370.553L364.061,371.042L363.868,371.53L363.673,372.017L363.477,372.503L363.279,372.988L363.08,373.473L362.88,373.957L362.678,374.441L362.474,374.923L362.27,375.405L362.063,375.886L361.856,376.367L361.647,376.846L361.436,377.325L361.224,377.803L361.011,378.28L360.796,378.757L360.58,379.233L360.363,379.708L360.144,380.182L359.923,380.655L359.702,381.128L359.478,381.6L359.254,382.071L359.028,382.541L358.801,383.011L358.572,383.48L358.342,383.948L358.111,384.415L357.878,384.881L357.644,385.347L357.408,385.811L357.171,386.275L356.933,386.738L356.694,387.201L356.453,387.662L356.21,388.123L355.967,388.583L355.722,389.042L355.475,389.5L355.228,389.957L354.979,390.414L354.728,390.869L354.477,391.324L354.224,391.778L353.969,392.231L353.714,392.684L353.457,393.135L353.198,393.586L352.939,394.036L352.678,394.485L352.415,394.933L352.152,395.38L351.887,395.826L351.621,396.272L351.353,396.716L351.084,397.16L350.814,397.603L350.543,398.045L350.27,398.486L349.996,398.926L349.721,399.365L349.444,399.804L349.166,400.241L348.887,400.678L348.607,401.114L348.325,401.549L348.042,401.983L347.758,402.416L347.472,402.848L347.186,403.279L346.898,403.709L346.608,404.139L346.318,404.567L346.026,404.995L345.733,405.422L345.439,405.847L345.143,406.272L344.846,406.696L344.548,407.119L344.249,407.541L343.949,407.962L343.647,408.382L343.344,408.801L343.04,409.22L342.734,409.637L342.428,410.053L342.12,410.469L341.811,410.883L341.501,411.296L341.189,411.709L340.877,412.121L340.563,412.531L340.248,412.941L339.931,413.349L339.614,413.757L339.295,414.164L338.975,414.569L338.654,414.974L338.332,415.378L338.009,415.781L337.684,416.182L337.358,416.583L337.031,416.983L336.703,417.382L336.374,417.779L336.043,418.176L335.712,418.572L335.379,418.967L335.045,419.36L334.71,419.753L334.373,420.145L334.036,420.535L333.697,420.925L333.358,421.314L333.017,421.701L332.675,422.088L332.332,422.473L331.987,422.858L331.642,423.241L331.295,423.624L330.948,424.005L330.599,424.385L330.249,424.765L329.898,425.143L329.546,425.52L329.192,425.896L328.838,426.271L328.482,426.645L328.126,427.018L327.768,427.39L327.409,427.761L327.049,428.13L326.688,428.499L326.326,428.867L325.963,429.233L325.599,429.599L325.233,429.963L324.867,430.326L324.499,430.688L324.13,431.049L323.761,431.409L323.39,431.768L323.018,432.126L322.645,432.482L322.271,432.838L321.896,433.192L321.52,433.546L321.143,433.898L320.765,434.249L320.385,434.599L320.005,434.948L319.624,435.295L319.241,435.642L318.858,435.987L318.473,436.332L318.088,436.675L317.701,437.017L317.314,437.358L316.925,437.697L316.535,438.036L316.145,438.373L315.753,438.71L315.36,439.045L314.967,439.379L314.572,439.712L314.176,440.043L313.779,440.374L313.382,440.703L312.983,441.031L312.583,441.358L312.182,441.684L311.781,442.009L311.378,442.332L310.974,442.654L310.569,442.975L310.164,443.295L309.757,443.614L309.349,443.931L308.941,444.248L308.531,444.563L308.121,444.877L307.709,445.189L307.296,445.501L306.883,445.811L306.469,446.12L306.053,446.428L305.637,446.734L305.22,447.04L304.801,447.344L304.382,447.647L303.962,447.949L303.541,448.249L303.119,448.548L302.696,448.846L302.272,449.143L301.847,449.439L301.422,449.733L300.995,450.026L300.567,450.318L300.139,450.608L299.709,450.898L299.279,451.186L298.848,451.472L298.416,451.758L297.983,452.042L297.549,452.325L297.114,452.607L296.678,452.887L296.241,453.166L295.804,453.444L295.365,453.721L294.926,453.996L294.486,454.27L294.045,454.543L293.603,454.814L293.16,455.084L292.716,455.353L292.272,455.621L291.826,455.887L291.38,456.152L290.933,456.415L290.485,456.678L290.036,456.939L289.586,457.198L289.135,457.457L288.684,457.714L288.231,457.969L287.778,458.224L287.324,458.477L286.869,458.728L286.414,458.979L285.957,459.228L285.5,459.475L285.042,459.722L284.583,459.967L284.123,460.21L283.662,460.453L283.201,460.694L282.738,460.933L282.275,461.171L281.811,461.408L281.347,461.644L280.881,461.878L280.415,462.111L279.948,462.342L279.48,462.572L279.011,462.801L278.541,463.028L278.071,463.254L277.6,463.478L277.128,463.702L276.655,463.923L276.182,464.144L275.708,464.363L275.233,464.58L274.757,464.796L274.28,465.011L273.803,465.224L273.325,465.436L272.846,465.647L272.367,465.856L271.886,466.063L271.405,466.27L270.923,466.474L270.441,466.678L269.957,466.88L269.473,467.08L268.988,467.279L268.503,467.477L268.017,467.673L267.53,467.868L267.042,468.061L266.553,468.253L266.064,468.444L265.574,468.633L265.084,468.82L264.592,469.006L264.1,469.191L263.607,469.374L263.114,469.556L262.62,469.736L262.125,469.915L261.629,470.092L261.133,470.268L260.636,470.442L260.138,470.615L259.64,470.787L259.141,470.957L258.641,471.125L258.141,471.292L257.64,471.457L257.138,471.621L256.635,471.784L256.132,471.944L255.628,472.104L255.124,472.262L254.619,472.418L254.113,472.573L253.607,472.726L253.099,472.878L252.592,473.029L252.083,473.177L251.574,473.325L251.065,473.47L250.554,473.615L250.043,473.757L249.532,473.898L249.019,474.038L248.507,474.176L247.993,474.313L247.479,474.448L246.964,474.581L246.449,474.713L245.933,474.843L245.416,474.972L244.899,475.099L244.381,475.225L243.863,475.349L243.344,475.471L242.824,475.592L242.304,475.712L241.783,475.83L241.262,475.946L240.74,476.06L240.217,476.173L239.694,476.285L239.17,476.395L238.646,476.503L238.121,476.61L237.595,476.715L237.069,476.818L236.543,476.92L236.015,477.02L235.488,477.119L234.959,477.216L234.43,477.312L233.901,477.405L233.371,477.498L232.84,477.588L232.309,477.677L231.777,477.764L231.245,477.85L230.713,477.934L230.179,478.017L229.645,478.097L229.111,478.177L228.576,478.254L228.041,478.33L227.505,478.404L226.968,478.477L226.431,478.548L225.894,478.617L225.356,478.685L224.817,478.751L224.278,478.815L223.739,478.878L223.199,478.938L222.658,478.998L222.117,479.055L221.576,479.111L221.033,479.166L220.491,479.218L219.948,479.269L219.404,479.318L218.86,479.366L218.316,479.412L217.771,479.456L217.226,479.498L216.68,479.539L216.133,479.578L215.587,479.615L215.039,479.651L214.492,479.685L213.943,479.717L213.395,479.747L212.846,479.776L212.296,479.803L211.746,479.828L211.195,479.852L210.645,479.874L210.093,479.894L209.541,479.912L208.989,479.929L208.437,479.944L207.883,479.957L207.33,479.968L206.776,479.978L206.222,479.986L205.667,479.992L205.112,479.996L204.556,479.999L204,480L203.444,479.999L202.888,479.996L202.333,479.992L201.778,479.986L201.224,479.978L200.67,479.968L200.117,479.957L199.563,479.944L199.011,479.929L198.459,479.912L197.907,479.894L197.355,479.874L196.805,479.852L196.254,479.828L195.704,479.803L195.154,479.776L194.605,479.747L194.057,479.717L193.508,479.685L192.961,479.651L192.413,479.615L191.867,479.578L191.32,479.539L190.774,479.498L190.229,479.456L189.684,479.412L189.14,479.366L188.596,479.318L188.052,479.269L187.509,479.218L186.967,479.166L186.424,479.111L185.883,479.055L185.342,478.998L184.801,478.938L184.261,478.878L183.722,478.815L183.183,478.751L182.644,478.685L182.106,478.617L181.569,478.548L181.032,478.477L180.495,478.404L179.959,478.33L179.424,478.254L178.889,478.177L178.355,478.097L177.821,478.017L177.287,477.934L176.755,477.85L176.223,477.764L175.691,477.677L175.16,477.588L174.629,477.498L174.099,477.405L173.57,477.312L173.041,477.216L172.512,477.119L171.985,477.02L171.457,476.92L170.931,476.818L170.405,476.715L169.879,476.61L169.354,476.503L168.83,476.395L168.306,476.285L167.783,476.173L167.26,476.06L166.738,475.946L166.217,475.83L165.696,475.712L165.176,475.592L164.656,475.471L164.137,475.349L163.619,475.225L163.101,475.099L162.584,474.972L162.067,474.843L161.551,474.713L161.036,474.581L160.521,474.448L160.007,474.313L159.493,474.176L158.981,474.038L158.468,473.898L157.957,473.757L157.446,473.615L156.935,473.47L156.426,473.325L155.917,473.177L155.408,473.029L154.901,472.878L154.393,472.726L153.887,472.573L153.381,472.418L152.876,472.262L152.372,472.104L151.868,471.944L151.365,471.784L150.862,471.621L150.36,471.457L149.859,471.292L149.359,471.125L148.859,470.957L148.36,470.787L147.862,470.615L147.364,470.442L146.867,470.268L146.371,470.092L145.875,469.915L145.38,469.736L144.886,469.556L144.393,469.374L143.9,469.191L143.408,469.006L142.916,468.82L142.426,468.633L141.936,468.444L141.447,468.253L140.958,468.061L140.47,467.868L139.983,467.673L139.497,467.477L139.012,467.279L138.527,467.08L138.043,466.88L137.559,466.678L137.077,466.474L136.595,466.27L136.114,466.063L135.633,465.856L135.154,465.647L134.675,465.436L134.197,465.224L133.72,465.011L133.243,464.796L132.767,464.58L132.292,464.363L131.818,464.144L131.345,463.923L130.872,463.702L130.4,463.478L129.929,463.254L129.459,463.028L128.989,462.801L128.52,462.572L128.052,462.342L127.585,462.111L127.119,461.878L126.653,461.644L126.189,461.408L125.725,461.171L125.262,460.933L124.799,460.694L124.338,460.453L123.877,460.21L123.417,459.967L122.958,459.722L122.5,459.475L122.043,459.228L121.586,458.979L121.131,458.728L120.676,458.477L120.222,458.224L119.769,457.969L119.316,457.714L118.865,457.457L118.414,457.198L117.964,456.939L117.515,456.678L117.067,456.415L116.62,456.152L116.174,455.887L115.728,455.621L115.284,455.353L114.84,455.084L114.397,454.814L113.955,454.543L113.514,454.27L113.074,453.996L112.635,453.721L112.196,453.444L111.759,453.166L111.322,452.887L110.886,452.607L110.451,452.325L110.017,452.042L109.584,451.758L109.152,451.472L108.721,451.186L108.291,450.898L107.861,450.608L107.433,450.318L107.005,450.026L106.578,449.733L106.153,449.439L105.728,449.143L105.304,448.846L104.881,448.548L104.459,448.249L104.038,447.949L103.618,447.647L103.199,447.344L102.78,447.04L102.363,446.734L101.947,446.428L101.531,446.12L101.117,445.811L100.704,445.501L100.291,445.189L99.879,444.877L99.469,444.563L99.059,444.248L98.651,443.931L98.243,443.614L97.836,443.295L97.431,442.975L97.026,442.654L96.622,442.332L96.219,442.009L95.818,441.684L95.417,441.358L95.017,441.031L94.618,440.703L94.221,440.374L93.824,440.043L93.428,439.712L93.033,439.379L92.64,439.045L92.247,438.71L91.855,438.373L91.465,438.036L91.075,437.697L90.686,437.358L90.299,437.017L89.912,436.675L89.527,436.332L89.142,435.987L88.759,435.642L88.376,435.295L87.995,434.948L87.615,434.599L87.235,434.249L86.857,433.898L86.48,433.546L86.104,433.192L85.729,432.838L85.355,432.482L84.982,432.126L84.61,431.768L84.239,431.409L83.87,431.049L83.501,430.688L83.133,430.326L82.767,429.963L82.401,429.599L82.037,429.233L81.674,428.867L81.312,428.499L80.951,428.13L80.591,427.761L80.232,427.39L79.874,427.018L79.518,426.645L79.162,426.271L78.808,425.896L78.454,425.52L78.102,425.143L77.751,424.765L77.401,424.385L77.052,424.005L76.705,423.624L76.358,423.241L76.013,422.858L75.668,422.473L75.325,422.088L74.983,421.701L74.642,421.314L74.303,420.925L73.964,420.535L73.627,420.145L73.29,419.753L72.955,419.36L72.621,418.967L72.288,418.572L71.957,418.176L71.626,417.779L71.297,417.382L70.969,416.983L70.642,416.583L70.316,416.182L69.991,415.781L69.668,415.378L69.346,414.974L69.025,414.569L68.705,414.164L68.386,413.757L68.069,413.349L67.752,412.941L67.437,412.531L67.123,412.121L66.811,411.709L66.499,411.296L66.189,410.883L65.88,410.469L65.572,410.053L65.266,409.637L64.96,409.22L64.656,408.801L64.353,408.382L64.051,407.962L63.751,407.541L63.452,407.119L63.154,406.696L62.857,406.272L62.561,405.847L62.267,405.422L61.974,404.995L61.682,404.567L61.392,404.139L61.102,403.709L60.814,403.279L60.528,402.848L60.242,402.416L59.958,401.983L59.675,401.549L59.393,401.114L59.113,400.678L58.834,400.241L58.556,399.804L58.279,399.365L58.004,398.926L57.73,398.486L57.457,398.045L57.186,397.603L56.916,397.16L56.647,396.716L56.379,396.272L56.113,395.826L55.848,395.38L55.585,394.933L55.322,394.485L55.061,394.036L54.802,393.586L54.543,393.135L54.286,392.684L54.031,392.231L53.776,391.778L53.523,391.324L53.272,390.869L53.021,390.414L52.772,389.957L52.525,389.5L52.278,389.042L52.033,388.583L51.79,388.123L51.547,387.662L51.306,387.201L51.067,386.738L50.829,386.275L50.592,385.811L50.356,385.347L50.122,384.881L49.889,384.415L49.658,383.948L49.428,383.48L49.199,383.011L48.972,382.541L48.746,382.071L48.522,381.6L48.298,381.128L48.077,380.655L47.856,380.182L47.637,379.708L47.42,379.233L47.204,378.757L46.989,378.28L46.776,377.803L46.564,377.325L46.353,376.846L46.144,376.367L45.937,375.886L45.73,375.405L45.526,374.923L45.322,374.441L45.12,373.957L44.92,373.473L44.721,372.988L44.523,372.503L44.327,372.017L44.132,371.53L43.939,371.042L43.747,370.553L43.556,370.064L43.367,369.574L43.18,369.084L42.994,368.592L42.809,368.1L42.626,367.607L42.444,367.114L42.264,366.62L42.085,366.125L41.908,365.629L41.732,365.133L41.558,364.636L41.385,364.138L41.213,363.64L41.043,363.141L40.875,362.641L40.708,362.141L40.543,361.64L40.379,361.138L40.216,360.635L40.056,360.132L39.896,359.628L39.738,359.124L39.582,358.619L39.427,358.113L39.274,357.607L39.122,357.099L38.971,356.592L38.823,356.083L38.675,355.574L38.53,355.065L38.385,354.554L38.243,354.043L38.102,353.532L37.962,353.019L37.824,352.507L37.687,351.993L37.552,351.479L37.419,350.964L37.287,350.449L37.157,349.933L37.028,349.416L36.901,348.899L36.775,348.381L36.651,347.863L36.529,347.344L36.408,346.824L36.288,346.304L36.17,345.783L36.054,345.262L35.94,344.74L35.827,344.217L35.715,343.694L35.605,343.17L35.497,342.646L35.39,342.121L35.285,341.595L35.182,341.069L35.08,340.543L34.98,340.015L34.881,339.488L34.784,338.959L34.688,338.43L34.595,337.901L34.502,337.371L34.412,336.84L34.323,336.309L34.236,335.777L34.15,335.245L34.066,334.713L33.983,334.179L33.903,333.645L33.823,333.111L33.746,332.576L33.67,332.041L33.596,331.505L33.523,330.968L33.452,330.431L33.383,329.894L33.315,329.356L33.249,328.817L33.185,328.278L33.122,327.739L33.062,327.199L33.002,326.658L32.945,326.117L32.889,325.576L32.834,325.033L32.782,324.491L32.731,323.948L32.682,323.404L32.634,322.86L32.588,322.316L32.544,321.771L32.502,321.226L32.461,320.68L32.422,320.133L32.385,319.587L32.349,319.039L32.315,318.492L32.283,317.943L32.253,317.395L32.224,316.846L32.197,316.296L32.172,315.746L32.148,315.195L32.126,314.645L32.106,314.093L32.088,313.541L32.071,312.989L32.056,312.437L32.043,311.883L32.032,311.33L32.022,310.776L32.014,310.222L32.008,309.667L32.004,309.112L32.001,308.556L32,308L32.001,307.444L32.004,306.888L32.008,306.333L32.014,305.778L32.022,305.224L32.032,304.67L32.043,304.117L32.056,303.563L32.071,303.011L32.088,302.459L32.106,301.907L32.126,301.355L32.148,300.805L32.172,300.254L32.197,299.704L32.224,299.154L32.253,298.605L32.283,298.057L32.315,297.508L32.349,296.961L32.385,296.413L32.422,295.867L32.461,295.32L32.502,294.774L32.544,294.229L32.588,293.684L32.634,293.14L32.682,292.596L32.731,292.052L32.782,291.509L32.834,290.967L32.889,290.424L32.945,289.883L33.002,289.342L33.062,288.801L33.122,288.261L33.185,287.722L33.249,287.183L33.315,286.644L33.383,286.106L33.452,285.569L33.523,285.032L33.596,284.495L33.67,283.959L33.746,283.424L33.823,282.889L33.903,282.355L33.983,281.821L34.066,281.287L34.15,280.755L34.236,280.223L34.323,279.691L34.412,279.16L34.502,278.629L34.595,278.099L34.688,277.57L34.784,277.041L34.881,276.512L34.98,275.985L35.08,275.457L35.182,274.931L35.285,274.405L35.39,273.879L35.497,273.354L35.605,272.83L35.715,272.306L35.827,271.783L35.94,271.26L36.054,270.738L36.17,270.217L36.288,269.696L36.408,269.176L36.529,268.656L36.651,268.137L36.775,267.619L36.901,267.101L37.028,266.584L37.157,266.067L37.287,265.551L37.419,265.036L37.552,264.521L37.687,264.007L37.824,263.493L37.962,262.981L38.102,262.468L38.243,261.957L38.385,261.446L38.53,260.935L38.675,260.426L38.823,259.917L38.971,259.408L39.122,258.901L39.274,258.393L39.427,257.887L39.582,257.381L39.738,256.876L39.896,256.372L40.056,255.868L40.216,255.365L40.379,254.862L40.543,254.36L40.708,253.859L40.875,253.359L41.043,252.859L41.213,252.36L41.385,251.862L41.558,251.364L41.732,250.867L41.908,250.371L42.085,249.875L42.264,249.38L42.444,248.886L42.626,248.393L42.809,247.9L42.994,247.408L43.18,246.916L43.367,246.426L43.556,245.936L43.747,245.447L43.939,244.958L44.132,244.47L44.327,243.983L44.523,243.497L44.721,243.012L44.92,242.527L45.12,242.043L45.322,241.559L45.526,241.077L45.73,240.595L45.937,240.114L46.144,239.633L46.353,239.154L46.564,238.675L46.776,238.197L46.989,237.72L47.204,237.243L47.42,236.767L47.637,236.292L47.856,235.818L48.077,235.345L48.298,234.872L48.522,234.4L48.746,233.929L48.972,233.459L49.199,232.989L49.428,232.52L49.658,232.052L49.889,231.585L50.122,231.119L50.356,230.653L50.592,230.189L50.829,229.725L51.067,229.262L51.306,228.799L51.547,228.338L51.79,227.877L52.033,227.417L52.278,226.958L52.525,226.5L52.772,226.043L53.021,225.586L53.272,225.131L53.523,224.676L53.776,224.222L54.031,223.769L54.286,223.316L54.543,222.865L54.802,222.414L55.061,221.964L55.322,221.515L55.585,221.067L55.848,220.62L56.113,220.174L56.379,219.728L56.647,219.284L56.916,218.84L57.186,218.397L57.457,217.955L57.73,217.514L58.004,217.074L58.279,216.635L58.556,216.196L58.834,215.759L59.113,215.322L59.393,214.886L59.675,214.451L59.958,214.017L60.242,213.584L60.528,213.152L60.814,212.721L61.102,212.291L61.392,211.861L61.682,211.433L61.974,211.005L62.267,210.578L62.561,210.153L62.857,209.728L63.154,209.304L63.452,208.881L63.751,208.459L64.051,208.038L64.353,207.618L64.656,207.199L64.96,206.78L65.266,206.363L65.572,205.947L65.88,205.531L66.189,205.117L66.499,204.704L66.811,204.291L67.123,203.879L67.437,203.469L67.752,203.059L68.069,202.651L68.386,202.243L68.705,201.836L69.025,201.431L69.346,201.026L69.668,200.622L69.991,200.219L70.316,199.818L70.642,199.417L70.969,199.017L71.297,198.618L71.626,198.221L71.957,197.824L72.288,197.428L72.621,197.033L72.955,196.64L73.29,196.247L73.627,195.855L73.964,195.465L74.303,195.075L74.642,194.686L74.983,194.299L75.325,193.912L75.668,193.527L76.013,193.142L76.358,192.759L76.705,192.376L77.052,191.995L77.401,191.615L77.751,191.235L78.102,190.857L78.454,190.48L78.808,190.104L79.162,189.729L79.518,189.355L79.874,188.982L80.232,188.61L80.591,188.239L80.951,187.87L81.312,187.501L81.674,187.133L82.037,186.767L82.401,186.401L82.767,186.037L83.133,185.674L83.501,185.312L83.87,184.951L84.239,184.591L84.61,184.232L84.982,183.874L85.355,183.518L85.729,183.162L86.104,182.808L86.48,182.454L86.857,182.102L87.235,181.751L87.615,181.401L87.995,181.052L88.376,180.705L88.759,180.358L89.142,180.013L89.527,179.668L89.912,179.325L90.299,178.983L90.686,178.642L91.075,178.303L91.465,177.964L91.855,177.627L92.247,177.29L92.64,176.955L93.033,176.621L93.428,176.288L93.824,175.957L94.221,175.626L94.618,175.297L95.017,174.969L95.417,174.642L95.818,174.316L96.219,173.991L96.622,173.668L97.026,173.346L97.431,173.025L97.836,172.705L98.243,172.386L98.651,172.069L99.059,171.752L99.469,171.437L99.879,171.123L100.291,170.811L100.704,170.499L101.117,170.189L101.531,169.88L101.947,169.572L102.363,169.266L102.78,168.96L103.199,168.656L103.618,168.353L104.038,168.051L104.459,167.751L104.881,167.452L105.304,167.154L105.728,166.857L106.153,166.561L106.578,166.267L107.005,165.974L107.433,165.682L107.861,165.392L108.291,165.102L108.721,164.814L109.152,164.528L109.584,164.242L110.017,163.958L110.451,163.675L110.886,163.393L111.322,163.113L111.759,162.834L112.196,162.556L112.635,162.279L113.074,162.004L113.514,161.73L113.955,161.457L114.397,161.186L114.84,160.916L115.284,160.647L115.728,160.379L116.174,160.113L116.62,159.848L117.067,159.585L117.515,159.322L117.964,159.061L118.414,158.802L118.865,158.543L119.316,158.286L119.769,158.031L120.222,157.776L120.676,157.523L121.131,157.272L121.586,157.021L122.043,156.772L122.5,156.525L122.958,156.278L123.417,156.033L123.877,155.79L124.338,155.547L124.799,155.306L125.262,155.067L125.725,154.829L126.189,154.592L126.653,154.356L127.119,154.122L127.585,153.889L128.052,153.658L128.52,153.428L128.989,153.199L129.459,152.972L129.929,152.746L130.4,152.522L130.872,152.298L131.345,152.077L131.818,151.856L132.292,151.637L132.767,151.42L133.243,151.204L133.72,150.989L134.197,150.776L134.675,150.564L135.154,150.353L135.633,150.144L136.114,149.937L136.595,149.73L137.077,149.526L137.559,149.322L138.043,149.12L138.527,148.92L139.012,148.721L139.497,148.523L139.983,148.327L140.47,148.132L140.958,147.939L141.447,147.747L141.936,147.556L142.426,147.367L142.916,147.18L143.408,146.994L143.9,146.809L144.393,146.626L144.886,146.444L145.38,146.264L145.875,146.085L146.371,145.908L146.867,145.732L147.364,145.558L147.862,145.385L148.36,145.213L148.859,145.043L149.359,144.875L149.859,144.708L150.36,144.543L150.862,144.379L151.365,144.216L151.868,144.056L152.372,143.896L152.876,143.738L153.381,143.582L153.887,143.427L154.393,143.274L154.901,143.122L155.408,142.971L155.917,142.823L156.426,142.675L156.935,142.53L157.446,142.385L157.957,142.243L158.468,142.102L158.981,141.962L159.493,141.824L160.007,141.687L160.521,141.552L161.036,141.419L161.551,141.287L162.067,141.157L162.584,141.028L163.101,140.901L163.619,140.775L164.137,140.651L164.656,140.529L165.176,140.408L165.696,140.288L166.217,140.17L166.738,140.054L167.26,139.94L167.783,139.827L168.306,139.715L168.83,139.605L169.354,139.497L169.879,139.39L170.405,139.285L170.931,139.182L171.457,139.08L171.985,138.98L172.512,138.881L173.041,138.784L173.57,138.688L174.099,138.595L174.629,138.502L175.16,138.412L175.691,138.323L176.223,138.236L176.755,138.15L177.287,138.066L177.821,137.983L178.355,137.903L178.889,137.823L179.424,137.746L179.959,137.67L180.495,137.596L181.032,137.523L181.569,137.452L182.106,137.383L182.644,137.315L183.183,137.249L183.722,137.185L184.261,137.122L184.801,137.062L185.342,137.002L185.883,136.945L186.424,136.889L186.967,136.834L187.509,136.782L188.052,136.731L188.596,136.682L189.14,136.634L189.684,136.588L190.229,136.544L190.774,136.502L191.32,136.461L191.867,136.422L192.413,136.385L192.961,136.349L193.508,136.315L194.057,136.283L194.605,136.253L195.154,136.224L195.704,136.197L196.254,136.172L196.805,136.148L197.355,136.126L197.907,136.106L198.459,136.088L199.011,136.071L199.563,136.056L200.117,136.043L200.67,136.032L201.224,136.022L201.778,136.014L202.333,136.008L202.888,136.004L203.444,136.001L204,136L204.556,136.001ZM203.535,164.667L203.07,164.67L202.606,164.673L202.142,164.678L201.679,164.685L201.216,164.693L200.753,164.703L200.29,164.714L199.829,164.726L199.367,164.74L198.907,164.755L198.446,164.772L197.985,164.79L197.526,164.81L197.067,164.831L196.608,164.854L196.149,164.878L195.691,164.903L195.234,164.93L194.776,164.958L194.32,164.988L193.864,165.019L193.408,165.052L192.952,165.086L192.497,165.121L192.043,165.158L191.589,165.196L191.135,165.236L190.681,165.277L190.229,165.319L189.777,165.363L189.325,165.408L188.873,165.455L188.422,165.503L187.971,165.552L187.522,165.603L187.072,165.655L186.623,165.709L186.174,165.764L185.725,165.82L185.278,165.878L184.83,165.937L184.383,165.998L183.937,166.059L183.491,166.123L183.045,166.187L182.6,166.253L182.156,166.32L181.711,166.389L181.268,166.459L180.825,166.53L180.382,166.603L179.94,166.677L179.498,166.753L179.057,166.829L178.616,166.908L178.176,166.987L177.736,167.068L177.296,167.15L176.858,167.233L176.419,167.318L175.982,167.404L175.544,167.492L175.107,167.581L174.671,167.671L174.235,167.762L173.8,167.855L173.365,167.949L172.93,168.044L172.496,168.141L172.063,168.239L171.63,168.338L171.198,168.439L170.766,168.541L170.335,168.644L169.904,168.749L169.473,168.855L169.043,168.962L168.614,169.07L168.186,169.18L167.757,169.291L167.329,169.403L166.902,169.517L166.475,169.632L166.049,169.748L165.624,169.865L165.199,169.984L164.774,170.104L164.35,170.225L163.927,170.347L163.504,170.471L163.081,170.596L162.659,170.723L162.238,170.85L161.817,170.979L161.397,171.109L160.978,171.241L160.558,171.373L160.139,171.507L159.722,171.642L159.304,171.779L158.887,171.916L158.471,172.055L158.055,172.195L157.64,172.336L157.225,172.479L156.811,172.623L156.398,172.768L155.985,172.914L155.572,173.062L155.161,173.21L154.75,173.36L154.339,173.512L153.929,173.664L153.519,173.818L153.111,173.972L152.702,174.129L152.295,174.286L151.888,174.444L151.481,174.604L151.075,174.765L150.67,174.927L150.265,175.09L149.861,175.255L149.458,175.42L149.055,175.587L148.652,175.756L148.251,175.925L147.85,176.095L147.449,176.267L147.049,176.44L146.65,176.614L146.252,176.789L145.854,176.965L145.456,177.143L145.06,177.322L144.663,177.502L144.268,177.683L143.873,177.865L143.479,178.049L143.085,178.233L142.693,178.419L142.3,178.606L141.908,178.794L141.518,178.983L141.127,179.174L140.738,179.365L140.349,179.558L139.96,179.752L139.573,179.947L139.186,180.143L138.799,180.34L138.414,180.538L138.029,180.738L137.644,180.939L137.26,181.141L136.877,181.343L136.495,181.547L136.113,181.753L135.732,181.959L135.352,182.167L134.972,182.375L134.593,182.585L134.215,182.796L133.837,183.008L133.461,183.221L133.085,183.435L132.709,183.65L132.334,183.866L131.96,184.084L131.587,184.302L131.214,184.522L130.842,184.743L130.471,184.965L130.101,185.188L129.731,185.412L129.361,185.637L128.993,185.863L128.626,186.09L128.259,186.319L127.892,186.548L127.527,186.779L127.162,187.01L126.798,187.243L126.435,187.477L126.072,187.712L125.71,187.948L125.349,188.184L124.989,188.423L124.63,188.662L124.271,188.902L123.913,189.143L123.556,189.385L123.199,189.628L122.843,189.873L122.488,190.118L122.134,190.365L121.781,190.612L121.428,190.861L121.076,191.11L120.725,191.361L120.374,191.612L120.025,191.865L119.676,192.119L119.328,192.373L118.981,192.629L118.634,192.886L118.288,193.144L117.943,193.403L117.6,193.662L117.256,193.923L116.914,194.185L116.572,194.448L116.231,194.712L115.891,194.977L115.552,195.243L115.213,195.509L114.876,195.777L114.539,196.046L114.203,196.316L113.867,196.587L113.533,196.859L113.2,197.131L112.867,197.405L112.535,197.68L112.204,197.956L111.874,198.233L111.545,198.51L111.216,198.789L110.888,199.069L110.561,199.349L110.235,199.631L109.91,199.913L109.586,200.197L109.262,200.481L108.94,200.766L108.618,201.053L108.297,201.34L107.977,201.628L107.658,201.918L107.34,202.208L107.022,202.499L106.706,202.791L106.39,203.084L106.076,203.378L105.762,203.673L105.449,203.968L105.137,204.265L104.825,204.563L104.515,204.861L104.206,205.161L103.897,205.461L103.589,205.763L103.283,206.065L102.977,206.368L102.672,206.672L102.368,206.977L102.065,207.283L101.762,207.589L101.461,207.897L101.161,208.206L100.861,208.515L100.563,208.825L100.265,209.137L99.968,209.449L99.673,209.762L99.378,210.076L99.084,210.391L98.791,210.706L98.499,211.022L98.208,211.34L97.918,211.658L97.628,211.977L97.34,212.297L97.053,212.618L96.767,212.94L96.481,213.262L96.197,213.586L95.913,213.91L95.631,214.235L95.349,214.562L95.068,214.888L94.789,215.216L94.51,215.544L94.232,215.874L93.956,216.204L93.68,216.535L93.405,216.867L93.131,217.2L92.859,217.533L92.587,217.868L92.316,218.203L92.046,218.539L91.777,218.875L91.509,219.213L91.242,219.552L90.977,219.891L90.712,220.231L90.448,220.572L90.185,220.914L89.923,221.256L89.662,221.599L89.403,221.944L89.144,222.288L88.886,222.634L88.629,222.981L88.374,223.328L88.119,223.676L87.865,224.025L87.612,224.374L87.361,224.725L87.11,225.076L86.861,225.428L86.612,225.781L86.365,226.134L86.118,226.488L85.873,226.843L85.628,227.199L85.385,227.555L85.143,227.913L84.902,228.271L84.662,228.63L84.422,228.989L84.184,229.35L83.948,229.711L83.712,230.072L83.477,230.435L83.243,230.798L83.01,231.162L82.779,231.527L82.548,231.892L82.319,232.259L82.09,232.625L81.863,232.993L81.637,233.362L81.412,233.731L81.188,234.101L80.965,234.471L80.743,234.842L80.522,235.214L80.302,235.587L80.084,235.96L79.866,236.334L79.65,236.709L79.435,237.085L79.221,237.461L79.008,237.838L78.796,238.215L78.585,238.593L78.375,238.973L78.166,239.352L77.959,239.732L77.753,240.113L77.548,240.495L77.343,240.877L77.141,241.26L76.939,241.644L76.738,242.029L76.538,242.414L76.34,242.799L76.143,243.186L75.947,243.573L75.752,243.96L75.558,244.349L75.365,244.738L75.174,245.127L74.983,245.518L74.794,245.909L74.606,246.3L74.419,246.693L74.233,247.085L74.049,247.479L73.865,247.873L73.683,248.268L73.502,248.663L73.322,249.059L73.143,249.456L72.965,249.854L72.789,250.252L72.614,250.65L72.44,251.049L72.267,251.449L72.095,251.85L71.925,252.251L71.756,252.652L71.588,253.054L71.421,253.457L71.255,253.861L71.09,254.265L70.927,254.67L70.765,255.075L70.604,255.481L70.444,255.887L70.286,256.295L70.129,256.702L69.973,257.111L69.818,257.519L69.664,257.929L69.512,258.339L69.36,258.749L69.211,259.161L69.062,259.572L68.914,259.985L68.768,260.398L68.623,260.811L68.479,261.225L68.337,261.64L68.195,262.055L68.055,262.471L67.916,262.887L67.779,263.304L67.642,263.722L67.507,264.14L67.373,264.558L67.241,264.977L67.109,265.397L66.979,265.817L66.85,266.238L66.723,266.659L66.596,267.081L66.471,267.504L66.348,267.927L66.225,268.35L66.104,268.774L65.984,269.199L65.865,269.624L65.748,270.049L65.631,270.476L65.517,270.902L65.403,271.329L65.291,271.757L65.18,272.185L65.07,272.614L64.962,273.043L64.854,273.473L64.749,273.904L64.644,274.334L64.541,274.766L64.439,275.198L64.338,275.63L64.239,276.063L64.141,276.496L64.044,276.93L63.949,277.365L63.855,277.8L63.762,278.235L63.671,278.671L63.581,279.107L63.492,279.544L63.404,279.981L63.318,280.419L63.233,280.858L63.15,281.297L63.068,281.736L62.987,282.176L62.908,282.616L62.829,283.057L62.753,283.498L62.677,283.94L62.603,284.382L62.53,284.825L62.459,285.268L62.389,285.712L62.32,286.156L62.253,286.6L62.187,287.045L62.123,287.491L62.059,287.937L61.998,288.383L61.937,288.83L61.878,289.278L61.82,289.725L61.764,290.174L61.709,290.623L61.655,291.072L61.603,291.521L61.552,291.972L61.503,292.422L61.455,292.873L61.408,293.325L61.363,293.776L61.319,294.229L61.277,294.682L61.236,295.135L61.196,295.588L61.158,296.043L61.121,296.497L61.086,296.952L61.052,297.408L61.019,297.863L60.988,298.32L60.958,298.777L60.93,299.234L60.903,299.691L60.878,300.149L60.854,300.608L60.831,301.067L60.81,301.526L60.79,301.986L60.772,302.446L60.755,302.906L60.74,303.367L60.726,303.829L60.714,304.291L60.703,304.753L60.693,305.215L60.685,305.679L60.678,306.142L60.673,306.606L60.67,307.07L60.667,307.535L60.667,308L60.667,308.465L60.67,308.93L60.673,309.394L60.678,309.858L60.685,310.321L60.693,310.785L60.703,311.247L60.714,311.709L60.726,312.171L60.74,312.633L60.755,313.094L60.772,313.554L60.79,314.014L60.81,314.474L60.831,314.933L60.854,315.392L60.878,315.851L60.903,316.309L60.93,316.766L60.958,317.223L60.988,317.68L61.019,318.137L61.052,318.592L61.086,319.048L61.121,319.503L61.158,319.957L61.196,320.412L61.236,320.865L61.277,321.318L61.319,321.771L61.363,322.224L61.408,322.675L61.455,323.127L61.503,323.578L61.552,324.028L61.603,324.479L61.655,324.928L61.709,325.377L61.764,325.826L61.82,326.275L61.878,326.722L61.937,327.17L61.998,327.617L62.059,328.063L62.123,328.509L62.187,328.955L62.253,329.4L62.32,329.844L62.389,330.288L62.459,330.732L62.53,331.175L62.603,331.618L62.677,332.06L62.753,332.502L62.829,332.943L62.908,333.384L62.987,333.824L63.068,334.264L63.15,334.703L63.233,335.142L63.318,335.581L63.404,336.019L63.492,336.456L63.581,336.893L63.671,337.329L63.762,337.765L63.855,338.2L63.949,338.635L64.044,339.07L64.141,339.504L64.239,339.937L64.338,340.37L64.439,340.802L64.541,341.234L64.644,341.666L64.749,342.096L64.854,342.527L64.962,342.957L65.07,343.386L65.18,343.815L65.291,344.243L65.403,344.671L65.517,345.098L65.631,345.524L65.748,345.951L65.865,346.376L65.984,346.801L66.104,347.226L66.225,347.65L66.348,348.073L66.471,348.496L66.596,348.919L66.723,349.341L66.85,349.762L66.979,350.183L67.109,350.603L67.241,351.023L67.373,351.442L67.507,351.86L67.642,352.278L67.779,352.696L67.916,353.113L68.055,353.529L68.195,353.945L68.337,354.36L68.479,354.775L68.623,355.189L68.768,355.602L68.914,356.015L69.062,356.428L69.211,356.839L69.36,357.251L69.512,357.661L69.664,358.071L69.818,358.481L69.973,358.889L70.129,359.298L70.286,359.705L70.444,360.113L70.604,360.519L70.765,360.925L70.927,361.33L71.09,361.735L71.255,362.139L71.421,362.543L71.588,362.946L71.756,363.348L71.925,363.749L72.095,364.15L72.267,364.551L72.44,364.951L72.614,365.35L72.789,365.749L72.965,366.146L73.143,366.544L73.322,366.941L73.502,367.336L73.683,367.732L73.865,368.127L74.048,368.521L74.233,368.914L74.419,369.307L74.606,369.7L74.794,370.091L74.983,370.482L75.174,370.873L75.365,371.262L75.558,371.651L75.752,372.04L75.947,372.427L76.143,372.814L76.34,373.201L76.538,373.586L76.738,373.971L76.939,374.356L77.141,374.74L77.344,375.123L77.547,375.505L77.753,375.887L77.959,376.268L78.166,376.648L78.375,377.027L78.585,377.407L78.796,377.785L79.008,378.162L79.221,378.539L79.435,378.915L79.65,379.291L79.866,379.666L80.084,380.04L80.302,380.413L80.522,380.786L80.743,381.158L80.965,381.529L81.188,381.9L81.412,382.269L81.637,382.638L81.863,383.007L82.09,383.375L82.319,383.741L82.548,384.108L82.779,384.473L83.01,384.838L83.243,385.202L83.477,385.565L83.712,385.928L83.948,386.289L84.185,386.651L84.423,387.011L84.661,387.37L84.902,387.729L85.143,388.087L85.385,388.444L85.629,388.801L85.873,389.157L86.118,389.512L86.365,389.866L86.612,390.219L86.861,390.572L87.11,390.924L87.361,391.275L87.612,391.626L87.865,391.976L88.119,392.324L88.373,392.672L88.629,393.02L88.886,393.366L89.144,393.712L89.403,394.057L89.662,394.401L89.923,394.744L90.185,395.087L90.448,395.428L90.712,395.769L90.976,396.109L91.242,396.448L91.51,396.787L91.777,397.124L92.046,397.461L92.316,397.797L92.587,398.132L92.858,398.467L93.131,398.8L93.405,399.133L93.68,399.465L93.956,399.796L94.232,400.126L94.51,400.455L94.789,400.784L95.068,401.112L95.349,401.438L95.631,401.765L95.913,402.09L96.197,402.414L96.481,402.737L96.766,403.06L97.053,403.382L97.34,403.703L97.628,404.023L97.918,404.342L98.208,404.66L98.499,404.977L98.791,405.294L99.084,405.61L99.378,405.925L99.673,406.238L99.968,406.551L100.265,406.863L100.563,407.175L100.861,407.485L101.161,407.794L101.461,408.103L101.762,408.41L102.065,408.717L102.368,409.023L102.672,409.328L102.977,409.632L103.282,409.935L103.59,410.238L103.897,410.539L104.205,410.839L104.515,411.139L104.825,411.437L105.137,411.735L105.449,412.032L105.761,412.327L106.076,412.622L106.391,412.916L106.706,413.209L107.022,413.501L107.34,413.792L107.658,414.082L107.977,414.372L108.297,414.66L108.618,414.947L108.94,415.233L109.263,415.519L109.586,415.804L109.91,416.087L110.235,416.369L110.561,416.651L110.889,416.932L111.216,417.211L111.545,417.49L111.874,417.768L112.204,418.044L112.535,418.32L112.867,418.595L113.2,418.869L113.533,419.141L113.868,419.413L114.203,419.684L114.539,419.954L114.876,420.223L115.213,420.491L115.552,420.757L115.891,421.023L116.231,421.288L116.572,421.552L116.914,421.815L117.256,422.077L117.599,422.338L117.944,422.597L118.288,422.856L118.634,423.114L118.98,423.371L119.328,423.626L119.676,423.881L120.025,424.135L120.374,424.388L120.725,424.639L121.076,424.89L121.428,425.139L121.78,425.388L122.134,425.635L122.488,425.882L122.843,426.127L123.199,426.372L123.556,426.615L123.913,426.857L124.271,427.098L124.63,427.338L124.989,427.577L125.349,427.815L125.711,428.053L126.072,428.288L126.435,428.523L126.798,428.757L127.162,428.99L127.527,429.221L127.892,429.452L128.258,429.681L128.625,429.909L128.993,430.137L129.362,430.363L129.731,430.589L130.1,430.812L130.471,431.035L130.842,431.257L131.214,431.478L131.587,431.698L131.96,431.916L132.334,432.133L132.709,432.35L133.085,432.565L133.461,432.779L133.838,432.992L134.215,433.204L134.594,433.415L134.973,433.625L135.352,433.833L135.732,434.041L136.113,434.247L136.495,434.452L136.877,434.657L137.261,434.86L137.644,435.061L138.028,435.262L138.414,435.462L138.799,435.66L139.186,435.857L139.573,436.053L139.96,436.248L140.348,436.442L140.738,436.635L141.127,436.826L141.517,437.017L141.909,437.206L142.3,437.394L142.692,437.581L143.085,437.767L143.479,437.951L143.873,438.135L144.268,438.317L144.664,438.498L145.06,438.678L145.456,438.857L145.854,439.035L146.251,439.211L146.65,439.386L147.049,439.56L147.449,439.733L147.85,439.905L148.251,440.075L148.653,440.245L149.055,440.413L149.457,440.579L149.861,440.745L150.265,440.91L150.67,441.073L151.075,441.235L151.481,441.396L151.888,441.556L152.295,441.714L152.702,441.871L153.111,442.028L153.519,442.182L153.929,442.336L154.339,442.488L154.75,442.64L155.161,442.79L155.573,442.938L155.985,443.086L156.397,443.232L156.811,443.377L157.226,443.521L157.64,443.664L158.055,443.805L158.471,443.945L158.887,444.084L159.304,444.221L159.722,444.358L160.14,444.493L160.558,444.627L160.977,444.759L161.397,444.891L161.817,445.021L162.238,445.15L162.659,445.277L163.081,445.404L163.504,445.529L163.926,445.652L164.35,445.775L164.774,445.896L165.198,446.016L165.624,446.135L166.05,446.252L166.476,446.369L166.902,446.483L167.329,446.597L167.757,446.709L168.185,446.82L168.614,446.93L169.044,447.038L169.474,447.146L169.903,447.251L170.335,447.356L170.766,447.459L171.197,447.561L171.63,447.662L172.063,447.761L172.496,447.859L172.93,447.956L173.365,448.051L173.8,448.145L174.235,448.238L174.671,448.329L175.108,448.42L175.544,448.508L175.981,448.596L176.42,448.682L176.858,448.767L177.297,448.85L177.736,448.932L178.176,449.013L178.616,449.092L179.057,449.171L179.498,449.247L179.94,449.323L180.382,449.397L180.825,449.47L181.268,449.541L181.712,449.611L182.156,449.68L182.6,449.747L183.046,449.813L183.491,449.877L183.936,449.941L184.383,450.002L184.831,450.063L185.278,450.122L185.725,450.18L186.174,450.236L186.623,450.291L187.072,450.345L187.521,450.397L187.971,450.448L188.422,450.497L188.873,450.545L189.325,450.592L189.777,450.637L190.229,450.681L190.682,450.723L191.135,450.764L191.588,450.804L192.042,450.842L192.497,450.879L192.953,450.914L193.408,450.948L193.863,450.981L194.32,451.012L194.776,451.042L195.234,451.07L195.692,451.097L196.149,451.122L196.607,451.146L197.067,451.169L197.526,451.19L197.985,451.21L198.446,451.228L198.907,451.245L199.368,451.26L199.828,451.274L200.29,451.286L200.753,451.297L201.215,451.307L201.679,451.315L202.142,451.322L202.606,451.327L203.07,451.33L203.535,451.333L204,451.333L204.465,451.333L204.93,451.33L205.394,451.327L205.858,451.322L206.321,451.315L206.785,451.307L207.247,451.297L207.71,451.286L208.172,451.274L208.632,451.26L209.093,451.245L209.554,451.228L210.015,451.21L210.474,451.19L210.933,451.169L211.393,451.146L211.851,451.122L212.308,451.097L212.766,451.07L213.224,451.042L213.68,451.012L214.137,450.981L214.592,450.948L215.047,450.914L215.503,450.879L215.958,450.842L216.412,450.804L216.865,450.764L217.318,450.723L217.771,450.681L218.223,450.637L218.675,450.592L219.127,450.545L219.578,450.497L220.029,450.448L220.479,450.397L220.928,450.345L221.377,450.291L221.826,450.236L222.275,450.18L222.722,450.122L223.169,450.063L223.617,450.002L224.064,449.941L224.509,449.877L224.954,449.813L225.4,449.747L225.844,449.68L226.288,449.611L226.732,449.541L227.175,449.47L227.618,449.397L228.06,449.323L228.502,449.247L228.943,449.171L229.384,449.092L229.824,449.013L230.264,448.932L230.703,448.85L231.142,448.767L231.58,448.682L232.019,448.596L232.456,448.508L232.892,448.42L233.329,448.329L233.765,448.238L234.2,448.145L234.635,448.051L235.07,447.956L235.504,447.859L235.937,447.761L236.37,447.662L236.803,447.561L237.234,447.459L237.665,447.356L238.097,447.251L238.526,447.146L238.956,447.038L239.386,446.93L239.815,446.82L240.243,446.709L240.671,446.597L241.098,446.483L241.524,446.369L241.95,446.252L242.376,446.135L242.802,446.016L243.226,445.896L243.65,445.775L244.074,445.652L244.496,445.529L244.919,445.404L245.341,445.277L245.762,445.15L246.183,445.021L246.603,444.891L247.023,444.759L247.442,444.627L247.86,444.493L248.278,444.358L248.696,444.221L249.113,444.084L249.529,443.945L249.945,443.805L250.36,443.664L250.774,443.521L251.189,443.377L251.603,443.232L252.015,443.086L252.427,442.938L252.839,442.79L253.25,442.64L253.661,442.488L254.071,442.336L254.481,442.182L254.889,442.028L255.298,441.871L255.705,441.714L256.112,441.556L256.519,441.396L256.925,441.235L257.33,441.073L257.735,440.91L258.139,440.745L258.543,440.579L258.945,440.413L259.347,440.245L259.749,440.075L260.15,439.905L260.551,439.733L260.951,439.56L261.35,439.386L261.749,439.211L262.146,439.035L262.544,438.857L262.94,438.678L263.336,438.499L263.732,438.317L264.127,438.135L264.521,437.951L264.914,437.767L265.308,437.581L265.7,437.394L266.091,437.206L266.483,437.017L266.873,436.826L267.262,436.635L267.651,436.442L268.04,436.248L268.427,436.053L268.814,435.857L269.201,435.66L269.586,435.462L269.972,435.262L270.356,435.061L270.739,434.86L271.123,434.656L271.505,434.452L271.887,434.247L272.268,434.041L272.648,433.834L273.027,433.625L273.406,433.415L273.785,433.204L274.162,432.992L274.539,432.779L274.915,432.565L275.291,432.35L275.666,432.133L276.04,431.916L276.413,431.698L276.786,431.478L277.157,431.257L277.529,431.035L277.9,430.812L278.269,430.589L278.638,430.364L279.007,430.137L279.375,429.909L279.742,429.681L280.107,429.452L280.473,429.221L280.838,428.989L281.202,428.757L281.565,428.523L281.928,428.288L282.289,428.053L282.651,427.815L283.011,427.577L283.37,427.339L283.729,427.098L284.087,426.857L284.444,426.615L284.801,426.372L285.157,426.127L285.512,425.882L285.866,425.635L286.22,425.388L286.573,425.139L286.924,424.89L287.275,424.639L287.626,424.388L287.976,424.135L288.324,423.881L288.672,423.627L289.02,423.371L289.366,423.114L289.712,422.856L290.057,422.597L290.401,422.338L290.744,422.077L291.086,421.815L291.429,421.552L291.769,421.288L292.109,421.024L292.448,420.758L292.787,420.49L293.124,420.223L293.461,419.954L293.798,419.684L294.132,419.413L294.467,419.142L294.8,418.869L295.133,418.595L295.465,418.32L295.796,418.044L296.126,417.768L296.455,417.49L296.784,417.211L297.111,416.932L297.439,416.651L297.765,416.369L298.09,416.087L298.414,415.803L298.737,415.519L299.06,415.234L299.382,414.947L299.703,414.659L300.023,414.372L300.342,414.082L300.66,413.792L300.977,413.501L301.294,413.209L301.609,412.916L301.924,412.622L302.238,412.327L302.551,412.032L302.863,411.735L303.175,411.437L303.485,411.139L303.794,410.839L304.103,410.539L304.41,410.238L304.718,409.935L305.024,409.632L305.328,409.328L305.632,409.024L305.935,408.718L306.238,408.41L306.539,408.103L306.839,407.794L307.139,407.485L307.437,407.175L307.735,406.863L308.032,406.551L308.327,406.238L308.622,405.924L308.916,405.609L309.209,405.294L309.501,404.977L309.792,404.66L310.082,404.342L310.372,404.023L310.659,403.703L310.947,403.382L311.234,403.06L311.519,402.737L311.803,402.414L312.087,402.09L312.369,401.765L312.651,401.439L312.932,401.111L313.211,400.784L313.49,400.455L313.768,400.126L314.044,399.796L314.32,399.465L314.595,399.133L314.869,398.8L315.142,398.467L315.413,398.132L315.684,397.798L315.954,397.461L316.223,397.124L316.49,396.787L316.758,396.448L317.024,396.109L317.288,395.769L317.552,395.429L317.815,395.086L318.077,394.744L318.338,394.401L318.597,394.057L318.856,393.712L319.114,393.366L319.371,393.02L319.627,392.672L319.881,392.324L320.135,391.976L320.388,391.626L320.639,391.275L320.89,390.924L321.139,390.573L321.388,390.22L321.635,389.866L321.882,389.512L322.127,389.157L322.372,388.801L322.615,388.444L322.857,388.087L323.098,387.729L323.339,387.37L323.577,387.011L323.815,386.651L324.053,386.289L324.288,385.928L324.523,385.565L324.757,385.202L324.989,384.838L325.221,384.473L325.452,384.107L325.681,383.742L325.909,383.375L326.137,383.007L326.364,382.638L326.589,382.269L326.812,381.9L327.035,381.529L327.257,381.157L327.478,380.786L327.698,380.413L327.916,380.04L328.133,379.666L328.35,379.291L328.565,378.915L328.779,378.539L328.992,378.162L329.204,377.785L329.415,377.406L329.625,377.027L329.834,376.648L330.041,376.268L330.247,375.887L330.452,375.505L330.656,375.123L330.86,374.739L331.061,374.356L331.262,373.972L331.462,373.586L331.66,373.201L331.857,372.814L332.053,372.427L332.248,372.04L332.442,371.651L332.635,371.262L332.826,370.873L333.017,370.483L333.206,370.091L333.394,369.7L333.581,369.308L333.767,368.914L333.951,368.521L334.135,368.127L334.317,367.732L334.499,367.336L334.678,366.94L334.857,366.544L335.035,366.146L335.211,365.749L335.386,365.35L335.56,364.951L335.733,364.551L335.905,364.15L336.075,363.749L336.245,363.347L336.413,362.945L336.579,362.543L336.745,362.139L336.91,361.735L337.073,361.33L337.235,360.925L337.396,360.519L337.556,360.112L337.714,359.705L337.871,359.298L338.028,358.889L338.182,358.481L338.336,358.071L338.488,357.661L338.64,357.25L338.79,356.839L338.938,356.427L339.086,356.015L339.232,355.603L339.377,355.189L339.521,354.774L339.664,354.36L339.805,353.945L339.945,353.529L340.084,353.112L340.221,352.696L340.358,352.278L340.493,351.86L340.627,351.442L340.759,351.023L340.891,350.603L341.021,350.183L341.15,349.762L341.277,349.341L341.404,348.919L341.529,348.496L341.652,348.073L341.775,347.65L341.896,347.226L342.016,346.802L342.135,346.376L342.252,345.95L342.369,345.524L342.483,345.098L342.597,344.671L342.709,344.243L342.82,343.815L342.93,343.386L343.038,342.956L343.146,342.526L343.251,342.097L343.356,341.665L343.459,341.234L343.561,340.803L343.662,340.37L343.761,339.937L343.859,339.504L343.956,339.07L344.051,338.635L344.145,338.2L344.238,337.765L344.329,337.329L344.42,336.892L344.508,336.456L344.596,336.019L344.682,335.58L344.767,335.142L344.85,334.703L344.932,334.264L345.013,333.824L345.092,333.384L345.171,332.943L345.247,332.502L345.323,332.061L345.397,331.618L345.47,331.175L345.541,330.732L345.611,330.288L345.68,329.844L345.747,329.4L345.813,328.954L345.877,328.509L345.941,328.064L346.002,327.617L346.063,327.169L346.122,326.723L346.18,326.275L346.236,325.826L346.291,325.377L346.345,324.928L346.397,324.479L346.448,324.029L346.497,323.578L346.545,323.127L346.592,322.675L346.637,322.223L346.681,321.771L346.723,321.318L346.764,320.865L346.804,320.412L346.842,319.958L346.879,319.503L346.914,319.047L346.948,318.592L346.981,318.137L347.012,317.68L347.042,317.224L347.07,316.766L347.097,316.308L347.122,315.851L347.146,315.393L347.169,314.933L347.19,314.474L347.21,314.015L347.228,313.554L347.245,313.093L347.26,312.632L347.274,312.172L347.286,311.71L347.297,311.247L347.307,310.785L347.315,310.321L347.322,309.858L347.327,309.394L347.33,308.93L347.333,308.465L347.333,308L347.333,307.535L347.33,307.07L347.327,306.606L347.322,306.142L347.315,305.679L347.307,305.215L347.297,304.753L347.286,304.29L347.274,303.828L347.26,303.368L347.245,302.907L347.228,302.446L347.21,301.985L347.19,301.526L347.169,301.067L347.146,300.607L347.122,300.149L347.097,299.692L347.07,299.234L347.042,298.776L347.012,298.32L346.981,297.863L346.948,297.408L346.914,296.953L346.879,296.497L346.842,296.042L346.804,295.588L346.764,295.135L346.723,294.682L346.681,294.229L346.637,293.777L346.592,293.325L346.545,292.873L346.497,292.422L346.448,291.971L346.397,291.521L346.345,291.072L346.291,290.623L346.236,290.174L346.18,289.725L346.122,289.277L346.063,288.831L346.002,288.383L345.941,287.936L345.877,287.491L345.813,287.046L345.747,286.6L345.68,286.156L345.611,285.712L345.541,285.268L345.47,284.825L345.397,284.382L345.323,283.939L345.247,283.498L345.171,283.057L345.092,282.616L345.013,282.176L344.932,281.736L344.85,281.297L344.767,280.858L344.682,280.42L344.596,279.981L344.508,279.544L344.42,279.108L344.329,278.671L344.238,278.235L344.145,277.8L344.051,277.365L343.956,276.93L343.859,276.496L343.761,276.063L343.662,275.63L343.561,275.197L343.459,274.766L343.356,274.335L343.251,273.903L343.146,273.474L343.038,273.044L342.93,272.614L342.82,272.185L342.709,271.757L342.597,271.329L342.483,270.902L342.369,270.476L342.252,270.05L342.135,269.624L342.016,269.198L341.896,268.774L341.775,268.35L341.652,267.927L341.529,267.504L341.404,267.081L341.277,266.659L341.15,266.238L341.021,265.817L340.891,265.397L340.759,264.977L340.627,264.558L340.493,264.14L340.358,263.722L340.221,263.304L340.084,262.888L339.945,262.471L339.805,262.055L339.664,261.64L339.521,261.226L339.377,260.811L339.232,260.397L339.086,259.985L338.938,259.573L338.79,259.161L338.64,258.75L338.488,258.339L338.336,257.929L338.182,257.519L338.028,257.111L337.871,256.702L337.714,256.295L337.556,255.888L337.396,255.481L337.235,255.075L337.073,254.67L336.91,254.265L336.745,253.861L336.579,253.457L336.413,253.055L336.245,252.653L336.075,252.251L335.905,251.85L335.733,251.449L335.56,251.049L335.386,250.65L335.211,250.251L335.035,249.854L334.857,249.456L334.678,249.06L334.498,248.664L334.317,248.268L334.135,247.873L333.951,247.479L333.767,247.085L333.581,246.692L333.394,246.3L333.206,245.909L333.017,245.517L332.826,245.127L332.635,244.738L332.442,244.349L332.248,243.96L332.053,243.573L331.857,243.186L331.66,242.799L331.462,242.414L331.262,242.028L331.061,241.644L330.86,241.261L330.657,240.877L330.452,240.495L330.247,240.113L330.041,239.732L329.834,239.352L329.625,238.973L329.415,238.594L329.204,238.215L328.992,237.838L328.779,237.461L328.565,237.085L328.35,236.709L328.133,236.334L327.916,235.96L327.698,235.587L327.478,235.214L327.257,234.842L327.035,234.471L326.812,234.1L326.589,233.731L326.363,233.362L326.137,232.993L325.909,232.625L325.681,232.258L325.452,231.893L325.221,231.527L324.99,231.162L324.757,230.798L324.523,230.435L324.288,230.072L324.053,229.711L323.816,229.35L323.577,228.989L323.338,228.63L323.098,228.271L322.857,227.913L322.615,227.556L322.372,227.199L322.127,226.843L321.882,226.488L321.635,226.134L321.388,225.78L321.139,225.428L320.89,225.076L320.639,224.725L320.388,224.374L320.135,224.025L319.881,223.676L319.626,223.328L319.371,222.981L319.114,222.634L318.856,222.288L318.597,221.944L318.338,221.599L318.077,221.256L317.815,220.914L317.552,220.572L317.288,220.231L317.023,219.891L316.758,219.552L316.491,219.213L316.223,218.876L315.954,218.539L315.684,218.203L315.413,217.868L315.141,217.533L314.869,217.2L314.595,216.867L314.32,216.535L314.044,216.204L313.768,215.874L313.49,215.545L313.211,215.216L312.932,214.889L312.651,214.561L312.369,214.235L312.087,213.91L311.804,213.586L311.519,213.263L311.233,212.94L310.947,212.618L310.66,212.297L310.372,211.977L310.082,211.658L309.792,211.34L309.501,211.022L309.209,210.706L308.916,210.391L308.622,210.076L308.327,209.761L308.032,209.449L307.735,209.137L307.437,208.825L307.139,208.515L306.839,208.206L306.539,207.897L306.238,207.59L305.935,207.282L305.632,206.977L305.328,206.672L305.023,206.368L304.717,206.065L304.41,205.762L304.103,205.461L303.794,205.161L303.485,204.861L303.175,204.563L302.863,204.265L302.551,203.968L302.238,203.673L301.925,203.378L301.61,203.084L301.294,202.791L300.977,202.499L300.66,202.208L300.342,201.918L300.023,201.628L299.703,201.341L299.382,201.053L299.06,200.766L298.738,200.481L298.414,200.197L298.09,199.913L297.765,199.631L297.439,199.349L297.112,199.069L296.784,198.789L296.455,198.51L296.126,198.232L295.796,197.956L295.465,197.68L295.133,197.405L294.8,197.131L294.467,196.858L294.133,196.587L293.797,196.316L293.461,196.046L293.124,195.777L292.787,195.509L292.448,195.242L292.109,194.977L291.769,194.712L291.428,194.448L291.087,194.185L290.744,193.923L290.4,193.662L290.057,193.403L289.712,193.144L289.366,192.886L289.019,192.629L288.672,192.373L288.324,192.119L287.976,191.865L287.626,191.612L287.275,191.361L286.924,191.11L286.573,190.861L286.219,190.612L285.866,190.365L285.512,190.118L285.157,189.873L284.801,189.629L284.444,189.385L284.087,189.143L283.729,188.902L283.37,188.661L283.011,188.423L282.651,188.185L282.29,187.948L281.928,187.712L281.565,187.477L281.202,187.243L280.838,187.01L280.473,186.779L280.108,186.548L279.741,186.319L279.375,186.09L279.007,185.863L278.638,185.637L278.269,185.412L277.9,185.188L277.529,184.965L277.158,184.743L276.786,184.522L276.413,184.302L276.04,184.084L275.666,183.866L275.291,183.65L274.915,183.435L274.539,183.221L274.163,183.008L273.785,182.796L273.407,182.585L273.028,182.375L272.648,182.166L272.268,181.959L271.887,181.753L271.504,181.547L271.123,181.344L270.74,181.141L270.356,180.939L269.971,180.738L269.586,180.538L269.201,180.34L268.815,180.143L268.427,179.947L268.04,179.752L267.651,179.558L267.262,179.365L266.873,179.174L266.482,178.983L266.092,178.794L265.7,178.606L265.307,178.419L264.914,178.233L264.521,178.048L264.127,177.865L263.732,177.683L263.337,177.502L262.94,177.322L262.544,177.143L262.146,176.965L261.748,176.789L261.35,176.614L260.951,176.44L260.551,176.267L260.15,176.095L259.749,175.925L259.348,175.756L258.945,175.587L258.542,175.42L258.139,175.255L257.735,175.09L257.33,174.927L256.925,174.765L256.519,174.604L256.112,174.444L255.706,174.286L255.298,174.129L254.889,173.972L254.481,173.818L254.071,173.664L253.661,173.512L253.25,173.36L252.839,173.211L252.428,173.062L252.015,172.914L251.602,172.768L251.189,172.623L250.775,172.479L250.36,172.336L249.945,172.195L249.529,172.055L249.113,171.916L248.696,171.779L248.278,171.642L247.861,171.507L247.442,171.373L247.022,171.241L246.603,171.109L246.183,170.979L245.762,170.85L245.341,170.723L244.919,170.596L244.496,170.471L244.073,170.347L243.65,170.225L243.226,170.104L242.801,169.984L242.376,169.865L241.951,169.748L241.525,169.632L241.098,169.517L240.671,169.403L240.243,169.291L239.814,169.18L239.386,169.07L238.957,168.962L238.527,168.855L238.096,168.749L237.665,168.644L237.234,168.541L236.802,168.439L236.37,168.338L235.937,168.239L235.504,168.141L235.07,168.044L234.635,167.949L234.2,167.855L233.765,167.762L233.329,167.671L232.893,167.581L232.456,167.492L232.018,167.404L231.581,167.318L231.142,167.233L230.704,167.15L230.264,167.068L229.824,166.987L229.384,166.908L228.943,166.829L228.502,166.753L228.06,166.677L227.618,166.603L227.175,166.53L226.732,166.459L226.289,166.389L225.844,166.32L225.4,166.253L224.955,166.187L224.509,166.123L224.063,166.059L223.617,165.998L223.17,165.937L222.722,165.878L222.275,165.82L221.826,165.764L221.377,165.709L220.928,165.655L220.478,165.603L220.029,165.552L219.578,165.503L219.127,165.455L218.675,165.408L218.223,165.363L217.771,165.319L217.319,165.277L216.865,165.236L216.411,165.196L215.957,165.158L215.503,165.121L215.048,165.086L214.592,165.052L214.136,165.019L213.68,164.988L213.224,164.958L212.766,164.93L212.309,164.903L211.851,164.878L211.392,164.854L210.933,164.831L210.474,164.81L210.015,164.79L209.554,164.772L209.093,164.755L208.633,164.74L208.171,164.726L207.71,164.714L207.247,164.703L206.784,164.693L206.321,164.685L205.858,164.678L205.394,164.673L204.93,164.67L204.465,164.667L204,164.667L203.535,164.667Z" style="fill:white;"/>
        </g>
    </g>
</svg>
