<?xml version="1.0" encoding="UTF-8" standalone="no"?>
<!DOCTYPE svg PUBLIC "-//W3C//DTD SVG 1.1//EN" "http://www.w3.org/Graphics/SVG/1.1/DTD/svg11.dtd">
<svg width="100%" height="100%" viewBox="0 0 512 512" version="1.1" xmlns="http://www.w3.org/2000/svg" xmlns:xlink="http://www.w3.org/1999/xlink" xml:space="preserve" xmlns:serif="http://www.serif.com/" style="fill-rule:evenodd;clip-rule:evenodd;stroke-linecap:round;stroke-linejoin:round;stroke-miterlimit:1.5;">
    <g id="bell2">
        <path d="M256.828,0.001L257.655,0.005L258.481,0.012L259.307,0.021L260.132,0.033L260.956,0.047L261.78,0.064L262.603,0.084L263.426,0.106L264.248,0.131L265.069,0.158L265.89,0.188L266.709,0.22L267.529,0.255L268.347,0.293L269.165,0.333L269.983,0.376L270.799,0.422L271.615,0.469L272.431,0.52L273.245,0.573L274.059,0.628L274.872,0.686L275.685,0.747L276.496,0.81L277.308,0.876L278.118,0.944L278.928,1.015L279.736,1.088L280.545,1.164L281.352,1.242L282.159,1.323L282.965,1.406L283.77,1.492L284.575,1.58L285.379,1.671L286.182,1.764L286.984,1.86L287.785,1.958L288.586,2.058L289.386,2.161L290.185,2.267L290.984,2.375L291.782,2.486L292.578,2.598L293.375,2.714L294.17,2.832L294.964,2.952L295.758,3.075L296.551,3.2L297.343,3.327L298.135,3.457L298.925,3.59L299.715,3.725L300.504,3.862L301.292,4.001L302.079,4.144L302.865,4.288L303.651,4.435L304.435,4.584L305.219,4.736L306.002,4.89L306.784,5.046L307.566,5.205L308.346,5.366L309.126,5.53L309.904,5.695L310.682,5.864L311.459,6.034L312.235,6.207L313.011,6.383L313.785,6.56L314.558,6.74L315.331,6.923L316.102,7.107L316.873,7.294L317.643,7.484L318.412,7.675L319.18,7.869L319.947,8.065L320.713,8.264L321.478,8.465L322.242,8.668L323.006,8.874L323.768,9.081L324.53,9.291L325.29,9.504L326.05,9.718L326.808,9.935L327.566,10.155L328.323,10.376L329.078,10.6L329.833,10.826L330.587,11.054L331.34,11.285L332.091,11.517L332.842,11.752L333.592,11.99L334.341,12.229L335.089,12.471L335.836,12.715L336.581,12.961L337.326,13.209L338.07,13.46L338.813,13.713L339.555,13.968L340.295,14.225L341.035,14.485L341.774,14.746L342.511,15.01L343.248,15.276L343.983,15.545L344.718,15.815L345.451,16.088L346.184,16.362L346.915,16.639L347.645,16.919L348.375,17.2L349.103,17.483L349.83,17.769L350.556,18.057L351.281,18.347L352.004,18.639L352.727,18.933L353.449,19.229L354.169,19.528L354.889,19.828L355.607,20.131L356.324,20.436L357.04,20.743L357.755,21.052L358.469,21.363L359.181,21.676L359.893,21.992L360.603,22.309L361.313,22.629L362.021,22.951L362.728,23.274L363.434,23.6L364.138,23.928L364.842,24.258L365.544,24.59L366.245,24.924L366.945,25.261L367.644,25.599L368.342,25.939L369.038,26.281L369.734,26.626L370.428,26.972L371.121,27.321L371.812,27.671L372.503,28.024L373.192,28.378L373.88,28.735L374.567,29.094L375.253,29.454L375.937,29.817L376.62,30.182L377.302,30.548L377.983,30.917L378.662,31.288L379.341,31.66L380.018,32.035L380.693,32.411L381.368,32.79L382.041,33.171L382.713,33.553L383.384,33.938L384.053,34.324L384.721,34.712L385.388,35.103L386.054,35.495L386.718,35.89L387.381,36.286L388.043,36.684L388.703,37.084L389.362,37.486L390.02,37.89L390.677,38.296L391.332,38.704L391.986,39.113L392.638,39.525L393.29,39.939L393.94,40.354L394.588,40.771L395.235,41.191L395.881,41.612L396.526,42.035L397.169,42.46L397.811,42.887L398.451,43.315L399.09,43.746L399.728,44.178L400.365,44.612L401,45.049L401.633,45.487L402.266,45.926L402.896,46.368L403.526,46.812L404.154,47.257L404.781,47.704L405.406,48.153L406.03,48.604L406.652,49.057L407.273,49.511L407.893,49.968L408.511,50.426L409.128,50.886L409.744,51.348L410.358,51.811L410.97,52.277L411.581,52.744L412.191,53.213L412.799,53.684L413.406,54.156L414.011,54.63L414.615,55.107L415.217,55.584L415.818,56.064L416.418,56.545L417.016,57.029L417.612,57.513L418.207,58L418.8,58.489L419.392,58.979L419.983,59.471L420.572,59.964L421.16,60.46L421.746,60.957L422.33,61.455L422.913,61.956L423.494,62.458L424.074,62.962L424.653,63.468L425.23,63.975L425.805,64.484L426.379,64.995L426.951,65.507L427.522,66.021L428.091,66.537L428.659,67.055L429.225,67.574L429.789,68.095L430.352,68.617L430.914,69.142L431.473,69.667L432.032,70.195L432.588,70.724L433.143,71.255L433.697,71.787L434.249,72.321L434.799,72.857L435.347,73.394L435.895,73.933L436.44,74.474L436.984,75.016L437.526,75.56L438.067,76.105L438.606,76.653L439.143,77.201L439.679,77.751L440.213,78.303L440.745,78.857L441.276,79.412L441.805,79.968L442.333,80.527L442.858,81.086L443.383,81.648L443.905,82.211L444.426,82.775L444.945,83.341L445.463,83.909L445.979,84.478L446.493,85.049L447.005,85.621L447.516,86.195L448.025,86.77L448.532,87.347L449.038,87.926L449.542,88.506L450.044,89.087L450.545,89.67L451.043,90.254L451.54,90.84L452.036,91.428L452.529,92.017L453.021,92.608L453.511,93.2L454,93.793L454.487,94.388L454.971,94.984L455.455,95.582L455.936,96.182L456.416,96.783L456.893,97.385L457.37,97.989L457.844,98.594L458.316,99.201L458.787,99.809L459.256,100.419L459.723,101.03L460.189,101.642L460.652,102.256L461.114,102.872L461.574,103.489L462.032,104.107L462.489,104.727L462.943,105.348L463.396,105.97L463.847,106.594L464.296,107.219L464.743,107.846L465.188,108.474L465.632,109.104L466.074,109.734L466.513,110.367L466.951,111L467.388,111.635L467.822,112.272L468.254,112.91L468.685,113.549L469.113,114.189L469.54,114.831L469.965,115.474L470.388,116.119L470.809,116.765L471.229,117.412L471.646,118.06L472.061,118.71L472.475,119.362L472.887,120.014L473.296,120.668L473.704,121.323L474.11,121.98L474.514,122.638L474.916,123.297L475.316,123.957L475.714,124.619L476.11,125.282L476.505,125.946L476.897,126.612L477.288,127.279L477.676,127.947L478.062,128.616L478.447,129.287L478.829,129.959L479.21,130.632L479.589,131.307L479.965,131.982L480.34,132.659L480.712,133.338L481.083,134.017L481.452,134.698L481.818,135.38L482.183,136.063L482.546,136.747L482.906,137.433L483.265,138.12L483.622,138.808L483.976,139.497L484.329,140.188L484.679,140.879L485.028,141.572L485.374,142.266L485.719,142.962L486.061,143.658L486.401,144.356L486.739,145.055L487.076,145.755L487.41,146.456L487.742,147.158L488.072,147.862L488.4,148.566L488.726,149.272L489.049,149.979L489.371,150.687L489.691,151.397L490.008,152.107L490.324,152.819L490.637,153.531L490.948,154.245L491.257,154.96L491.564,155.676L491.869,156.393L492.172,157.111L492.472,157.831L492.771,158.551L493.067,159.273L493.361,159.996L493.653,160.719L493.943,161.444L494.231,162.17L494.517,162.897L494.8,163.625L495.081,164.355L495.361,165.085L495.638,165.816L495.912,166.549L496.185,167.282L496.455,168.017L496.724,168.752L496.99,169.489L497.254,170.226L497.515,170.965L497.775,171.705L498.032,172.445L498.287,173.187L498.54,173.93L498.791,174.674L499.039,175.419L499.285,176.164L499.529,176.911L499.771,177.659L500.01,178.408L500.248,179.158L500.483,179.909L500.715,180.66L500.946,181.413L501.174,182.167L501.4,182.922L501.624,183.677L501.845,184.434L502.065,185.192L502.282,185.95L502.496,186.71L502.709,187.47L502.919,188.232L503.126,188.994L503.332,189.758L503.535,190.522L503.736,191.287L503.935,192.053L504.131,192.82L504.325,193.588L504.516,194.357L504.706,195.127L504.893,195.898L505.077,196.669L505.26,197.442L505.44,198.215L505.617,198.989L505.793,199.765L505.966,200.541L506.136,201.318L506.305,202.096L506.47,202.874L506.634,203.654L506.795,204.434L506.954,205.216L507.11,205.998L507.264,206.781L507.416,207.565L507.565,208.349L507.712,209.135L507.856,209.921L507.999,210.708L508.138,211.496L508.275,212.285L508.41,213.075L508.543,213.865L508.673,214.657L508.8,215.449L508.925,216.242L509.048,217.036L509.168,217.83L509.286,218.625L509.402,219.422L509.514,220.218L509.625,221.016L509.733,221.815L509.839,222.614L509.942,223.414L510.042,224.215L510.14,225.016L510.236,225.818L510.329,226.621L510.42,227.425L510.508,228.23L510.594,229.035L510.677,229.841L510.758,230.648L510.836,231.455L510.912,232.264L510.985,233.072L511.056,233.882L511.124,234.692L511.19,235.504L511.253,236.315L511.314,237.128L511.372,237.941L511.427,238.755L511.48,239.569L511.531,240.385L511.578,241.201L511.624,242.017L511.667,242.835L511.707,243.653L511.745,244.471L511.78,245.291L511.812,246.11L511.842,246.931L511.869,247.752L511.894,248.574L511.916,249.397L511.936,250.22L511.953,251.044L511.967,251.868L511.979,252.693L511.988,253.519L511.995,254.345L511.999,255.172L512,256L511.999,256.828L511.995,257.655L511.988,258.481L511.979,259.307L511.967,260.132L511.953,260.956L511.936,261.78L511.916,262.603L511.894,263.426L511.869,264.248L511.842,265.069L511.812,265.89L511.78,266.709L511.745,267.529L511.707,268.347L511.667,269.165L511.624,269.983L511.578,270.799L511.531,271.615L511.48,272.431L511.427,273.245L511.372,274.059L511.314,274.872L511.253,275.685L511.19,276.496L511.124,277.308L511.056,278.118L510.985,278.928L510.912,279.736L510.836,280.545L510.758,281.352L510.677,282.159L510.594,282.965L510.508,283.77L510.42,284.575L510.329,285.379L510.236,286.182L510.14,286.984L510.042,287.785L509.942,288.586L509.839,289.386L509.733,290.185L509.625,290.984L509.514,291.782L509.402,292.578L509.286,293.375L509.168,294.17L509.048,294.964L508.925,295.758L508.8,296.551L508.673,297.343L508.543,298.135L508.41,298.925L508.275,299.715L508.138,300.504L507.999,301.292L507.856,302.079L507.712,302.865L507.565,303.651L507.416,304.435L507.264,305.219L507.11,306.002L506.954,306.784L506.795,307.566L506.634,308.346L506.47,309.126L506.305,309.904L506.136,310.682L505.966,311.459L505.793,312.235L505.617,313.011L505.44,313.785L505.26,314.558L505.077,315.331L504.893,316.102L504.706,316.873L504.516,317.643L504.325,318.412L504.131,319.18L503.935,319.947L503.736,320.713L503.535,321.478L503.332,322.242L503.126,323.006L502.919,323.768L502.709,324.53L502.496,325.29L502.282,326.05L502.065,326.808L501.845,327.566L501.624,328.323L501.4,329.078L501.174,329.833L500.946,330.587L500.715,331.34L500.483,332.091L500.248,332.842L500.01,333.592L499.771,334.341L499.529,335.089L499.285,335.836L499.039,336.581L498.791,337.326L498.54,338.07L498.287,338.813L498.032,339.555L497.775,340.295L497.515,341.035L497.254,341.774L496.99,342.511L496.724,343.248L496.455,343.983L496.185,344.718L495.912,345.451L495.638,346.184L495.361,346.915L495.081,347.645L494.8,348.375L494.517,349.103L494.231,349.83L493.943,350.556L493.653,351.281L493.361,352.004L493.067,352.727L492.771,353.449L492.472,354.169L492.172,354.889L491.869,355.607L491.564,356.324L491.257,357.04L490.948,357.755L490.637,358.469L490.324,359.181L490.008,359.893L489.691,360.603L489.371,361.313L489.049,362.021L488.726,362.728L488.4,363.434L488.072,364.138L487.742,364.842L487.41,365.544L487.076,366.245L486.739,366.945L486.401,367.644L486.061,368.342L485.719,369.038L485.374,369.734L485.028,370.428L484.679,371.121L484.329,371.812L483.976,372.503L483.622,373.192L483.265,373.88L482.906,374.567L482.546,375.253L482.183,375.937L481.818,376.62L481.452,377.302L481.083,377.983L480.712,378.662L480.34,379.341L479.965,380.018L479.589,380.693L479.21,381.368L478.829,382.041L478.447,382.713L478.062,383.384L477.676,384.053L477.288,384.721L476.897,385.388L476.505,386.054L476.11,386.718L475.714,387.381L475.316,388.043L474.916,388.703L474.514,389.362L474.11,390.02L473.704,390.677L473.296,391.332L472.887,391.986L472.475,392.638L472.061,393.29L471.646,393.94L471.229,394.588L470.809,395.235L470.388,395.881L469.965,396.526L469.54,397.169L469.113,397.811L468.685,398.451L468.254,399.09L467.822,399.728L467.388,400.365L466.951,401L466.513,401.633L466.074,402.266L465.632,402.896L465.188,403.526L464.743,404.154L464.296,404.781L463.847,405.406L463.396,406.03L462.943,406.652L462.489,407.273L462.032,407.893L461.574,408.511L461.114,409.128L460.652,409.744L460.189,410.358L459.723,410.97L459.256,411.581L458.787,412.191L458.316,412.799L457.844,413.406L457.37,414.011L456.893,414.615L456.416,415.217L455.936,415.818L455.455,416.418L454.971,417.016L454.487,417.612L454,418.207L453.511,418.8L453.021,419.392L452.529,419.983L452.036,420.572L451.54,421.16L451.043,421.746L450.545,422.33L450.044,422.913L449.542,423.494L449.038,424.074L448.532,424.653L448.025,425.23L447.516,425.805L447.005,426.379L446.493,426.951L445.979,427.522L445.463,428.091L444.945,428.659L444.426,429.225L443.905,429.789L443.383,430.352L442.858,430.914L442.333,431.473L441.805,432.032L441.276,432.588L440.745,433.143L440.213,433.697L439.679,434.249L439.143,434.799L438.606,435.347L438.067,435.895L437.526,436.44L436.984,436.984L436.44,437.526L435.895,438.067L435.347,438.606L434.799,439.143L434.249,439.679L433.697,440.213L433.143,440.745L432.588,441.276L432.032,441.805L431.473,442.333L430.914,442.858L430.352,443.383L429.789,443.905L429.225,444.426L428.659,444.945L428.091,445.463L427.522,445.979L426.951,446.493L426.379,447.005L425.805,447.516L425.23,448.025L424.653,448.532L424.074,449.038L423.494,449.542L422.913,450.044L422.33,450.545L421.746,451.043L421.16,451.54L420.572,452.036L419.983,452.529L419.392,453.021L418.8,453.511L418.207,454L417.612,454.487L417.016,454.971L416.418,455.455L415.818,455.936L415.217,456.416L414.615,456.893L414.011,457.37L413.406,457.844L412.799,458.316L412.191,458.787L411.581,459.256L410.97,459.723L410.358,460.189L409.744,460.652L409.128,461.114L408.511,461.574L407.893,462.032L407.273,462.489L406.652,462.943L406.03,463.396L405.406,463.847L404.781,464.296L404.154,464.743L403.526,465.188L402.896,465.632L402.266,466.074L401.633,466.513L401,466.951L400.365,467.388L399.728,467.822L399.09,468.254L398.451,468.685L397.811,469.113L397.169,469.54L396.526,469.965L395.881,470.388L395.235,470.809L394.588,471.229L393.94,471.646L393.29,472.061L392.638,472.475L391.986,472.887L391.332,473.296L390.677,473.704L390.02,474.11L389.362,474.514L388.703,474.916L388.043,475.316L387.381,475.714L386.718,476.11L386.054,476.505L385.388,476.897L384.721,477.288L384.053,477.676L383.384,478.062L382.713,478.447L382.041,478.829L381.368,479.21L380.693,479.589L380.018,479.965L379.341,480.34L378.662,480.712L377.983,481.083L377.302,481.452L376.62,481.818L375.937,482.183L375.253,482.546L374.567,482.906L373.88,483.265L373.192,483.622L372.503,483.976L371.812,484.329L371.121,484.679L370.428,485.028L369.734,485.374L369.038,485.719L368.342,486.061L367.644,486.401L366.945,486.739L366.245,487.076L365.544,487.41L364.842,487.742L364.138,488.072L363.434,488.4L362.728,488.726L362.021,489.049L361.313,489.371L360.603,489.691L359.893,490.008L359.181,490.324L358.469,490.637L357.755,490.948L357.04,491.257L356.324,491.564L355.607,491.869L354.889,492.172L354.169,492.472L353.449,492.771L352.727,493.067L352.004,493.361L351.281,493.653L350.556,493.943L349.83,494.231L349.103,494.517L348.375,494.8L347.645,495.081L346.915,495.361L346.184,495.638L345.451,495.912L344.718,496.185L343.983,496.455L343.248,496.724L342.511,496.99L341.774,497.254L341.035,497.515L340.295,497.775L339.555,498.032L338.813,498.287L338.07,498.54L337.326,498.791L336.581,499.039L335.836,499.285L335.089,499.529L334.341,499.771L333.592,500.01L332.842,500.248L332.091,500.483L331.34,500.715L330.587,500.946L329.833,501.174L329.078,501.4L328.323,501.624L327.566,501.845L326.808,502.065L326.05,502.282L325.29,502.496L324.53,502.709L323.768,502.919L323.006,503.126L322.242,503.332L321.478,503.535L320.713,503.736L319.947,503.935L319.18,504.131L318.412,504.325L317.643,504.516L316.873,504.706L316.102,504.893L315.331,505.077L314.558,505.26L313.785,505.44L313.011,505.617L312.235,505.793L311.459,505.966L310.682,506.136L309.904,506.305L309.126,506.47L308.346,506.634L307.566,506.795L306.784,506.954L306.002,507.11L305.219,507.264L304.435,507.416L303.651,507.565L302.865,507.712L302.079,507.856L301.292,507.999L300.504,508.138L299.715,508.275L298.925,508.41L298.135,508.543L297.343,508.673L296.551,508.8L295.758,508.925L294.964,509.048L294.17,509.168L293.375,509.286L292.578,509.402L291.782,509.514L290.984,509.625L290.185,509.733L289.386,509.839L288.586,509.942L287.785,510.042L286.984,510.14L286.182,510.236L285.379,510.329L284.575,510.42L283.77,510.508L282.965,510.594L282.159,510.677L281.352,510.758L280.545,510.836L279.736,510.912L278.928,510.985L278.118,511.056L277.308,511.124L276.496,511.19L275.685,511.253L274.872,511.314L274.059,511.372L273.245,511.427L272.431,511.48L271.615,511.531L270.799,511.578L269.983,511.624L269.165,511.667L268.347,511.707L267.529,511.745L266.709,511.78L265.89,511.812L265.069,511.842L264.248,511.869L263.426,511.894L262.603,511.916L261.78,511.936L260.956,511.953L260.132,511.967L259.307,511.979L258.481,511.988L257.655,511.995L256.828,511.999L256,512L255.172,511.999L254.345,511.995L253.519,511.988L252.693,511.979L251.868,511.967L251.044,511.953L250.22,511.936L249.397,511.916L248.574,511.894L247.752,511.869L246.931,511.842L246.11,511.812L245.291,511.78L244.471,511.745L243.653,511.707L242.835,511.667L242.017,511.624L241.201,511.578L240.385,511.531L239.569,511.48L238.755,511.427L237.941,511.372L237.128,511.314L236.315,511.253L235.504,511.19L234.692,511.124L233.882,511.056L233.072,510.985L232.264,510.912L231.455,510.836L230.648,510.758L229.841,510.677L229.035,510.594L228.23,510.508L227.425,510.42L226.621,510.329L225.818,510.236L225.016,510.14L224.215,510.042L223.414,509.942L222.614,509.839L221.815,509.733L221.016,509.625L220.218,509.514L219.422,509.402L218.625,509.286L217.83,509.168L217.036,509.048L216.242,508.925L215.449,508.8L214.657,508.673L213.865,508.543L213.075,508.41L212.285,508.275L211.496,508.138L210.708,507.999L209.921,507.856L209.135,507.712L208.349,507.565L207.565,507.416L206.781,507.264L205.998,507.11L205.216,506.954L204.434,506.795L203.654,506.634L202.874,506.47L202.096,506.305L201.318,506.136L200.541,505.966L199.765,505.793L198.989,505.617L198.215,505.44L197.442,505.26L196.669,505.077L195.898,504.893L195.127,504.706L194.357,504.516L193.588,504.325L192.82,504.131L192.053,503.935L191.287,503.736L190.522,503.535L189.758,503.332L188.994,503.126L188.232,502.919L187.47,502.709L186.71,502.496L185.95,502.282L185.192,502.065L184.434,501.845L183.677,501.624L182.922,501.4L182.167,501.174L181.413,500.946L180.66,500.715L179.909,500.483L179.158,500.248L178.408,500.01L177.659,499.771L176.911,499.529L176.164,499.285L175.419,499.039L174.674,498.791L173.93,498.54L173.187,498.287L172.445,498.032L171.705,497.775L170.965,497.515L170.226,497.254L169.489,496.99L168.752,496.724L168.017,496.455L167.282,496.185L166.549,495.912L165.816,495.638L165.085,495.361L164.355,495.081L163.625,494.8L162.897,494.517L162.17,494.231L161.444,493.943L160.719,493.653L159.996,493.361L159.273,493.067L158.551,492.771L157.831,492.472L157.111,492.172L156.393,491.869L155.676,491.564L154.96,491.257L154.245,490.948L153.531,490.637L152.819,490.324L152.107,490.008L151.397,489.691L150.687,489.371L149.979,489.049L149.272,488.726L148.566,488.4L147.862,488.072L147.158,487.742L146.456,487.41L145.755,487.076L145.055,486.739L144.356,486.401L143.658,486.061L142.962,485.719L142.266,485.374L141.572,485.028L140.879,484.679L140.188,484.329L139.497,483.976L138.808,483.622L138.12,483.265L137.433,482.906L136.747,482.546L136.063,482.183L135.38,481.818L134.698,481.452L134.017,481.083L133.338,480.712L132.659,480.34L131.982,479.965L131.307,479.589L130.632,479.21L129.959,478.829L129.287,478.447L128.616,478.062L127.947,477.676L127.279,477.288L126.612,476.897L125.946,476.505L125.282,476.11L124.619,475.714L123.957,475.316L123.297,474.916L122.638,474.514L121.98,474.11L121.323,473.704L120.668,473.296L120.014,472.887L119.362,472.475L118.71,472.061L118.06,471.646L117.412,471.229L116.765,470.809L116.119,470.388L115.474,469.965L114.831,469.54L114.189,469.113L113.549,468.685L112.91,468.254L112.272,467.822L111.635,467.388L111,466.951L110.367,466.513L109.734,466.074L109.104,465.632L108.474,465.188L107.846,464.743L107.219,464.296L106.594,463.847L105.97,463.396L105.348,462.943L104.727,462.489L104.107,462.032L103.489,461.574L102.872,461.114L102.256,460.652L101.642,460.189L101.03,459.723L100.419,459.256L99.809,458.787L99.201,458.316L98.594,457.844L97.989,457.37L97.385,456.893L96.783,456.416L96.182,455.936L95.582,455.455L94.984,454.971L94.388,454.487L93.793,454L93.2,453.511L92.608,453.021L92.017,452.529L91.428,452.036L90.84,451.54L90.254,451.043L89.67,450.545L89.087,450.044L88.506,449.542L87.926,449.038L87.347,448.532L86.77,448.025L86.195,447.516L85.621,447.005L85.049,446.493L84.478,445.979L83.909,445.463L83.341,444.945L82.775,444.426L82.211,443.905L81.648,443.383L81.086,442.858L80.527,442.333L79.968,441.805L79.412,441.276L78.857,440.745L78.303,440.213L77.751,439.679L77.201,439.143L76.653,438.606L76.105,438.067L75.56,437.526L75.016,436.984L74.474,436.44L73.933,435.895L73.394,435.347L72.857,434.799L72.321,434.249L71.787,433.697L71.255,433.143L70.724,432.588L70.195,432.032L69.667,431.473L69.142,430.914L68.617,430.352L68.095,429.789L67.574,429.225L67.055,428.659L66.537,428.091L66.021,427.522L65.507,426.951L64.995,426.379L64.484,425.805L63.975,425.23L63.468,424.653L62.962,424.074L62.458,423.494L61.956,422.913L61.455,422.33L60.957,421.746L60.46,421.16L59.964,420.572L59.471,419.983L58.979,419.392L58.489,418.8L58,418.207L57.513,417.612L57.029,417.016L56.545,416.418L56.064,415.818L55.584,415.217L55.107,414.615L54.63,414.011L54.156,413.406L53.684,412.799L53.213,412.191L52.744,411.581L52.277,410.97L51.811,410.358L51.348,409.744L50.886,409.128L50.426,408.511L49.968,407.893L49.511,407.273L49.057,406.652L48.604,406.03L48.153,405.406L47.704,404.781L47.257,404.154L46.812,403.526L46.368,402.896L45.926,402.266L45.487,401.633L45.049,401L44.612,400.365L44.178,399.728L43.746,399.09L43.315,398.451L42.887,397.811L42.46,397.169L42.035,396.526L41.612,395.881L41.191,395.235L40.771,394.588L40.354,393.94L39.939,393.29L39.525,392.638L39.113,391.986L38.704,391.332L38.296,390.677L37.89,390.02L37.486,389.362L37.084,388.703L36.684,388.043L36.286,387.381L35.89,386.718L35.495,386.054L35.103,385.388L34.712,384.721L34.324,384.053L33.938,383.384L33.553,382.713L33.171,382.041L32.79,381.368L32.411,380.693L32.035,380.018L31.66,379.341L31.288,378.662L30.917,377.983L30.548,377.302L30.182,376.62L29.817,375.937L29.454,375.253L29.094,374.567L28.735,373.88L28.378,373.192L28.024,372.503L27.671,371.812L27.321,371.121L26.972,370.428L26.626,369.734L26.281,369.038L25.939,368.342L25.599,367.644L25.261,366.945L24.924,366.245L24.59,365.544L24.258,364.842L23.928,364.138L23.6,363.434L23.274,362.728L22.951,362.021L22.629,361.313L22.309,360.603L21.992,359.893L21.676,359.181L21.363,358.469L21.052,357.755L20.743,357.04L20.436,356.324L20.131,355.607L19.828,354.889L19.528,354.169L19.229,353.449L18.933,352.727L18.639,352.004L18.347,351.281L18.057,350.556L17.769,349.83L17.483,349.103L17.2,348.375L16.919,347.645L16.639,346.915L16.362,346.184L16.088,345.451L15.815,344.718L15.545,343.983L15.276,343.248L15.01,342.511L14.746,341.774L14.485,341.035L14.225,340.295L13.968,339.555L13.713,338.813L13.46,338.07L13.209,337.326L12.961,336.581L12.715,335.836L12.471,335.089L12.229,334.341L11.99,333.592L11.752,332.842L11.517,332.091L11.285,331.34L11.054,330.587L10.826,329.833L10.6,329.078L10.376,328.323L10.155,327.566L9.935,326.808L9.718,326.05L9.504,325.29L9.291,324.53L9.081,323.768L8.874,323.006L8.668,322.242L8.465,321.478L8.264,320.713L8.065,319.947L7.869,319.18L7.675,318.412L7.484,317.643L7.294,316.873L7.107,316.102L6.923,315.331L6.74,314.558L6.56,313.785L6.383,313.011L6.207,312.235L6.034,311.459L5.864,310.682L5.695,309.904L5.53,309.126L5.366,308.346L5.205,307.566L5.046,306.784L4.89,306.002L4.736,305.219L4.584,304.435L4.435,303.651L4.288,302.865L4.144,302.079L4.001,301.292L3.862,300.504L3.725,299.715L3.59,298.925L3.457,298.135L3.327,297.343L3.2,296.551L3.075,295.758L2.952,294.964L2.832,294.17L2.714,293.375L2.598,292.578L2.486,291.782L2.375,290.984L2.267,290.185L2.161,289.386L2.058,288.586L1.958,287.785L1.86,286.984L1.764,286.182L1.671,285.379L1.58,284.575L1.492,283.77L1.406,282.965L1.323,282.159L1.242,281.352L1.164,280.545L1.088,279.736L1.015,278.928L0.944,278.118L0.876,277.308L0.81,276.496L0.747,275.685L0.686,274.872L0.628,274.059L0.573,273.245L0.52,272.431L0.469,271.615L0.422,270.799L0.376,269.983L0.333,269.165L0.293,268.347L0.255,267.529L0.22,266.709L0.188,265.89L0.158,265.069L0.131,264.248L0.106,263.426L0.084,262.603L0.064,261.78L0.047,260.956L0.033,260.132L0.021,259.307L0.012,258.481L0.005,257.655L0.001,256.828L0,256L0.001,255.172L0.005,254.345L0.012,253.519L0.021,252.693L0.033,251.868L0.047,251.044L0.064,250.22L0.084,249.397L0.106,248.574L0.131,247.752L0.158,246.931L0.188,246.11L0.22,245.291L0.255,244.471L0.293,243.653L0.333,242.835L0.376,242.017L0.422,241.201L0.469,240.385L0.52,239.569L0.573,238.755L0.628,237.941L0.686,237.128L0.747,236.315L0.81,235.504L0.876,234.692L0.944,233.882L1.015,233.072L1.088,232.264L1.164,231.455L1.242,230.648L1.323,229.841L1.406,229.035L1.492,228.23L1.58,227.425L1.671,226.621L1.764,225.818L1.86,225.016L1.958,224.215L2.058,223.414L2.161,222.614L2.267,221.815L2.375,221.016L2.486,220.218L2.598,219.422L2.714,218.625L2.832,217.83L2.952,217.036L3.075,216.242L3.2,215.449L3.327,214.657L3.457,213.865L3.59,213.075L3.725,212.285L3.862,211.496L4.001,210.708L4.144,209.921L4.288,209.135L4.435,208.349L4.584,207.565L4.736,206.781L4.89,205.998L5.046,205.216L5.205,204.434L5.366,203.654L5.53,202.874L5.695,202.096L5.864,201.318L6.034,200.541L6.207,199.765L6.383,198.989L6.56,198.215L6.74,197.442L6.923,196.669L7.107,195.898L7.294,195.127L7.484,194.357L7.675,193.588L7.869,192.82L8.065,192.053L8.264,191.287L8.465,190.522L8.668,189.758L8.874,188.994L9.081,188.232L9.291,187.47L9.504,186.71L9.718,185.95L9.935,185.192L10.155,184.434L10.376,183.677L10.6,182.922L10.826,182.167L11.054,181.413L11.285,180.66L11.517,179.909L11.752,179.158L11.99,178.408L12.229,177.659L12.471,176.911L12.715,176.164L12.961,175.419L13.209,174.674L13.46,173.93L13.713,173.187L13.968,172.445L14.225,171.705L14.485,170.965L14.746,170.226L15.01,169.489L15.276,168.752L15.545,168.017L15.815,167.282L16.088,166.549L16.362,165.816L16.639,165.085L16.919,164.355L17.2,163.625L17.483,162.897L17.769,162.17L18.057,161.444L18.347,160.719L18.639,159.996L18.933,159.273L19.229,158.551L19.528,157.831L19.828,157.111L20.131,156.393L20.436,155.676L20.743,154.96L21.052,154.245L21.363,153.531L21.676,152.819L21.992,152.107L22.309,151.397L22.629,150.687L22.951,149.979L23.274,149.272L23.6,148.566L23.928,147.862L24.258,147.158L24.59,146.456L24.924,145.755L25.261,145.055L25.599,144.356L25.939,143.658L26.281,142.962L26.626,142.266L26.972,141.572L27.321,140.879L27.671,140.188L28.024,139.497L28.378,138.808L28.735,138.12L29.094,137.433L29.454,136.747L29.817,136.063L30.182,135.38L30.548,134.698L30.917,134.017L31.288,133.338L31.66,132.659L32.035,131.982L32.411,131.307L32.79,130.632L33.171,129.959L33.553,129.287L33.938,128.616L34.324,127.947L34.712,127.279L35.103,126.612L35.495,125.946L35.89,125.282L36.286,124.619L36.684,123.957L37.084,123.297L37.486,122.638L37.89,121.98L38.296,121.323L38.704,120.668L39.113,120.014L39.525,119.362L39.939,118.71L40.354,118.06L40.771,117.412L41.191,116.765L41.612,116.119L42.035,115.474L42.46,114.831L42.887,114.189L43.315,113.549L43.746,112.91L44.178,112.272L44.612,111.635L45.049,111L45.487,110.367L45.926,109.734L46.368,109.104L46.812,108.474L47.257,107.846L47.704,107.219L48.153,106.594L48.604,105.97L49.057,105.348L49.511,104.727L49.968,104.107L50.426,103.489L50.886,102.872L51.348,102.256L51.811,101.642L52.277,101.03L52.744,100.419L53.213,99.809L53.684,99.201L54.156,98.594L54.63,97.989L55.107,97.385L55.584,96.783L56.064,96.182L56.545,95.582L57.029,94.984L57.513,94.388L58,93.793L58.489,93.2L58.979,92.608L59.471,92.017L59.964,91.428L60.46,90.84L60.957,90.254L61.455,89.67L61.956,89.087L62.458,88.506L62.962,87.926L63.468,87.347L63.975,86.77L64.484,86.195L64.995,85.621L65.507,85.049L66.021,84.478L66.537,83.909L67.055,83.341L67.574,82.775L68.095,82.211L68.617,81.648L69.142,81.086L69.667,80.527L70.195,79.968L70.724,79.412L71.255,78.857L71.787,78.303L72.321,77.751L72.857,77.201L73.394,76.653L73.933,76.105L74.474,75.56L75.016,75.016L75.56,74.474L76.105,73.933L76.653,73.394L77.201,72.857L77.751,72.321L78.303,71.787L78.857,71.255L79.412,70.724L79.968,70.195L80.527,69.667L81.086,69.142L81.648,68.617L82.211,68.095L82.775,67.574L83.341,67.055L83.909,66.537L84.478,66.021L85.049,65.507L85.621,64.995L86.195,64.484L86.77,63.975L87.347,63.468L87.926,62.962L88.506,62.458L89.087,61.956L89.67,61.455L90.254,60.957L90.84,60.46L91.428,59.964L92.017,59.471L92.608,58.979L93.2,58.489L93.793,58L94.388,57.513L94.984,57.029L95.582,56.545L96.182,56.064L96.783,55.584L97.385,55.107L97.989,54.63L98.594,54.156L99.201,53.684L99.809,53.213L100.419,52.744L101.03,52.277L101.642,51.811L102.256,51.348L102.872,50.886L103.489,50.426L104.107,49.968L104.727,49.511L105.348,49.057L105.97,48.604L106.594,48.153L107.219,47.704L107.846,47.257L108.474,46.812L109.104,46.368L109.734,45.926L110.367,45.487L111,45.049L111.635,44.612L112.272,44.178L112.91,43.746L113.549,43.315L114.189,42.887L114.831,42.46L115.474,42.035L116.119,41.612L116.765,41.191L117.412,40.771L118.06,40.354L118.71,39.939L119.362,39.525L120.014,39.113L120.668,38.704L121.323,38.296L121.98,37.89L122.638,37.486L123.297,37.084L123.957,36.684L124.619,36.286L125.282,35.89L125.946,35.495L126.612,35.103L127.279,34.712L127.947,34.324L128.616,33.938L129.287,33.553L129.959,33.171L130.632,32.79L131.307,32.411L131.982,32.035L132.659,31.66L133.338,31.288L134.017,30.917L134.698,30.548L135.38,30.182L136.063,29.817L136.747,29.454L137.433,29.094L138.12,28.735L138.808,28.378L139.497,28.024L140.188,27.671L140.879,27.321L141.572,26.972L142.266,26.626L142.962,26.281L143.658,25.939L144.356,25.599L145.055,25.261L145.755,24.924L146.456,24.59L147.158,24.258L147.862,23.928L148.566,23.6L149.272,23.274L149.979,22.951L150.687,22.629L151.397,22.309L152.107,21.992L152.819,21.676L153.531,21.363L154.245,21.052L154.96,20.743L155.676,20.436L156.393,20.131L157.111,19.828L157.831,19.528L158.551,19.229L159.273,18.933L159.996,18.639L160.719,18.347L161.444,18.057L162.17,17.769L162.897,17.483L163.625,17.2L164.355,16.919L165.085,16.639L165.816,16.362L166.549,16.088L167.282,15.815L168.017,15.545L168.752,15.276L169.489,15.01L170.226,14.746L170.965,14.485L171.705,14.225L172.445,13.968L173.187,13.713L173.93,13.46L174.674,13.209L175.419,12.961L176.164,12.715L176.911,12.471L177.659,12.229L178.408,11.99L179.158,11.752L179.909,11.517L180.66,11.285L181.413,11.054L182.167,10.826L182.922,10.6L183.677,10.376L184.434,10.155L185.192,9.935L185.95,9.718L186.71,9.504L187.47,9.291L188.232,9.081L188.994,8.874L189.758,8.668L190.522,8.465L191.287,8.264L192.053,8.065L192.82,7.869L193.588,7.675L194.357,7.484L195.127,7.294L195.898,7.107L196.669,6.923L197.442,6.74L198.215,6.56L198.989,6.383L199.765,6.207L200.541,6.034L201.318,5.864L202.096,5.695L202.874,5.53L203.654,5.366L204.434,5.205L205.216,5.046L205.998,4.89L206.781,4.736L207.565,4.584L208.349,4.435L209.135,4.288L209.921,4.144L210.708,4.001L211.496,3.862L212.285,3.725L213.075,3.59L213.865,3.457L214.657,3.327L215.449,3.2L216.242,3.075L217.036,2.952L217.83,2.832L218.625,2.714L219.422,2.598L220.218,2.486L221.016,2.375L221.815,2.267L222.614,2.161L223.414,2.058L224.215,1.958L225.016,1.86L225.818,1.764L226.621,1.671L227.425,1.58L228.23,1.492L229.035,1.406L229.841,1.323L230.648,1.242L231.455,1.164L232.264,1.088L233.072,1.015L233.882,0.944L234.692,0.876L235.504,0.81L236.315,0.747L237.128,0.686L237.941,0.628L238.755,0.573L239.569,0.52L240.385,0.469L241.201,0.422L242.017,0.376L242.835,0.333L243.653,0.293L244.471,0.255L245.291,0.22L246.11,0.188L246.931,0.158L247.752,0.131L248.574,0.106L249.397,0.084L250.22,0.064L251.044,0.047L251.868,0.033L252.693,0.021L253.519,0.012L254.345,0.005L255.172,0.001L256,0L256.828,0.001ZM255.375,64.001L254.751,64.004L254.128,64.009L253.505,64.016L252.883,64.025L252.261,64.036L251.64,64.048L251.02,64.063L250.4,64.08L249.781,64.099L249.163,64.119L248.545,64.142L247.927,64.166L247.311,64.193L246.695,64.221L246.079,64.251L245.464,64.283L244.85,64.317L244.236,64.353L243.623,64.391L243.011,64.431L242.399,64.473L241.788,64.517L241.177,64.562L240.568,64.61L239.958,64.659L239.35,64.71L238.742,64.763L238.134,64.818L237.527,64.875L236.921,64.934L236.316,64.994L235.711,65.057L235.106,65.121L234.503,65.187L233.9,65.256L233.297,65.325L232.696,65.397L232.095,65.471L231.494,65.546L230.894,65.624L230.295,65.703L229.697,65.784L229.099,65.867L228.501,65.951L227.905,66.038L227.309,66.126L226.714,66.216L226.119,66.308L225.525,66.402L224.932,66.497L224.339,66.595L223.747,66.694L223.156,66.795L222.565,66.898L221.975,67.002L221.385,67.108L220.797,67.217L220.209,67.327L219.621,67.438L219.034,67.552L218.448,67.667L217.863,67.784L217.278,67.903L216.694,68.024L216.111,68.146L215.528,68.27L214.946,68.396L214.365,68.524L213.784,68.653L213.204,68.784L212.625,68.917L212.046,69.052L211.468,69.188L210.891,69.326L210.314,69.466L209.739,69.608L209.163,69.751L208.589,69.896L208.015,70.043L207.442,70.192L206.87,70.342L206.298,70.494L205.727,70.647L205.157,70.803L204.588,70.96L204.019,71.119L203.451,71.279L202.883,71.442L202.317,71.606L201.751,71.771L201.186,71.939L200.621,72.108L200.057,72.278L199.494,72.451L198.932,72.625L198.37,72.801L197.81,72.978L197.25,73.157L196.69,73.338L196.132,73.52L195.574,73.705L195.017,73.89L194.46,74.078L193.905,74.267L193.35,74.458L192.796,74.65L192.243,74.844L191.69,75.04L191.138,75.237L190.587,75.436L190.037,75.637L189.488,75.839L188.939,76.043L188.391,76.249L187.844,76.456L187.297,76.665L186.752,76.875L186.207,77.088L185.663,77.301L185.12,77.517L184.578,77.734L184.036,77.952L183.495,78.172L182.955,78.394L182.416,78.617L181.877,78.842L181.34,79.069L180.803,79.297L180.267,79.527L179.732,79.758L179.197,79.991L178.664,80.226L178.131,80.462L177.599,80.7L177.068,80.939L176.538,81.18L176.009,81.422L175.48,81.666L174.953,81.912L174.426,82.159L173.899,82.408L173.374,82.658L172.85,82.91L172.327,83.163L171.804,83.418L171.282,83.674L170.762,83.932L170.242,84.192L169.722,84.453L169.204,84.716L168.687,84.98L168.17,85.245L167.655,85.513L167.14,85.781L166.626,86.052L166.113,86.323L165.601,86.597L165.09,86.872L164.58,87.148L164.071,87.426L163.562,87.705L163.055,87.986L162.548,88.268L162.042,88.552L161.538,88.837L161.034,89.124L160.531,89.413L160.029,89.702L159.528,89.994L159.027,90.287L158.528,90.581L158.03,90.876L157.533,91.174L157.036,91.472L156.541,91.772L156.046,92.074L155.553,92.377L155.06,92.682L154.569,92.988L154.078,93.295L153.589,93.604L153.1,93.914L152.612,94.226L152.125,94.539L151.64,94.854L151.155,95.17L150.671,95.487L150.188,95.806L149.707,96.127L149.226,96.449L148.746,96.772L148.267,97.096L147.789,97.423L147.313,97.75L146.837,98.079L146.362,98.409L145.888,98.741L145.416,99.074L144.944,99.408L144.473,99.744L144.004,100.081L143.535,100.42L143.068,100.76L142.601,101.101L142.136,101.444L141.671,101.788L141.208,102.134L140.746,102.481L140.284,102.829L139.824,103.179L139.365,103.53L138.907,103.882L138.45,104.236L137.994,104.591L137.539,104.947L137.086,105.305L136.633,105.664L136.182,106.024L135.731,106.386L135.282,106.749L134.834,107.114L134.386,107.479L133.94,107.846L133.496,108.215L133.052,108.584L132.609,108.955L132.167,109.328L131.727,109.701L131.288,110.076L130.849,110.452L130.412,110.83L129.976,111.209L129.542,111.589L129.108,111.97L128.675,112.353L128.244,112.737L127.814,113.122L127.385,113.509L126.957,113.896L126.53,114.285L126.105,114.676L125.68,115.067L125.257,115.46L124.835,115.854L124.414,116.25L123.995,116.646L123.576,117.044L123.159,117.443L122.742,117.843L122.328,118.245L121.914,118.648L121.501,119.052L121.09,119.457L120.68,119.863L120.271,120.271L119.863,120.68L119.457,121.09L119.052,121.501L118.648,121.914L118.245,122.328L117.843,122.742L117.443,123.159L117.044,123.576L116.646,123.995L116.25,124.414L115.854,124.835L115.46,125.257L115.067,125.68L114.676,126.105L114.285,126.53L113.896,126.957L113.509,127.385L113.122,127.814L112.737,128.244L112.353,128.675L111.97,129.108L111.589,129.542L111.209,129.976L110.83,130.412L110.452,130.849L110.076,131.288L109.701,131.727L109.328,132.167L108.955,132.609L108.584,133.052L108.215,133.496L107.846,133.94L107.479,134.386L107.114,134.834L106.749,135.282L106.386,135.731L106.024,136.182L105.664,136.633L105.305,137.086L104.947,137.539L104.591,137.994L104.236,138.45L103.882,138.907L103.53,139.365L103.179,139.824L102.829,140.284L102.481,140.746L102.134,141.208L101.788,141.671L101.444,142.136L101.101,142.601L100.76,143.068L100.42,143.535L100.081,144.004L99.744,144.473L99.408,144.944L99.074,145.416L98.741,145.888L98.409,146.362L98.079,146.837L97.75,147.313L97.423,147.789L97.096,148.267L96.772,148.746L96.449,149.226L96.127,149.707L95.806,150.188L95.487,150.671L95.17,151.155L94.854,151.64L94.539,152.125L94.226,152.612L93.914,153.1L93.604,153.589L93.295,154.078L92.988,154.569L92.682,155.06L92.377,155.553L92.074,156.046L91.772,156.541L91.472,157.036L91.174,157.533L90.876,158.03L90.581,158.528L90.287,159.027L89.994,159.528L89.702,160.029L89.413,160.531L89.124,161.034L88.837,161.538L88.552,162.042L88.268,162.548L87.986,163.055L87.705,163.562L87.426,164.071L87.148,164.58L86.872,165.09L86.597,165.601L86.323,166.113L86.052,166.626L85.781,167.14L85.513,167.655L85.245,168.17L84.98,168.687L84.716,169.204L84.453,169.722L84.192,170.242L83.932,170.762L83.674,171.282L83.418,171.804L83.163,172.327L82.91,172.85L82.658,173.374L82.408,173.899L82.159,174.426L81.912,174.953L81.666,175.48L81.422,176.009L81.18,176.538L80.939,177.068L80.7,177.599L80.462,178.131L80.226,178.664L79.991,179.197L79.758,179.732L79.527,180.267L79.297,180.803L79.069,181.34L78.842,181.877L78.617,182.416L78.394,182.955L78.172,183.495L77.952,184.036L77.734,184.578L77.517,185.12L77.301,185.663L77.088,186.207L76.875,186.752L76.665,187.297L76.456,187.844L76.249,188.391L76.043,188.939L75.839,189.488L75.637,190.037L75.436,190.587L75.237,191.138L75.04,191.69L74.844,192.243L74.65,192.796L74.458,193.35L74.267,193.905L74.078,194.46L73.89,195.017L73.705,195.574L73.52,196.132L73.338,196.69L73.157,197.25L72.978,197.81L72.801,198.37L72.625,198.932L72.451,199.494L72.278,200.057L72.108,200.621L71.939,201.186L71.771,201.751L71.606,202.317L71.442,202.883L71.279,203.451L71.119,204.019L70.96,204.588L70.803,205.157L70.647,205.727L70.494,206.298L70.342,206.87L70.192,207.442L70.043,208.015L69.896,208.589L69.751,209.163L69.608,209.739L69.466,210.314L69.326,210.891L69.188,211.468L69.052,212.046L68.917,212.625L68.784,213.204L68.653,213.784L68.524,214.365L68.396,214.946L68.27,215.528L68.146,216.111L68.024,216.694L67.903,217.278L67.784,217.863L67.667,218.448L67.552,219.034L67.438,219.621L67.327,220.209L67.217,220.797L67.108,221.385L67.002,221.975L66.898,222.565L66.795,223.156L66.694,223.747L66.595,224.339L66.497,224.932L66.402,225.525L66.308,226.119L66.216,226.714L66.126,227.309L66.038,227.905L65.951,228.501L65.867,229.099L65.784,229.697L65.703,230.295L65.624,230.894L65.546,231.494L65.471,232.095L65.397,232.696L65.325,233.297L65.256,233.9L65.187,234.503L65.121,235.106L65.057,235.711L64.994,236.316L64.934,236.921L64.875,237.527L64.818,238.134L64.763,238.742L64.71,239.35L64.659,239.958L64.61,240.568L64.562,241.177L64.517,241.788L64.473,242.399L64.431,243.011L64.391,243.623L64.353,244.236L64.317,244.85L64.283,245.464L64.251,246.079L64.221,246.695L64.193,247.311L64.166,247.927L64.142,248.545L64.119,249.163L64.099,249.781L64.08,250.4L64.063,251.02L64.048,251.64L64.036,252.261L64.025,252.883L64.016,253.505L64.009,254.128L64.004,254.751L64.001,255.375L64,256L64.001,256.625L64.004,257.249L64.009,257.872L64.016,258.495L64.025,259.117L64.036,259.739L64.048,260.36L64.063,260.98L64.08,261.6L64.099,262.219L64.119,262.837L64.142,263.455L64.166,264.073L64.193,264.689L64.221,265.305L64.251,265.921L64.283,266.536L64.317,267.15L64.353,267.764L64.391,268.377L64.431,268.989L64.473,269.601L64.517,270.212L64.562,270.823L64.61,271.432L64.659,272.042L64.71,272.65L64.763,273.258L64.818,273.866L64.875,274.473L64.934,275.079L64.994,275.684L65.057,276.289L65.121,276.894L65.187,277.497L65.256,278.1L65.325,278.703L65.397,279.304L65.471,279.905L65.546,280.506L65.624,281.106L65.703,281.705L65.784,282.303L65.867,282.901L65.951,283.499L66.038,284.095L66.126,284.691L66.216,285.286L66.308,285.881L66.402,286.475L66.497,287.068L66.595,287.661L66.694,288.253L66.795,288.845L66.898,289.435L67.002,290.025L67.108,290.615L67.217,291.203L67.327,291.792L67.438,292.379L67.552,292.965L67.667,293.552L67.784,294.137L67.903,294.722L68.024,295.306L68.146,295.889L68.27,296.472L68.396,297.054L68.524,297.635L68.653,298.216L68.784,298.796L68.917,299.375L69.052,299.954L69.188,300.532L69.326,301.109L69.466,301.686L69.608,302.261L69.751,302.837L69.896,303.411L70.043,303.985L70.192,304.558L70.342,305.13L70.494,305.702L70.648,306.273L70.803,306.843L70.96,307.413L71.119,307.981L71.279,308.549L71.442,309.117L71.606,309.683L71.771,310.249L71.939,310.815L72.108,311.379L72.278,311.943L72.451,312.506L72.625,313.068L72.801,313.629L72.978,314.19L73.157,314.75L73.338,315.31L73.52,315.868L73.705,316.426L73.89,316.983L74.078,317.539L74.267,318.095L74.458,318.65L74.65,319.204L74.844,319.757L75.04,320.31L75.237,320.862L75.436,321.413L75.637,321.963L75.839,322.513L76.043,323.061L76.249,323.609L76.456,324.156L76.665,324.702L76.875,325.248L77.088,325.793L77.301,326.337L77.517,326.88L77.734,327.423L77.952,327.964L78.172,328.505L78.394,329.045L78.617,329.584L78.842,330.122L79.069,330.66L79.297,331.197L79.527,331.733L79.758,332.268L79.991,332.803L80.226,333.336L80.462,333.869L80.7,334.401L80.939,334.932L81.18,335.462L81.422,335.991L81.666,336.52L81.912,337.047L82.159,337.575L82.408,338.101L82.658,338.626L82.91,339.15L83.163,339.673L83.418,340.196L83.674,340.717L83.932,341.238L84.192,341.759L84.453,342.277L84.715,342.795L84.98,343.313L85.246,343.83L85.512,344.345L85.781,344.859L86.052,345.374L86.324,345.887L86.597,346.399L86.871,346.91L87.148,347.42L87.426,347.929L87.705,348.438L87.986,348.946L88.268,349.452L88.552,349.958L88.837,350.462L89.124,350.967L89.413,351.47L89.702,351.971L89.994,352.472L90.286,352.972L90.581,353.472L90.876,353.97L91.174,354.467L91.472,354.964L91.772,355.459L92.074,355.954L92.377,356.447L92.682,356.939L92.988,357.431L93.295,357.922L93.604,358.412L93.914,358.9L94.226,359.388L94.539,359.875L94.854,360.36L95.17,360.846L95.487,361.329L95.806,361.811L96.127,362.294L96.449,362.775L96.772,363.254L97.096,363.732L97.423,364.211L97.75,364.688L98.079,365.163L98.409,365.638L98.741,366.112L99.074,366.584L99.408,367.056L99.744,367.526L100.081,367.996L100.42,368.465L100.76,368.933L101.102,369.399L101.444,369.864L101.788,370.328L102.134,370.793L102.481,371.255L102.829,371.715L103.179,372.176L103.53,372.635L103.882,373.093L104.236,373.55L104.591,374.006L104.947,374.46L105.305,374.914L105.664,375.366L106.024,375.818L106.386,376.269L106.749,376.718L107.114,377.167L107.48,377.614L107.846,378.06L108.215,378.504L108.584,378.948L108.955,379.391L109.328,379.833L109.701,380.273L110.076,380.712L110.453,381.151L110.83,381.588L111.209,382.024L111.588,382.458L111.971,382.892L112.353,383.325L112.736,383.755L113.122,384.186L113.509,384.616L113.896,385.043L114.285,385.469L114.676,385.896L115.067,386.32L115.46,386.743L115.854,387.165L116.25,387.586L116.646,388.006L117.044,388.424L117.443,388.841L117.844,389.258L118.245,389.673L118.647,390.086L119.052,390.499L119.457,390.91L119.863,391.32L120.271,391.729L120.68,392.137L121.09,392.543L121.501,392.948L121.914,393.352L122.328,393.755L122.743,394.157L123.159,394.557L123.576,394.956L123.995,395.354L124.414,395.75L124.834,396.145L125.257,396.54L125.68,396.933L126.104,397.324L126.531,397.715L126.957,398.104L127.385,398.491L127.814,398.878L128.244,399.263L128.675,399.647L129.108,400.03L129.541,400.411L129.976,400.791L130.413,401.17L130.85,401.548L131.287,401.923L131.726,402.298L132.167,402.672L132.609,403.045L133.052,403.416L133.495,403.785L133.94,404.154L134.387,404.521L134.834,404.887L135.282,405.251L135.731,405.614L136.181,405.975L136.633,406.336L137.086,406.695L137.54,407.053L137.995,407.41L138.45,407.764L138.907,408.118L139.365,408.471L139.825,408.822L140.284,409.171L140.745,409.519L141.208,409.866L141.671,410.212L142.136,410.556L142.601,410.899L143.068,411.24L143.535,411.58L144.004,411.919L144.473,412.256L144.944,412.592L145.416,412.927L145.888,413.259L146.362,413.591L146.838,413.922L147.313,414.25L147.789,414.577L148.267,414.904L148.746,415.229L149.225,415.551L149.707,415.873L150.188,416.194L150.671,416.512L151.155,416.83L151.64,417.146L152.126,417.461L152.612,417.774L153.099,418.085L153.589,418.396L154.078,418.705L154.568,419.012L155.061,419.319L155.554,419.623L156.047,419.926L156.541,420.227L157.036,420.527L157.533,420.826L158.031,421.124L158.528,421.419L159.027,421.713L159.528,422.006L160.029,422.298L160.531,422.587L161.033,422.876L161.537,423.162L162.042,423.448L162.549,423.732L163.055,424.014L163.562,424.295L164.07,424.574L164.581,424.852L165.09,425.128L165.601,425.403L166.113,425.677L166.626,425.948L167.141,426.219L167.656,426.488L168.171,426.755L168.687,427.02L169.204,427.284L169.722,427.547L170.241,427.808L170.762,428.068L171.283,428.326L171.804,428.582L172.327,428.837L172.851,429.091L173.375,429.343L173.899,429.592L174.425,429.841L174.952,430.088L175.481,430.334L176.009,430.578L176.538,430.82L177.068,431.061L177.598,431.3L178.13,431.538L178.664,431.774L179.197,432.009L179.732,432.242L180.267,432.473L180.803,432.703L181.339,432.931L181.877,433.157L182.416,433.383L182.955,433.606L183.495,433.828L184.036,434.048L184.577,434.266L185.12,434.484L185.663,434.699L186.207,434.912L186.752,435.125L187.298,435.335L187.843,435.544L188.391,435.751L188.939,435.957L189.488,436.161L190.037,436.363L190.587,436.563L191.138,436.763L191.69,436.96L192.243,437.156L192.796,437.35L193.35,437.542L193.905,437.733L194.461,437.922L195.017,438.11L195.573,438.295L196.131,438.479L196.691,438.662L197.25,438.843L197.809,439.022L198.371,439.2L198.932,439.375L199.494,439.549L200.058,439.722L200.621,439.892L201.185,440.061L201.751,440.229L202.317,440.394L202.883,440.558L203.451,440.721L204.019,440.881L204.588,441.04L205.157,441.197L205.727,441.352L206.298,441.506L206.87,441.658L207.442,441.808L208.015,441.957L208.588,442.104L209.164,442.249L209.739,442.392L210.314,442.534L210.89,442.674L211.468,442.812L212.046,442.948L212.624,443.083L213.204,443.216L213.784,443.347L214.365,443.476L214.947,443.604L215.527,443.73L216.111,443.854L216.694,443.977L217.278,444.097L217.863,444.216L218.449,444.333L219.034,444.448L219.621,444.562L220.209,444.674L220.796,444.783L221.385,444.891L221.975,444.998L222.565,445.102L223.155,445.205L223.747,445.306L224.339,445.405L224.931,445.503L225.526,445.598L226.119,445.692L226.713,445.784L227.309,445.874L227.905,445.962L228.502,446.049L229.099,446.133L229.697,446.216L230.295,446.297L230.894,446.376L231.494,446.454L232.094,446.529L232.696,446.603L233.298,446.675L233.9,446.744L234.503,446.813L235.107,446.879L235.71,446.943L236.315,447.005L236.921,447.066L237.528,447.125L238.135,447.182L238.742,447.237L239.349,447.29L239.958,447.341L240.568,447.39L241.177,447.438L241.788,447.483L242.399,447.527L243.012,447.569L243.624,447.609L244.236,447.646L244.85,447.683L245.465,447.717L246.079,447.749L246.695,447.779L247.311,447.807L247.927,447.834L248.545,447.858L249.163,447.881L249.78,447.901L250.4,447.92L251.021,447.937L251.64,447.952L252.261,447.964L252.883,447.975L253.505,447.984L254.128,447.991L254.752,447.996L255.376,447.999L256,448L256.624,447.999L257.248,447.996L257.872,447.991L258.495,447.984L259.117,447.975L259.739,447.964L260.36,447.952L260.979,447.937L261.6,447.92L262.22,447.901L262.837,447.881L263.455,447.858L264.073,447.834L264.689,447.807L265.305,447.779L265.921,447.749L266.535,447.717L267.15,447.683L267.764,447.646L268.376,447.609L268.988,447.569L269.601,447.527L270.212,447.483L270.823,447.438L271.432,447.39L272.042,447.341L272.651,447.29L273.258,447.237L273.865,447.182L274.472,447.125L275.079,447.066L275.685,447.005L276.29,446.943L276.893,446.879L277.497,446.812L278.1,446.744L278.702,446.675L279.304,446.603L279.906,446.529L280.506,446.454L281.106,446.376L281.705,446.297L282.304,446.216L282.901,446.133L283.498,446.049L284.095,445.962L284.691,445.874L285.287,445.784L285.881,445.692L286.474,445.598L287.069,445.503L287.661,445.405L288.253,445.306L288.845,445.205L289.435,445.102L290.025,444.998L290.615,444.892L291.204,444.783L291.791,444.674L292.379,444.562L292.966,444.448L293.551,444.333L294.137,444.216L294.722,444.097L295.306,443.977L295.889,443.854L296.473,443.73L297.053,443.604L297.635,443.477L298.216,443.347L298.796,443.216L299.376,443.083L299.954,442.948L300.532,442.812L301.11,442.674L301.686,442.534L302.261,442.392L302.836,442.249L303.412,442.104L303.985,441.957L304.558,441.808L305.13,441.658L305.702,441.506L306.274,441.352L306.842,441.197L307.412,441.04L307.981,440.881L308.549,440.721L309.117,440.558L309.683,440.394L310.249,440.229L310.815,440.061L311.379,439.892L311.942,439.722L312.506,439.549L313.068,439.375L313.629,439.2L314.191,439.022L314.75,438.843L315.309,438.662L315.869,438.479L316.427,438.295L316.983,438.11L317.539,437.923L318.094,437.733L318.65,437.542L319.204,437.35L319.757,437.156L320.31,436.96L320.862,436.763L321.413,436.563L321.963,436.363L322.512,436.161L323.06,435.957L323.609,435.751L324.156,435.544L324.702,435.335L325.248,435.125L325.794,434.912L326.337,434.699L326.88,434.484L327.423,434.266L327.964,434.048L328.505,433.828L329.045,433.606L329.584,433.383L330.122,433.158L330.661,432.931L331.197,432.703L331.733,432.473L332.268,432.242L332.803,432.009L333.336,431.774L333.87,431.538L334.402,431.3L334.932,431.061L335.462,430.82L335.991,430.578L336.519,430.334L337.048,430.088L337.575,429.841L338.101,429.592L338.625,429.343L339.149,429.091L339.673,428.837L340.196,428.582L340.717,428.326L341.238,428.068L341.759,427.808L342.277,427.547L342.796,427.284L343.314,427.02L343.83,426.754L344.344,426.488L344.859,426.219L345.374,425.948L345.887,425.676L346.399,425.403L346.91,425.128L347.42,424.852L347.93,424.574L348.438,424.295L348.945,424.014L349.452,423.732L349.958,423.448L350.462,423.163L350.967,422.875L351.47,422.587L351.971,422.298L352.472,422.006L352.972,421.714L353.472,421.419L353.969,421.124L354.467,420.827L354.965,420.527L355.459,420.227L355.954,419.926L356.446,419.623L356.939,419.319L357.432,419.012L357.922,418.705L358.411,418.396L358.9,418.086L359.388,417.774L359.874,417.461L360.36,417.146L360.845,416.83L361.329,416.512L361.811,416.194L362.294,415.873L362.775,415.551L363.253,415.229L363.732,414.904L364.211,414.577L364.687,414.25L365.162,413.922L365.639,413.59L366.112,413.259L366.584,412.926L367.056,412.592L367.526,412.256L367.996,411.919L368.465,411.58L368.933,411.24L369.399,410.898L369.864,410.556L370.328,410.212L370.793,409.866L371.255,409.519L371.716,409.171L372.175,408.822L372.635,408.47L373.093,408.118L373.55,407.764L374.005,407.41L374.46,407.053L374.914,406.695L375.366,406.336L375.819,405.975L376.269,405.614L376.718,405.251L377.167,404.886L377.614,404.521L378.06,404.154L378.505,403.785L378.948,403.416L379.39,403.045L379.832,402.672L380.274,402.298L380.713,401.923L381.15,401.548L381.587,401.17L382.024,400.791L382.458,400.411L382.892,400.03L383.325,399.647L383.755,399.264L384.186,398.878L384.616,398.491L385.042,398.104L385.469,397.715L385.896,397.324L386.32,396.933L386.743,396.54L387.166,396.145L387.586,395.75L388.006,395.354L388.424,394.956L388.841,394.557L389.258,394.156L389.673,393.755L390.086,393.353L390.499,392.948L390.91,392.543L391.32,392.137L391.729,391.729L392.137,391.32L392.543,390.91L392.948,390.499L393.353,390.086L393.755,389.673L394.156,389.258L394.557,388.841L394.956,388.424L395.354,388.006L395.75,387.586L396.145,387.166L396.54,386.743L396.933,386.32L397.324,385.896L397.715,385.469L398.104,385.042L398.491,384.616L398.878,384.186L399.264,383.755L399.647,383.325L400.03,382.892L400.411,382.458L400.791,382.024L401.17,381.587L401.548,381.15L401.923,380.713L402.298,380.274L402.672,379.832L403.045,379.39L403.416,378.948L403.785,378.505L404.154,378.06L404.521,377.614L404.886,377.167L405.251,376.718L405.614,376.269L405.975,375.819L406.336,375.366L406.695,374.914L407.053,374.46L407.41,374.005L407.764,373.55L408.118,373.093L408.47,372.635L408.822,372.175L409.171,371.716L409.519,371.255L409.866,370.793L410.212,370.328L410.556,369.864L410.898,369.399L411.24,368.933L411.58,368.465L411.919,367.996L412.256,367.526L412.592,367.056L412.926,366.584L413.259,366.112L413.59,365.639L413.922,365.162L414.25,364.687L414.577,364.211L414.904,363.732L415.229,363.253L415.551,362.775L415.873,362.294L416.194,361.811L416.512,361.329L416.83,360.845L417.146,360.36L417.461,359.874L417.774,359.388L418.086,358.9L418.396,358.411L418.705,357.922L419.012,357.432L419.319,356.939L419.623,356.446L419.926,355.954L420.227,355.459L420.527,354.965L420.827,354.467L421.124,353.969L421.419,353.472L421.714,352.972L422.006,352.472L422.298,351.971L422.587,351.47L422.875,350.967L423.163,350.462L423.448,349.958L423.732,349.452L424.014,348.945L424.295,348.438L424.574,347.93L424.852,347.42L425.128,346.91L425.403,346.399L425.676,345.887L425.948,345.374L426.219,344.859L426.488,344.344L426.754,343.83L427.02,343.314L427.284,342.796L427.547,342.277L427.808,341.759L428.068,341.238L428.326,340.717L428.582,340.196L428.837,339.673L429.091,339.149L429.343,338.625L429.592,338.101L429.841,337.575L430.088,337.048L430.334,336.519L430.578,335.991L430.82,335.462L431.061,334.932L431.3,334.402L431.538,333.87L431.774,333.336L432.009,332.803L432.242,332.268L432.473,331.733L432.703,331.197L432.931,330.661L433.158,330.122L433.383,329.584L433.606,329.045L433.828,328.505L434.048,327.964L434.266,327.423L434.484,326.88L434.699,326.337L434.912,325.794L435.125,325.248L435.335,324.702L435.544,324.156L435.751,323.609L435.957,323.06L436.161,322.512L436.363,321.963L436.563,321.413L436.763,320.862L436.96,320.31L437.156,319.757L437.35,319.204L437.542,318.65L437.733,318.094L437.923,317.539L438.11,316.983L438.295,316.427L438.479,315.869L438.662,315.309L438.843,314.75L439.022,314.191L439.2,313.629L439.375,313.068L439.549,312.506L439.722,311.942L439.892,311.379L440.061,310.815L440.229,310.249L440.394,309.683L440.558,309.117L440.721,308.549L440.881,307.981L441.04,307.412L441.197,306.842L441.352,306.274L441.506,305.702L441.658,305.13L441.808,304.558L441.957,303.985L442.104,303.412L442.249,302.836L442.392,302.261L442.534,301.686L442.674,301.11L442.812,300.532L442.948,299.954L443.083,299.376L443.216,298.796L443.347,298.216L443.477,297.635L443.604,297.053L443.73,296.473L443.854,295.889L443.977,295.306L444.097,294.722L444.216,294.137L444.333,293.551L444.448,292.966L444.562,292.379L444.674,291.791L444.783,291.204L444.892,290.615L444.998,290.025L445.102,289.435L445.205,288.845L445.306,288.253L445.405,287.661L445.503,287.069L445.598,286.474L445.692,285.881L445.784,285.287L445.874,284.691L445.962,284.095L446.049,283.498L446.133,282.901L446.216,282.304L446.297,281.705L446.376,281.106L446.454,280.506L446.529,279.906L446.603,279.304L446.675,278.702L446.744,278.1L446.812,277.497L446.879,276.893L446.943,276.29L447.005,275.685L447.066,275.079L447.125,274.472L447.182,273.865L447.237,273.258L447.29,272.651L447.341,272.042L447.39,271.432L447.438,270.823L447.483,270.212L447.527,269.601L447.569,268.988L447.609,268.376L447.646,267.764L447.683,267.15L447.717,266.535L447.749,265.921L447.779,265.305L447.807,264.689L447.834,264.073L447.858,263.455L447.881,262.837L447.901,262.22L447.92,261.6L447.937,260.979L447.952,260.36L447.964,259.739L447.975,259.117L447.984,258.495L447.991,257.872L447.996,257.248L447.999,256.624L448,256L447.999,255.376L447.996,254.752L447.991,254.128L447.984,253.505L447.975,252.883L447.964,252.261L447.952,251.64L447.937,251.021L447.92,250.4L447.901,249.78L447.881,249.163L447.858,248.545L447.834,247.927L447.807,247.311L447.779,246.695L447.749,246.079L447.717,245.465L447.683,244.85L447.646,244.236L447.609,243.624L447.569,243.012L447.527,242.399L447.483,241.788L447.438,241.177L447.39,240.568L447.341,239.958L447.29,239.349L447.237,238.742L447.182,238.135L447.125,237.528L447.066,236.921L447.005,236.315L446.943,235.71L446.879,235.107L446.813,234.503L446.744,233.9L446.675,233.298L446.603,232.696L446.529,232.094L446.454,231.494L446.376,230.894L446.297,230.295L446.216,229.697L446.133,229.099L446.049,228.502L445.962,227.905L445.874,227.309L445.784,226.713L445.692,226.119L445.598,225.526L445.503,224.931L445.405,224.339L445.306,223.747L445.205,223.155L445.102,222.565L444.998,221.975L444.891,221.385L444.783,220.796L444.674,220.209L444.562,219.621L444.448,219.034L444.333,218.449L444.216,217.863L444.097,217.278L443.977,216.694L443.854,216.111L443.73,215.527L443.604,214.947L443.476,214.365L443.347,213.784L443.216,213.204L443.083,212.624L442.948,212.046L442.812,211.468L442.674,210.89L442.534,210.314L442.392,209.739L442.249,209.164L442.104,208.588L441.957,208.015L441.808,207.442L441.658,206.87L441.506,206.298L441.352,205.727L441.197,205.157L441.04,204.588L440.881,204.019L440.721,203.451L440.558,202.883L440.394,202.317L440.229,201.751L440.061,201.185L439.892,200.621L439.722,200.058L439.549,199.494L439.375,198.932L439.2,198.371L439.022,197.809L438.843,197.25L438.662,196.691L438.479,196.131L438.295,195.573L438.11,195.017L437.922,194.461L437.733,193.905L437.542,193.35L437.35,192.796L437.156,192.243L436.96,191.69L436.763,191.138L436.563,190.587L436.363,190.037L436.161,189.488L435.957,188.939L435.751,188.391L435.544,187.843L435.335,187.298L435.125,186.752L434.912,186.207L434.699,185.663L434.484,185.12L434.266,184.577L434.048,184.036L433.828,183.495L433.606,182.955L433.383,182.416L433.157,181.877L432.931,181.339L432.703,180.803L432.473,180.267L432.242,179.732L432.009,179.197L431.774,178.664L431.538,178.13L431.3,177.598L431.061,177.068L430.82,176.538L430.578,176.009L430.334,175.481L430.088,174.952L429.841,174.425L429.592,173.899L429.343,173.375L429.091,172.851L428.837,172.327L428.582,171.804L428.326,171.283L428.068,170.762L427.808,170.241L427.547,169.722L427.284,169.204L427.02,168.687L426.755,168.171L426.488,167.656L426.219,167.141L425.948,166.626L425.677,166.113L425.403,165.601L425.128,165.09L424.852,164.581L424.574,164.07L424.295,163.562L424.014,163.055L423.732,162.549L423.448,162.042L423.162,161.537L422.876,161.033L422.587,160.531L422.298,160.029L422.006,159.528L421.713,159.027L421.419,158.528L421.124,158.031L420.826,157.533L420.527,157.036L420.227,156.541L419.926,156.047L419.623,155.554L419.319,155.061L419.012,154.568L418.705,154.078L418.396,153.589L418.085,153.099L417.774,152.612L417.461,152.126L417.146,151.64L416.83,151.155L416.512,150.671L416.194,150.188L415.873,149.707L415.551,149.225L415.229,148.746L414.904,148.267L414.577,147.789L414.25,147.313L413.922,146.838L413.591,146.362L413.259,145.888L412.927,145.416L412.592,144.944L412.256,144.473L411.919,144.004L411.58,143.535L411.24,143.068L410.899,142.601L410.556,142.136L410.212,141.671L409.866,141.208L409.519,140.745L409.171,140.284L408.822,139.825L408.471,139.365L408.118,138.907L407.764,138.45L407.41,137.995L407.053,137.54L406.695,137.086L406.336,136.633L405.975,136.181L405.614,135.731L405.251,135.282L404.887,134.834L404.521,134.387L404.154,133.94L403.785,133.495L403.416,133.052L403.045,132.609L402.672,132.167L402.298,131.726L401.923,131.287L401.548,130.85L401.17,130.413L400.791,129.976L400.411,129.541L400.03,129.108L399.647,128.675L399.263,128.244L398.878,127.814L398.491,127.385L398.104,126.957L397.715,126.531L397.324,126.104L396.933,125.68L396.54,125.257L396.145,124.834L395.75,124.414L395.354,123.995L394.956,123.576L394.557,123.159L394.157,122.743L393.755,122.328L393.352,121.914L392.948,121.501L392.543,121.09L392.137,120.68L391.729,120.271L391.32,119.863L390.91,119.457L390.499,119.052L390.086,118.647L389.673,118.245L389.258,117.844L388.841,117.443L388.424,117.044L388.006,116.646L387.586,116.25L387.165,115.854L386.743,115.46L386.32,115.067L385.896,114.676L385.469,114.285L385.043,113.896L384.616,113.509L384.186,113.122L383.755,112.736L383.325,112.353L382.892,111.971L382.458,111.588L382.024,111.209L381.588,110.83L381.151,110.453L380.712,110.076L380.273,109.701L379.833,109.328L379.391,108.955L378.948,108.584L378.504,108.215L378.06,107.846L377.614,107.48L377.167,107.114L376.718,106.749L376.269,106.386L375.818,106.024L375.366,105.664L374.914,105.305L374.46,104.947L374.006,104.591L373.55,104.236L373.093,103.882L372.635,103.53L372.176,103.179L371.715,102.829L371.255,102.481L370.793,102.134L370.328,101.788L369.864,101.444L369.399,101.102L368.933,100.76L368.465,100.42L367.996,100.081L367.526,99.744L367.056,99.408L366.584,99.074L366.112,98.741L365.638,98.409L365.163,98.079L364.688,97.75L364.211,97.423L363.732,97.096L363.254,96.772L362.775,96.449L362.294,96.127L361.811,95.806L361.329,95.487L360.846,95.17L360.36,94.854L359.875,94.539L359.388,94.226L358.9,93.914L358.412,93.604L357.922,93.295L357.431,92.988L356.939,92.682L356.447,92.377L355.954,92.074L355.459,91.772L354.964,91.472L354.467,91.174L353.97,90.876L353.472,90.581L352.972,90.286L352.472,89.994L351.971,89.702L351.47,89.413L350.967,89.124L350.462,88.837L349.958,88.552L349.452,88.268L348.946,87.986L348.438,87.705L347.929,87.426L347.42,87.148L346.91,86.871L346.399,86.597L345.887,86.324L345.374,86.052L344.859,85.781L344.345,85.512L343.83,85.246L343.313,84.98L342.795,84.715L342.277,84.453L341.759,84.192L341.238,83.932L340.717,83.674L340.196,83.418L339.673,83.163L339.15,82.91L338.626,82.658L338.101,82.408L337.575,82.159L337.047,81.912L336.52,81.666L335.991,81.422L335.462,81.18L334.932,80.939L334.401,80.7L333.869,80.462L333.336,80.226L332.803,79.991L332.268,79.758L331.733,79.527L331.197,79.297L330.66,79.069L330.122,78.842L329.584,78.617L329.045,78.394L328.505,78.172L327.964,77.952L327.423,77.734L326.88,77.517L326.337,77.301L325.793,77.088L325.248,76.875L324.702,76.665L324.156,76.456L323.609,76.249L323.061,76.043L322.513,75.839L321.963,75.637L321.413,75.436L320.862,75.237L320.31,75.04L319.757,74.844L319.204,74.65L318.65,74.458L318.095,74.267L317.539,74.078L316.983,73.89L316.426,73.705L315.868,73.52L315.31,73.338L314.75,73.157L314.19,72.978L313.629,72.801L313.068,72.625L312.506,72.451L311.943,72.278L311.379,72.108L310.815,71.939L310.249,71.771L309.683,71.606L309.117,71.442L308.549,71.279L307.981,71.119L307.413,70.96L306.843,70.803L306.273,70.648L305.702,70.494L305.13,70.342L304.558,70.192L303.985,70.043L303.411,69.896L302.837,69.751L302.261,69.608L301.686,69.466L301.109,69.326L300.532,69.188L299.954,69.052L299.375,68.917L298.796,68.784L298.216,68.653L297.635,68.524L297.054,68.396L296.472,68.27L295.889,68.146L295.306,68.024L294.722,67.903L294.137,67.784L293.552,67.667L292.965,67.552L292.379,67.438L291.792,67.327L291.203,67.217L290.615,67.108L290.025,67.002L289.435,66.898L288.845,66.795L288.253,66.694L287.661,66.595L287.068,66.497L286.475,66.402L285.881,66.308L285.286,66.216L284.691,66.126L284.095,66.038L283.499,65.951L282.901,65.867L282.303,65.784L281.705,65.703L281.106,65.624L280.506,65.546L279.905,65.471L279.304,65.397L278.703,65.325L278.1,65.256L277.497,65.187L276.894,65.121L276.289,65.057L275.684,64.994L275.079,64.934L274.473,64.875L273.866,64.818L273.258,64.763L272.65,64.71L272.042,64.659L271.432,64.61L270.823,64.562L270.212,64.517L269.601,64.473L268.989,64.431L268.377,64.391L267.764,64.353L267.15,64.317L266.536,64.283L265.921,64.251L265.305,64.221L264.689,64.193L264.073,64.166L263.455,64.142L262.837,64.119L262.219,64.099L261.6,64.08L260.98,64.063L260.36,64.048L259.739,64.036L259.117,64.025L258.495,64.016L257.872,64.009L257.249,64.004L256.625,64.001L256,64L255.375,64.001Z" style="fill:white;"/>
        <path d="M256,448L256,352" style="fill:none;stroke:white;stroke-width:64px;"/>
        <g transform="matrix(1,0,0,1,0,32)">
            <circle cx="256" cy="288" r="64" style="fill:white;"/>
        </g>
    </g>
</svg>
