<?xml version="1.0" encoding="UTF-8" standalone="no"?>
<!DOCTYPE svg PUBLIC "-//W3C//DTD SVG 1.1//EN" "http://www.w3.org/Graphics/SVG/1.1/DTD/svg11.dtd">
<svg width="100%" height="100%" viewBox="0 0 512 512" version="1.1" xmlns="http://www.w3.org/2000/svg" xmlns:xlink="http://www.w3.org/1999/xlink" xml:space="preserve" xmlns:serif="http://www.serif.com/" style="fill-rule:evenodd;clip-rule:evenodd;stroke-linecap:round;stroke-linejoin:round;stroke-miterlimit:1.5;">
    <g id="cymbal">
        <g transform="matrix(1,0,0,1.4,0,-364.8)">
            <path d="M256.828,352L257.655,352.002L258.481,352.004L259.307,352.007L260.132,352.01L260.956,352.015L261.78,352.02L262.603,352.026L263.426,352.033L264.248,352.041L265.069,352.049L265.89,352.059L266.709,352.069L267.529,352.08L268.347,352.092L269.165,352.104L269.983,352.118L270.799,352.132L271.615,352.147L272.431,352.162L273.245,352.179L274.059,352.196L274.872,352.215L275.685,352.233L276.496,352.253L277.308,352.274L278.118,352.295L278.928,352.317L279.736,352.34L280.545,352.364L281.352,352.388L282.159,352.413L282.965,352.439L283.77,352.466L284.575,352.494L285.379,352.522L286.182,352.551L286.984,352.581L287.785,352.612L288.586,352.643L289.386,352.675L290.185,352.708L290.984,352.742L291.782,352.777L292.578,352.812L293.375,352.848L294.17,352.885L294.964,352.922L295.758,352.961L296.551,353L297.343,353.04L298.135,353.08L298.925,353.122L299.715,353.164L300.504,353.207L301.292,353.25L302.079,353.295L302.865,353.34L303.651,353.386L304.435,353.433L305.219,353.48L306.002,353.528L306.784,353.577L307.566,353.627L308.346,353.677L309.126,353.728L309.904,353.78L310.682,353.832L311.459,353.886L312.235,353.94L313.011,353.995L313.785,354.05L314.558,354.106L315.331,354.163L316.102,354.221L316.873,354.279L317.643,354.339L318.412,354.398L319.18,354.459L319.947,354.52L320.713,354.582L321.478,354.645L322.242,354.709L323.006,354.773L323.768,354.838L324.53,354.904L325.29,354.97L326.05,355.037L326.808,355.105L327.566,355.173L328.323,355.243L329.078,355.312L329.833,355.383L330.587,355.454L331.34,355.526L332.091,355.599L332.842,355.673L333.592,355.747L334.341,355.822L335.089,355.897L335.836,355.973L336.581,356.05L337.326,356.128L338.07,356.206L338.813,356.285L339.555,356.365L340.295,356.445L341.035,356.526L341.774,356.608L342.511,356.691L343.248,356.774L343.983,356.858L344.718,356.942L345.451,357.027L346.184,357.113L346.915,357.2L347.645,357.287L348.375,357.375L349.103,357.464L349.83,357.553L350.556,357.643L351.281,357.733L352.004,357.825L352.727,357.917L353.449,358.009L354.169,358.102L354.889,358.196L355.607,358.291L356.324,358.386L357.04,358.482L357.755,358.579L358.469,358.676L359.181,358.774L359.893,358.872L360.603,358.972L361.313,359.072L362.021,359.172L362.728,359.273L363.434,359.375L364.138,359.478L364.842,359.581L365.544,359.684L366.245,359.789L366.945,359.894L367.644,360L368.342,360.106L369.038,360.213L369.734,360.321L370.428,360.429L371.121,360.538L371.812,360.647L372.503,360.757L373.192,360.868L373.88,360.98L374.567,361.092L375.253,361.204L375.937,361.318L376.62,361.432L377.302,361.546L377.983,361.662L378.662,361.777L379.341,361.894L380.018,362.011L380.693,362.129L381.368,362.247L382.041,362.366L382.713,362.485L383.384,362.606L384.053,362.726L384.721,362.848L385.388,362.97L386.054,363.092L386.718,363.215L387.381,363.339L388.043,363.464L388.703,363.589L389.362,363.714L390.02,363.841L390.677,363.967L391.332,364.095L391.986,364.223L392.638,364.352L393.29,364.481L393.94,364.611L394.588,364.741L395.235,364.872L395.881,365.004L396.526,365.136L397.169,365.269L397.811,365.402L398.451,365.536L399.09,365.671L399.728,365.806L400.365,365.941L401,366.078L401.633,366.215L402.266,366.352L402.896,366.49L403.526,366.629L404.154,366.768L404.781,366.908L405.406,367.048L406.03,367.189L406.652,367.33L407.273,367.472L407.893,367.615L408.511,367.758L409.128,367.902L409.744,368.046L410.358,368.191L410.97,368.336L411.581,368.482L412.191,368.629L412.799,368.776L413.406,368.924L414.011,369.072L414.615,369.221L415.217,369.37L415.818,369.52L416.418,369.67L417.016,369.821L417.612,369.973L418.207,370.125L418.8,370.278L419.392,370.431L419.983,370.585L420.572,370.739L421.16,370.894L421.746,371.049L422.33,371.205L422.913,371.361L423.494,371.518L424.074,371.676L424.653,371.834L425.23,371.992L425.805,372.151L426.379,372.311L426.951,372.471L427.522,372.632L428.091,372.793L428.659,372.955L429.225,373.117L429.789,373.28L430.352,373.443L430.914,373.607L431.473,373.771L432.032,373.936L432.588,374.101L433.143,374.267L433.697,374.434L434.249,374.6L434.799,374.768L435.347,374.936L435.895,375.104L436.44,375.273L436.984,375.443L437.526,375.612L438.067,375.783L438.606,375.954L439.143,376.125L439.679,376.297L440.213,376.47L440.745,376.643L441.276,376.816L441.805,376.99L442.333,377.165L442.858,377.34L443.383,377.515L443.905,377.691L444.426,377.867L444.945,378.044L445.463,378.222L445.979,378.399L446.493,378.578L447.005,378.757L447.516,378.936L448.025,379.116L448.532,379.296L449.038,379.477L449.542,379.658L450.044,379.84L450.545,380.022L451.043,380.205L451.54,380.388L452.036,380.571L452.529,380.755L453.021,380.94L453.511,381.125L454,381.31L454.487,381.496L454.971,381.683L455.455,381.87L455.936,382.057L456.416,382.245L456.893,382.433L457.37,382.622L457.844,382.811L458.316,383L458.787,383.19L459.256,383.381L459.723,383.572L460.189,383.763L460.652,383.955L461.114,384.147L461.574,384.34L462.032,384.533L462.489,384.727L462.943,384.921L463.396,385.116L463.847,385.311L464.296,385.506L464.743,385.702L465.188,385.898L465.632,386.095L466.074,386.292L466.513,386.49L466.951,386.688L467.388,386.886L467.822,387.085L468.254,387.284L468.685,387.484L469.113,387.684L469.54,387.885L469.965,388.086L470.388,388.287L470.809,388.489L471.229,388.691L471.646,388.894L472.061,389.097L472.475,389.301L472.887,389.504L473.296,389.709L473.704,389.914L474.11,390.119L474.514,390.324L474.916,390.53L475.316,390.737L475.714,390.943L476.11,391.151L476.505,391.358L476.897,391.566L477.288,391.775L477.676,391.983L478.062,392.193L478.447,392.402L478.829,392.612L479.21,392.823L479.589,393.033L479.965,393.245L480.34,393.456L480.712,393.668L481.083,393.88L481.452,394.093L481.818,394.306L482.183,394.52L482.546,394.734L482.906,394.948L483.265,395.162L483.622,395.377L483.976,395.593L484.329,395.809L484.679,396.025L485.028,396.241L485.374,396.458L485.719,396.676L486.061,396.893L486.401,397.111L486.739,397.33L487.076,397.548L487.41,397.767L487.742,397.987L488.072,398.207L488.4,398.427L488.726,398.648L489.049,398.868L489.371,399.09L489.691,399.311L490.008,399.533L490.324,399.756L490.637,399.979L490.948,400.202L491.257,400.425L491.564,400.649L491.869,400.873L492.172,401.097L492.472,401.322L492.771,401.547L493.067,401.773L493.361,401.999L493.653,402.225L493.943,402.451L494.231,402.678L494.517,402.905L494.8,403.133L495.081,403.361L495.361,403.589L495.638,403.818L495.912,404.046L496.185,404.276L496.455,404.505L496.724,404.735L496.99,404.965L497.254,405.196L497.515,405.427L497.775,405.658L498.032,405.889L498.287,406.121L498.54,406.353L498.791,406.586L499.039,406.818L499.285,407.051L499.529,407.285L499.771,407.518L500.01,407.752L500.248,407.987L500.483,408.221L500.715,408.456L500.946,408.692L501.174,408.927L501.4,409.163L501.624,409.399L501.845,409.636L502.065,409.872L502.282,410.109L502.496,410.347L502.709,410.584L502.919,410.822L503.126,411.061L503.332,411.299L503.535,411.538L503.736,411.777L503.935,412.017L504.131,412.256L504.325,412.496L504.516,412.737L504.706,412.977L504.893,413.218L505.077,413.459L505.26,413.701L505.44,413.942L505.617,414.184L505.793,414.426L505.966,414.669L506.136,414.912L506.305,415.155L506.47,415.398L506.634,415.642L506.795,415.886L506.954,416.13L507.11,416.374L507.264,416.619L507.416,416.864L507.565,417.109L507.712,417.355L507.856,417.6L507.999,417.846L508.138,418.093L508.275,418.339L508.41,418.586L508.543,418.833L508.673,419.08L508.8,419.328L508.925,419.576L509.048,419.824L509.168,420.072L509.286,420.32L509.402,420.569L509.514,420.818L509.625,421.068L509.733,421.317L509.839,421.567L509.942,421.817L510.042,422.067L510.14,422.318L510.236,422.568L510.329,422.819L510.42,423.07L510.508,423.322L510.594,423.573L510.677,423.825L510.758,424.077L510.836,424.33L510.912,424.582L510.985,424.835L511.056,425.088L511.124,425.341L511.19,425.595L511.253,425.849L511.314,426.102L511.372,426.357L511.427,426.611L511.48,426.865L511.531,427.12L511.578,427.375L511.624,427.63L511.667,427.886L511.707,428.141L511.745,428.397L511.78,428.653L511.812,428.91L511.842,429.166L511.869,429.423L511.894,429.679L511.916,429.937L511.936,430.194L511.953,430.451L511.967,430.709L511.979,430.967L511.988,431.225L511.995,431.483L511.999,431.741L512,432L511.999,432.259L511.995,432.517L511.988,432.775L511.979,433.033L511.967,433.291L511.953,433.549L511.936,433.806L511.916,434.063L511.894,434.321L511.869,434.577L511.842,434.834L511.812,435.09L511.78,435.347L511.745,435.603L511.707,435.859L511.667,436.114L511.624,436.37L511.578,436.625L511.531,436.88L511.48,437.135L511.427,437.389L511.372,437.643L511.314,437.898L511.253,438.151L511.19,438.405L511.124,438.659L511.056,438.912L510.985,439.165L510.912,439.418L510.836,439.67L510.758,439.923L510.677,440.175L510.594,440.427L510.508,440.678L510.42,440.93L510.329,441.181L510.236,441.432L510.14,441.682L510.042,441.933L509.942,442.183L509.839,442.433L509.733,442.683L509.625,442.932L509.514,443.182L509.402,443.431L509.286,443.68L509.168,443.928L509.048,444.176L508.925,444.424L508.8,444.672L508.673,444.92L508.543,445.167L508.41,445.414L508.275,445.661L508.138,445.907L507.999,446.154L507.856,446.4L507.712,446.645L507.565,446.891L507.416,447.136L507.264,447.381L507.11,447.626L506.954,447.87L506.795,448.114L506.634,448.358L506.47,448.602L506.305,448.845L506.136,449.088L505.966,449.331L505.793,449.574L505.617,449.816L505.44,450.058L505.26,450.299L505.077,450.541L504.893,450.782L504.706,451.023L504.516,451.263L504.325,451.504L504.131,451.744L503.935,451.983L503.736,452.223L503.535,452.462L503.332,452.701L503.126,452.939L502.919,453.178L502.709,453.416L502.496,453.653L502.282,453.891L502.065,454.128L501.845,454.364L501.624,454.601L501.4,454.837L501.174,455.073L500.946,455.308L500.715,455.544L500.483,455.779L500.248,456.013L500.01,456.248L499.771,456.482L499.529,456.715L499.285,456.949L499.039,457.182L498.791,457.414L498.54,457.647L498.287,457.879L498.032,458.111L497.775,458.342L497.515,458.573L497.254,458.804L496.99,459.035L496.724,459.265L496.455,459.495L496.185,459.724L495.912,459.954L495.638,460.182L495.361,460.411L495.081,460.639L494.8,460.867L494.517,461.095L494.231,461.322L493.943,461.549L493.653,461.775L493.361,462.001L493.067,462.227L492.771,462.453L492.472,462.678L492.172,462.903L491.869,463.127L491.564,463.351L491.257,463.575L490.948,463.798L490.637,464.021L490.324,464.244L490.008,464.467L489.691,464.689L489.371,464.91L489.049,465.132L488.726,465.352L488.4,465.573L488.072,465.793L487.742,466.013L487.41,466.233L487.076,466.452L486.739,466.67L486.401,466.889L486.061,467.107L485.719,467.324L485.374,467.542L485.028,467.759L484.679,467.975L484.329,468.191L483.976,468.407L483.622,468.623L483.265,468.838L482.906,469.052L482.546,469.266L482.183,469.48L481.818,469.694L481.452,469.907L481.083,470.12L480.712,470.332L480.34,470.544L479.965,470.755L479.589,470.967L479.21,471.177L478.829,471.388L478.447,471.598L478.062,471.807L477.676,472.017L477.288,472.225L476.897,472.434L476.505,472.642L476.11,472.849L475.714,473.057L475.316,473.263L474.916,473.47L474.514,473.676L474.11,473.881L473.704,474.086L473.296,474.291L472.887,474.496L472.475,474.699L472.061,474.903L471.646,475.106L471.229,475.309L470.809,475.511L470.388,475.713L469.965,475.914L469.54,476.115L469.113,476.316L468.685,476.516L468.254,476.716L467.822,476.915L467.388,477.114L466.951,477.312L466.513,477.51L466.074,477.708L465.632,477.905L465.188,478.102L464.743,478.298L464.296,478.494L463.847,478.689L463.396,478.884L462.943,479.079L462.489,479.273L462.032,479.467L461.574,479.66L461.114,479.853L460.652,480.045L460.189,480.237L459.723,480.428L459.256,480.619L458.787,480.81L458.316,481L457.844,481.189L457.37,481.378L456.893,481.567L456.416,481.755L455.936,481.943L455.455,482.13L454.971,482.317L454.487,482.504L454,482.69L453.511,482.875L453.021,483.06L452.529,483.245L452.036,483.429L451.54,483.612L451.043,483.795L450.545,483.978L450.044,484.16L449.542,484.342L449.038,484.523L448.532,484.704L448.025,484.884L447.516,485.064L447.005,485.243L446.493,485.422L445.979,485.601L445.463,485.778L444.945,485.956L444.426,486.133L443.905,486.309L443.383,486.485L442.858,486.66L442.333,486.835L441.805,487.01L441.276,487.184L440.745,487.357L440.213,487.53L439.679,487.703L439.143,487.875L438.606,488.046L438.067,488.217L437.526,488.388L436.984,488.557L436.44,488.727L435.895,488.896L435.347,489.064L434.799,489.232L434.249,489.4L433.697,489.566L433.143,489.733L432.588,489.899L432.032,490.064L431.473,490.229L430.914,490.393L430.352,490.557L429.789,490.72L429.225,490.883L428.659,491.045L428.091,491.207L427.522,491.368L426.951,491.529L426.379,491.689L425.805,491.849L425.23,492.008L424.653,492.166L424.074,492.324L423.494,492.482L422.913,492.639L422.33,492.795L421.746,492.951L421.16,493.106L420.572,493.261L419.983,493.415L419.392,493.569L418.8,493.722L418.207,493.875L417.612,494.027L417.016,494.179L416.418,494.33L415.818,494.48L415.217,494.63L414.615,494.779L414.011,494.928L413.406,495.076L412.799,495.224L412.191,495.371L411.581,495.518L410.97,495.664L410.358,495.809L409.744,495.954L409.128,496.098L408.511,496.242L407.893,496.385L407.273,496.528L406.652,496.67L406.03,496.811L405.406,496.952L404.781,497.092L404.154,497.232L403.526,497.371L402.896,497.51L402.266,497.648L401.633,497.785L401,497.922L400.365,498.059L399.728,498.194L399.09,498.329L398.451,498.464L397.811,498.598L397.169,498.731L396.526,498.864L395.881,498.996L395.235,499.128L394.588,499.259L393.94,499.389L393.29,499.519L392.638,499.648L391.986,499.777L391.332,499.905L390.677,500.033L390.02,500.159L389.362,500.286L388.703,500.411L388.043,500.536L387.381,500.661L386.718,500.785L386.054,500.908L385.388,501.03L384.721,501.152L384.053,501.274L383.384,501.394L382.713,501.515L382.041,501.634L381.368,501.753L380.693,501.871L380.018,501.989L379.341,502.106L378.662,502.223L377.983,502.338L377.302,502.454L376.62,502.568L375.937,502.682L375.253,502.796L374.567,502.908L373.88,503.02L373.192,503.132L372.503,503.243L371.812,503.353L371.121,503.462L370.428,503.571L369.734,503.679L369.038,503.787L368.342,503.894L367.644,504L366.945,504.106L366.245,504.211L365.544,504.316L364.842,504.419L364.138,504.522L363.434,504.625L362.728,504.727L362.021,504.828L361.313,504.928L360.603,505.028L359.893,505.128L359.181,505.226L358.469,505.324L357.755,505.421L357.04,505.518L356.324,505.614L355.607,505.709L354.889,505.804L354.169,505.898L353.449,505.991L352.727,506.083L352.004,506.175L351.281,506.267L350.556,506.357L349.83,506.447L349.103,506.536L348.375,506.625L347.645,506.713L346.915,506.8L346.184,506.887L345.451,506.973L344.718,507.058L343.983,507.142L343.248,507.226L342.511,507.309L341.774,507.392L341.035,507.474L340.295,507.555L339.555,507.635L338.813,507.715L338.07,507.794L337.326,507.872L336.581,507.95L335.836,508.027L335.089,508.103L334.341,508.178L333.592,508.253L332.842,508.327L332.091,508.401L331.34,508.474L330.587,508.546L329.833,508.617L329.078,508.688L328.323,508.757L327.566,508.827L326.808,508.895L326.05,508.963L325.29,509.03L324.53,509.096L323.768,509.162L323.006,509.227L322.242,509.291L321.478,509.355L320.713,509.418L319.947,509.48L319.18,509.541L318.412,509.602L317.643,509.661L316.873,509.721L316.102,509.779L315.331,509.837L314.558,509.894L313.785,509.95L313.011,510.005L312.235,510.06L311.459,510.114L310.682,510.168L309.904,510.22L309.126,510.272L308.346,510.323L307.566,510.373L306.784,510.423L306.002,510.472L305.219,510.52L304.435,510.567L303.651,510.614L302.865,510.66L302.079,510.705L301.292,510.75L300.504,510.793L299.715,510.836L298.925,510.878L298.135,510.92L297.343,510.96L296.551,511L295.758,511.039L294.964,511.078L294.17,511.115L293.375,511.152L292.578,511.188L291.782,511.223L290.984,511.258L290.185,511.292L289.386,511.325L288.586,511.357L287.785,511.388L286.984,511.419L286.182,511.449L285.379,511.478L284.575,511.506L283.77,511.534L282.965,511.561L282.159,511.587L281.352,511.612L280.545,511.636L279.736,511.66L278.928,511.683L278.118,511.705L277.308,511.726L276.496,511.747L275.685,511.767L274.872,511.785L274.059,511.804L273.245,511.821L272.431,511.838L271.615,511.853L270.799,511.868L269.983,511.882L269.165,511.896L268.347,511.908L267.529,511.92L266.709,511.931L265.89,511.941L265.069,511.951L264.248,511.959L263.426,511.967L262.603,511.974L261.78,511.98L260.956,511.985L260.132,511.99L259.307,511.993L258.481,511.996L257.655,511.998L256.828,512L256,512L255.172,512L254.345,511.998L253.519,511.996L252.693,511.993L251.868,511.99L251.044,511.985L250.22,511.98L249.397,511.974L248.574,511.967L247.752,511.959L246.931,511.951L246.11,511.941L245.291,511.931L244.471,511.92L243.653,511.908L242.835,511.896L242.017,511.882L241.201,511.868L240.385,511.853L239.569,511.838L238.755,511.821L237.941,511.804L237.128,511.785L236.315,511.767L235.504,511.747L234.692,511.726L233.882,511.705L233.072,511.683L232.264,511.66L231.455,511.636L230.648,511.612L229.841,511.587L229.035,511.561L228.23,511.534L227.425,511.506L226.621,511.478L225.818,511.449L225.016,511.419L224.215,511.388L223.414,511.357L222.614,511.325L221.815,511.292L221.016,511.258L220.218,511.223L219.422,511.188L218.625,511.152L217.83,511.115L217.036,511.078L216.242,511.039L215.449,511L214.657,510.96L213.865,510.92L213.075,510.878L212.285,510.836L211.496,510.793L210.708,510.75L209.921,510.705L209.135,510.66L208.349,510.614L207.565,510.567L206.781,510.52L205.998,510.472L205.216,510.423L204.434,510.373L203.654,510.323L202.874,510.272L202.096,510.22L201.318,510.168L200.541,510.114L199.765,510.06L198.989,510.005L198.215,509.95L197.442,509.894L196.669,509.837L195.898,509.779L195.127,509.721L194.357,509.661L193.588,509.602L192.82,509.541L192.053,509.48L191.287,509.418L190.522,509.355L189.758,509.291L188.994,509.227L188.232,509.162L187.47,509.096L186.71,509.03L185.95,508.963L185.192,508.895L184.434,508.827L183.677,508.757L182.922,508.688L182.167,508.617L181.413,508.546L180.66,508.474L179.909,508.401L179.158,508.327L178.408,508.253L177.659,508.178L176.911,508.103L176.164,508.027L175.419,507.95L174.674,507.872L173.93,507.794L173.187,507.715L172.445,507.635L171.705,507.555L170.965,507.474L170.226,507.392L169.489,507.309L168.752,507.226L168.017,507.142L167.282,507.058L166.549,506.973L165.816,506.887L165.085,506.8L164.355,506.713L163.625,506.625L162.897,506.536L162.17,506.447L161.444,506.357L160.719,506.267L159.996,506.175L159.273,506.083L158.551,505.991L157.831,505.898L157.111,505.804L156.393,505.709L155.676,505.614L154.96,505.518L154.245,505.421L153.531,505.324L152.819,505.226L152.107,505.128L151.397,505.028L150.687,504.928L149.979,504.828L149.272,504.727L148.566,504.625L147.862,504.522L147.158,504.419L146.456,504.316L145.755,504.211L145.055,504.106L144.356,504L143.658,503.894L142.962,503.787L142.266,503.679L141.572,503.571L140.879,503.462L140.188,503.353L139.497,503.243L138.808,503.132L138.12,503.02L137.433,502.908L136.747,502.796L136.063,502.682L135.38,502.568L134.698,502.454L134.017,502.338L133.338,502.223L132.659,502.106L131.982,501.989L131.307,501.871L130.632,501.753L129.959,501.634L129.287,501.515L128.616,501.394L127.947,501.274L127.279,501.152L126.612,501.03L125.946,500.908L125.282,500.785L124.619,500.661L123.957,500.536L123.297,500.411L122.638,500.286L121.98,500.159L121.323,500.033L120.668,499.905L120.014,499.777L119.362,499.648L118.71,499.519L118.06,499.389L117.412,499.259L116.765,499.128L116.119,498.996L115.474,498.864L114.831,498.731L114.189,498.598L113.549,498.464L112.91,498.329L112.272,498.194L111.635,498.059L111,497.922L110.367,497.785L109.734,497.648L109.104,497.51L108.474,497.371L107.846,497.232L107.219,497.092L106.594,496.952L105.97,496.811L105.348,496.67L104.727,496.528L104.107,496.385L103.489,496.242L102.872,496.098L102.256,495.954L101.642,495.809L101.03,495.664L100.419,495.518L99.809,495.371L99.201,495.224L98.594,495.076L97.989,494.928L97.385,494.779L96.783,494.63L96.182,494.48L95.582,494.33L94.984,494.179L94.388,494.027L93.793,493.875L93.2,493.722L92.608,493.569L92.017,493.415L91.428,493.261L90.84,493.106L90.254,492.951L89.67,492.795L89.087,492.639L88.506,492.482L87.926,492.324L87.347,492.166L86.77,492.008L86.195,491.849L85.621,491.689L85.049,491.529L84.478,491.368L83.909,491.207L83.341,491.045L82.775,490.883L82.211,490.72L81.648,490.557L81.086,490.393L80.527,490.229L79.968,490.064L79.412,489.899L78.857,489.733L78.303,489.566L77.751,489.4L77.201,489.232L76.653,489.064L76.105,488.896L75.56,488.727L75.016,488.557L74.474,488.388L73.933,488.217L73.394,488.046L72.857,487.875L72.321,487.703L71.787,487.53L71.255,487.357L70.724,487.184L70.195,487.01L69.667,486.835L69.142,486.66L68.617,486.485L68.095,486.309L67.574,486.133L67.055,485.956L66.537,485.778L66.021,485.601L65.507,485.422L64.995,485.243L64.484,485.064L63.975,484.884L63.468,484.704L62.962,484.523L62.458,484.342L61.956,484.16L61.455,483.978L60.957,483.795L60.46,483.612L59.964,483.429L59.471,483.245L58.979,483.06L58.489,482.875L58,482.69L57.513,482.504L57.029,482.317L56.545,482.13L56.064,481.943L55.584,481.755L55.107,481.567L54.63,481.378L54.156,481.189L53.684,481L53.213,480.81L52.744,480.619L52.277,480.428L51.811,480.237L51.348,480.045L50.886,479.853L50.426,479.66L49.968,479.467L49.511,479.273L49.057,479.079L48.604,478.884L48.153,478.689L47.704,478.494L47.257,478.298L46.812,478.102L46.368,477.905L45.926,477.708L45.487,477.51L45.049,477.312L44.612,477.114L44.178,476.915L43.746,476.716L43.315,476.516L42.887,476.316L42.46,476.115L42.035,475.914L41.612,475.713L41.191,475.511L40.771,475.309L40.354,475.106L39.939,474.903L39.525,474.699L39.113,474.496L38.704,474.291L38.296,474.086L37.89,473.881L37.486,473.676L37.084,473.47L36.684,473.263L36.286,473.057L35.89,472.849L35.495,472.642L35.103,472.434L34.712,472.225L34.324,472.017L33.938,471.807L33.553,471.598L33.171,471.388L32.79,471.177L32.411,470.967L32.035,470.755L31.66,470.544L31.288,470.332L30.917,470.12L30.548,469.907L30.182,469.694L29.817,469.48L29.454,469.266L29.094,469.052L28.735,468.838L28.378,468.623L28.024,468.407L27.671,468.191L27.321,467.975L26.972,467.759L26.626,467.542L26.281,467.324L25.939,467.107L25.599,466.889L25.261,466.67L24.924,466.452L24.59,466.233L24.258,466.013L23.928,465.793L23.6,465.573L23.274,465.352L22.951,465.132L22.629,464.91L22.309,464.689L21.992,464.467L21.676,464.244L21.363,464.021L21.052,463.798L20.743,463.575L20.436,463.351L20.131,463.127L19.828,462.903L19.528,462.678L19.229,462.453L18.933,462.227L18.639,462.001L18.347,461.775L18.057,461.549L17.769,461.322L17.483,461.095L17.2,460.867L16.919,460.639L16.639,460.411L16.362,460.182L16.088,459.954L15.815,459.724L15.545,459.495L15.276,459.265L15.01,459.035L14.746,458.804L14.485,458.573L14.225,458.342L13.968,458.111L13.713,457.879L13.46,457.647L13.209,457.414L12.961,457.182L12.715,456.949L12.471,456.715L12.229,456.482L11.99,456.248L11.752,456.013L11.517,455.779L11.285,455.544L11.054,455.308L10.826,455.073L10.6,454.837L10.376,454.601L10.155,454.364L9.935,454.128L9.718,453.891L9.504,453.653L9.291,453.416L9.081,453.178L8.874,452.939L8.668,452.701L8.465,452.462L8.264,452.223L8.065,451.983L7.869,451.744L7.675,451.504L7.484,451.263L7.294,451.023L7.107,450.782L6.923,450.541L6.74,450.299L6.56,450.058L6.383,449.816L6.207,449.574L6.034,449.331L5.864,449.088L5.695,448.845L5.53,448.602L5.366,448.358L5.205,448.114L5.046,447.87L4.89,447.626L4.736,447.381L4.584,447.136L4.435,446.891L4.288,446.645L4.144,446.4L4.001,446.154L3.862,445.907L3.725,445.661L3.59,445.414L3.457,445.167L3.327,444.92L3.2,444.672L3.075,444.424L2.952,444.176L2.832,443.928L2.714,443.68L2.598,443.431L2.486,443.182L2.375,442.932L2.267,442.683L2.161,442.433L2.058,442.183L1.958,441.933L1.86,441.682L1.764,441.432L1.671,441.181L1.58,440.93L1.492,440.678L1.406,440.427L1.323,440.175L1.242,439.923L1.164,439.67L1.088,439.418L1.015,439.165L0.944,438.912L0.876,438.659L0.81,438.405L0.747,438.151L0.686,437.898L0.628,437.643L0.573,437.389L0.52,437.135L0.469,436.88L0.422,436.625L0.376,436.37L0.333,436.114L0.293,435.859L0.255,435.603L0.22,435.347L0.188,435.09L0.158,434.834L0.131,434.577L0.106,434.321L0.084,434.063L0.064,433.806L0.047,433.549L0.033,433.291L0.021,433.033L0.012,432.775L0.005,432.517L0.001,432.259L0,432L0.001,431.741L0.005,431.483L0.012,431.225L0.021,430.967L0.033,430.709L0.047,430.451L0.064,430.194L0.084,429.937L0.106,429.679L0.131,429.423L0.158,429.166L0.188,428.91L0.22,428.653L0.255,428.397L0.293,428.141L0.333,427.886L0.376,427.63L0.422,427.375L0.469,427.12L0.52,426.865L0.573,426.611L0.628,426.357L0.686,426.102L0.747,425.849L0.81,425.595L0.876,425.341L0.944,425.088L1.015,424.835L1.088,424.582L1.164,424.33L1.242,424.077L1.323,423.825L1.406,423.573L1.492,423.322L1.58,423.07L1.671,422.819L1.764,422.568L1.86,422.318L1.958,422.067L2.058,421.817L2.161,421.567L2.267,421.317L2.375,421.068L2.486,420.818L2.598,420.569L2.714,420.32L2.832,420.072L2.952,419.824L3.075,419.576L3.2,419.328L3.327,419.08L3.457,418.833L3.59,418.586L3.725,418.339L3.862,418.093L4.001,417.846L4.144,417.6L4.288,417.355L4.435,417.109L4.584,416.864L4.736,416.619L4.89,416.374L5.046,416.13L5.205,415.886L5.366,415.642L5.53,415.398L5.695,415.155L5.864,414.912L6.034,414.669L6.207,414.426L6.383,414.184L6.56,413.942L6.74,413.701L6.923,413.459L7.107,413.218L7.294,412.977L7.484,412.737L7.675,412.496L7.869,412.256L8.065,412.017L8.264,411.777L8.465,411.538L8.668,411.299L8.874,411.061L9.081,410.822L9.291,410.584L9.504,410.347L9.718,410.109L9.935,409.872L10.155,409.636L10.376,409.399L10.6,409.163L10.826,408.927L11.054,408.692L11.285,408.456L11.517,408.221L11.752,407.987L11.99,407.752L12.229,407.518L12.471,407.285L12.715,407.051L12.961,406.818L13.209,406.586L13.46,406.353L13.713,406.121L13.968,405.889L14.225,405.658L14.485,405.427L14.746,405.196L15.01,404.965L15.276,404.735L15.545,404.505L15.815,404.276L16.088,404.046L16.362,403.818L16.639,403.589L16.919,403.361L17.2,403.133L17.483,402.905L17.769,402.678L18.057,402.451L18.347,402.225L18.639,401.999L18.933,401.773L19.229,401.547L19.528,401.322L19.828,401.097L20.131,400.873L20.436,400.649L20.743,400.425L21.052,400.202L21.363,399.979L21.676,399.756L21.992,399.533L22.309,399.311L22.629,399.09L22.951,398.868L23.274,398.648L23.6,398.427L23.928,398.207L24.258,397.987L24.59,397.767L24.924,397.548L25.261,397.33L25.599,397.111L25.939,396.893L26.281,396.676L26.626,396.458L26.972,396.241L27.321,396.025L27.671,395.809L28.024,395.593L28.378,395.377L28.735,395.162L29.094,394.948L29.454,394.734L29.817,394.52L30.182,394.306L30.548,394.093L30.917,393.88L31.288,393.668L31.66,393.456L32.035,393.245L32.411,393.033L32.79,392.823L33.171,392.612L33.553,392.402L33.938,392.193L34.324,391.983L34.712,391.775L35.103,391.566L35.495,391.358L35.89,391.151L36.286,390.943L36.684,390.737L37.084,390.53L37.486,390.324L37.89,390.119L38.296,389.914L38.704,389.709L39.113,389.504L39.525,389.301L39.939,389.097L40.354,388.894L40.771,388.691L41.191,388.489L41.612,388.287L42.035,388.086L42.46,387.885L42.887,387.684L43.315,387.484L43.746,387.284L44.178,387.085L44.612,386.886L45.049,386.688L45.487,386.49L45.926,386.292L46.368,386.095L46.812,385.898L47.257,385.702L47.704,385.506L48.153,385.311L48.604,385.116L49.057,384.921L49.511,384.727L49.968,384.533L50.426,384.34L50.886,384.147L51.348,383.955L51.811,383.763L52.277,383.572L52.744,383.381L53.213,383.19L53.684,383L54.156,382.811L54.63,382.622L55.107,382.433L55.584,382.245L56.064,382.057L56.545,381.87L57.029,381.683L57.513,381.496L58,381.31L58.489,381.125L58.979,380.94L59.471,380.755L59.964,380.571L60.46,380.388L60.957,380.205L61.455,380.022L61.956,379.84L62.458,379.658L62.962,379.477L63.468,379.296L63.975,379.116L64.484,378.936L64.995,378.757L65.507,378.578L66.021,378.399L66.537,378.222L67.055,378.044L67.574,377.867L68.095,377.691L68.617,377.515L69.142,377.34L69.667,377.165L70.195,376.99L70.724,376.816L71.255,376.643L71.787,376.47L72.321,376.297L72.857,376.125L73.394,375.954L73.933,375.783L74.474,375.612L75.016,375.443L75.56,375.273L76.105,375.104L76.653,374.936L77.201,374.768L77.751,374.6L78.303,374.434L78.857,374.267L79.412,374.101L79.968,373.936L80.527,373.771L81.086,373.607L81.648,373.443L82.211,373.28L82.775,373.117L83.341,372.955L83.909,372.793L84.478,372.632L85.049,372.471L85.621,372.311L86.195,372.151L86.77,371.992L87.347,371.834L87.926,371.676L88.506,371.518L89.087,371.361L89.67,371.205L90.254,371.049L90.84,370.894L91.428,370.739L92.017,370.585L92.608,370.431L93.2,370.278L93.793,370.125L94.388,369.973L94.984,369.821L95.582,369.67L96.182,369.52L96.783,369.37L97.385,369.221L97.989,369.072L98.594,368.924L99.201,368.776L99.809,368.629L100.419,368.482L101.03,368.336L101.642,368.191L102.256,368.046L102.872,367.902L103.489,367.758L104.107,367.615L104.727,367.472L105.348,367.33L105.97,367.189L106.594,367.048L107.219,366.908L107.846,366.768L108.474,366.629L109.104,366.49L109.734,366.352L110.367,366.215L111,366.078L111.635,365.941L112.272,365.806L112.91,365.671L113.549,365.536L114.189,365.402L114.831,365.269L115.474,365.136L116.119,365.004L116.765,364.872L117.412,364.741L118.06,364.611L118.71,364.481L119.362,364.352L120.014,364.223L120.668,364.095L121.323,363.967L121.98,363.841L122.638,363.714L123.297,363.589L123.957,363.464L124.619,363.339L125.282,363.215L125.946,363.092L126.612,362.97L127.279,362.848L127.947,362.726L128.616,362.606L129.287,362.485L129.959,362.366L130.632,362.247L131.307,362.129L131.982,362.011L132.659,361.894L133.338,361.777L134.017,361.662L134.698,361.546L135.38,361.432L136.063,361.318L136.747,361.204L137.433,361.092L138.12,360.98L138.808,360.868L139.497,360.757L140.188,360.647L140.879,360.538L141.572,360.429L142.266,360.321L142.962,360.213L143.658,360.106L144.356,360L145.055,359.894L145.755,359.789L146.456,359.684L147.158,359.581L147.862,359.478L148.566,359.375L149.272,359.273L149.979,359.172L150.687,359.072L151.397,358.972L152.107,358.872L152.819,358.774L153.531,358.676L154.245,358.579L154.96,358.482L155.676,358.386L156.393,358.291L157.111,358.196L157.831,358.102L158.551,358.009L159.273,357.917L159.996,357.825L160.719,357.733L161.444,357.643L162.17,357.553L162.897,357.464L163.625,357.375L164.355,357.287L165.085,357.2L165.816,357.113L166.549,357.027L167.282,356.942L168.017,356.858L168.752,356.774L169.489,356.691L170.226,356.608L170.965,356.526L171.705,356.445L172.445,356.365L173.187,356.285L173.93,356.206L174.674,356.128L175.419,356.05L176.164,355.973L176.911,355.897L177.659,355.822L178.408,355.747L179.158,355.673L179.909,355.599L180.66,355.526L181.413,355.454L182.167,355.383L182.922,355.312L183.677,355.243L184.434,355.173L185.192,355.105L185.95,355.037L186.71,354.97L187.47,354.904L188.232,354.838L188.994,354.773L189.758,354.709L190.522,354.645L191.287,354.582L192.053,354.52L192.82,354.459L193.588,354.398L194.357,354.339L195.127,354.279L195.898,354.221L196.669,354.163L197.442,354.106L198.215,354.05L198.989,353.995L199.765,353.94L200.541,353.886L201.318,353.832L202.096,353.78L202.874,353.728L203.654,353.677L204.434,353.627L205.216,353.577L205.998,353.528L206.781,353.48L207.565,353.433L208.349,353.386L209.135,353.34L209.921,353.295L210.708,353.25L211.496,353.207L212.285,353.164L213.075,353.122L213.865,353.08L214.657,353.04L215.449,353L216.242,352.961L217.036,352.922L217.83,352.885L218.625,352.848L219.422,352.812L220.218,352.777L221.016,352.742L221.815,352.708L222.614,352.675L223.414,352.643L224.215,352.612L225.016,352.581L225.818,352.551L226.621,352.522L227.425,352.494L228.23,352.466L229.035,352.439L229.841,352.413L230.648,352.388L231.455,352.364L232.264,352.34L233.072,352.317L233.882,352.295L234.692,352.274L235.504,352.253L236.315,352.233L237.128,352.215L237.941,352.196L238.755,352.179L239.569,352.162L240.385,352.147L241.201,352.132L242.017,352.118L242.835,352.104L243.653,352.092L244.471,352.08L245.291,352.069L246.11,352.059L246.931,352.049L247.752,352.041L248.574,352.033L249.397,352.026L250.22,352.02L251.044,352.015L251.868,352.01L252.693,352.007L253.519,352.004L254.345,352.002L255.172,352L256,352L256.828,352ZM255.261,397.715L254.523,397.716L253.786,397.718L253.049,397.72L252.312,397.723L251.576,397.727L250.841,397.732L250.107,397.738L249.374,397.744L248.64,397.751L247.908,397.758L247.176,397.767L246.445,397.776L245.714,397.786L244.985,397.796L244.256,397.807L243.527,397.819L242.8,397.832L242.072,397.845L241.346,397.859L240.62,397.874L239.895,397.889L239.171,397.906L238.447,397.922L237.725,397.94L237.003,397.958L236.281,397.977L235.561,397.997L234.841,398.017L234.122,398.038L233.403,398.06L232.685,398.082L231.968,398.106L231.253,398.129L230.537,398.154L229.822,398.179L229.109,398.205L228.396,398.232L227.684,398.259L226.972,398.287L226.261,398.315L225.551,398.345L224.842,398.375L224.134,398.405L223.427,398.437L222.72,398.469L222.015,398.501L221.31,398.535L220.605,398.569L219.902,398.603L219.199,398.639L218.498,398.675L217.797,398.711L217.097,398.749L216.399,398.787L215.7,398.825L215.003,398.865L214.307,398.905L213.611,398.945L212.917,398.987L212.223,399.029L211.53,399.071L210.838,399.114L210.147,399.158L209.457,399.203L208.768,399.248L208.08,399.294L207.392,399.34L206.706,399.387L206.021,399.435L205.336,399.484L204.652,399.533L203.97,399.582L203.289,399.632L202.608,399.683L201.928,399.735L201.249,399.787L200.572,399.84L199.895,399.893L199.219,399.947L198.544,400.002L197.871,400.057L197.198,400.113L196.526,400.17L195.855,400.227L195.185,400.285L194.517,400.343L193.85,400.402L193.183,400.461L192.517,400.522L191.852,400.582L191.189,400.644L190.526,400.706L189.865,400.768L189.205,400.831L188.545,400.895L187.887,400.96L187.231,401.025L186.574,401.09L185.92,401.156L185.266,401.223L184.613,401.29L183.961,401.358L183.311,401.427L182.661,401.496L182.013,401.566L181.366,401.636L180.72,401.707L180.076,401.778L179.431,401.85L178.789,401.922L178.148,401.996L177.507,402.069L176.868,402.144L176.23,402.218L175.593,402.294L174.958,402.37L174.324,402.446L173.69,402.523L173.059,402.601L172.428,402.679L171.799,402.757L171.17,402.837L170.543,402.916L169.917,402.997L169.292,403.078L168.669,403.159L168.046,403.241L167.426,403.324L166.806,403.406L166.187,403.49L165.57,403.574L164.954,403.659L164.339,403.744L163.726,403.83L163.115,403.916L162.503,404.003L161.893,404.09L161.286,404.177L160.679,404.266L160.073,404.354L159.469,404.444L158.866,404.534L158.264,404.624L157.663,404.715L157.065,404.806L156.467,404.898L155.871,404.99L155.276,405.083L154.682,405.176L154.091,405.27L153.5,405.364L152.91,405.459L152.322,405.554L151.735,405.65L151.15,405.746L150.566,405.843L149.984,405.94L149.403,406.038L148.823,406.136L148.244,406.234L147.668,406.333L147.093,406.433L146.519,406.533L145.946,406.633L145.375,406.734L144.806,406.835L144.238,406.937L143.671,407.039L143.106,407.142L142.542,407.245L141.98,407.349L141.419,407.453L140.86,407.557L140.302,407.662L139.746,407.767L139.191,407.873L138.638,407.979L138.086,408.086L137.536,408.193L136.987,408.3L136.44,408.408L135.895,408.516L135.352,408.625L134.809,408.734L134.267,408.844L133.729,408.953L133.191,409.064L132.655,409.174L132.12,409.285L131.588,409.397L131.056,409.509L130.527,409.621L129.999,409.734L129.472,409.847L128.947,409.96L128.424,410.074L127.903,410.188L127.382,410.302L126.864,410.417L126.347,410.532L125.833,410.648L125.319,410.764L124.808,410.88L124.298,410.997L123.79,411.114L123.283,411.231L122.778,411.349L122.275,411.467L121.774,411.585L121.275,411.703L120.776,411.823L120.279,411.942L119.785,412.061L119.293,412.181L118.802,412.302L118.313,412.422L117.825,412.543L117.339,412.664L116.855,412.786L116.373,412.907L115.893,413.029L115.414,413.152L114.937,413.274L114.463,413.397L113.99,413.52L113.517,413.644L113.048,413.767L112.581,413.891L112.114,414.016L111.651,414.14L111.188,414.265L110.728,414.39L110.27,414.515L109.814,414.641L109.359,414.766L108.906,414.892L108.455,415.019L108.006,415.145L107.559,415.272L107.113,415.398L106.671,415.525L106.229,415.653L105.789,415.78L105.352,415.908L104.916,416.036L104.483,416.164L104.051,416.292L103.621,416.42L103.193,416.549L102.768,416.678L102.344,416.807L101.923,416.936L101.503,417.065L101.084,417.195L100.668,417.324L100.255,417.454L99.843,417.583L99.434,417.713L99.025,417.844L98.62,417.974L98.216,418.104L97.815,418.235L97.415,418.365L97.018,418.496L96.623,418.627L96.228,418.758L95.838,418.888L95.449,419.019L95.061,419.151L94.677,419.282L94.294,419.413L93.914,419.544L93.534,419.676L93.158,419.807L92.783,419.938L92.412,420.07L92.042,420.201L91.673,420.333L91.308,420.464L90.944,420.596L90.583,420.727L90.224,420.859L89.867,420.99L89.512,421.122L89.16,421.253L88.809,421.385L88.461,421.516L88.115,421.648L87.771,421.779L87.43,421.91L87.091,422.041L86.754,422.172L86.419,422.304L86.086,422.435L85.756,422.566L85.428,422.696L85.103,422.827L84.778,422.958L84.458,423.088L84.139,423.218L83.822,423.349L83.508,423.478L83.196,423.608L82.887,423.738L82.58,423.867L82.274,423.997L81.972,424.126L81.672,424.255L81.374,424.384L81.078,424.513L80.785,424.641L80.495,424.769L80.206,424.897L79.92,425.025L79.636,425.152L79.355,425.28L79.076,425.406L78.8,425.533L78.525,425.659L78.253,425.785L77.984,425.911L77.717,426.037L77.453,426.161L77.191,426.286L76.931,426.411L76.674,426.535L76.419,426.659L76.167,426.782L75.917,426.905L75.67,427.027L75.424,427.15L75.182,427.272L74.943,427.393L74.705,427.513L74.47,427.634L74.237,427.754L74.007,427.874L73.779,427.993L73.554,428.111L73.332,428.229L73.111,428.347L72.894,428.464L72.678,428.58L72.466,428.696L72.256,428.811L72.048,428.926L71.843,429.04L71.64,429.154L71.44,429.267L71.242,429.38L71.047,429.491L70.855,429.602L70.665,429.713L70.477,429.823L70.292,429.932L70.109,430.04L69.93,430.148L69.752,430.255L69.577,430.361L69.405,430.467L69.234,430.572L69.067,430.676L68.902,430.779L68.74,430.881L68.58,430.983L68.422,431.084L68.268,431.184L68.116,431.283L67.966,431.381L67.818,431.479L67.673,431.575L67.531,431.671L67.391,431.766L67.254,431.859L67.119,431.952L67.05,432L67.118,432.047L67.254,432.141L67.391,432.234L67.531,432.329L67.674,432.425L67.818,432.521L67.966,432.619L68.115,432.717L68.268,432.816L68.423,432.916L68.58,433.017L68.74,433.118L68.902,433.221L69.068,433.324L69.234,433.428L69.405,433.533L69.578,433.639L69.752,433.745L69.93,433.852L70.109,433.96L70.292,434.068L70.477,434.177L70.664,434.287L70.854,434.397L71.047,434.509L71.243,434.621L71.441,434.733L71.639,434.845L71.843,434.96L72.048,435.074L72.256,435.189L72.467,435.304L72.678,435.42L72.894,435.537L73.111,435.653L73.331,435.771L73.555,435.889L73.78,436.008L74.006,436.126L74.237,436.246L74.469,436.366L74.705,436.487L74.943,436.608L75.183,436.729L75.425,436.85L75.67,436.972L75.917,437.095L76.167,437.218L76.419,437.341L76.675,437.465L76.931,437.589L77.19,437.713L77.453,437.838L77.718,437.964L77.985,438.089L78.254,438.215L78.526,438.341L78.799,438.467L79.076,438.594L79.355,438.721L79.636,438.848L79.919,438.975L80.205,439.102L80.495,439.231L80.785,439.359L81.079,439.487L81.374,439.616L81.671,439.745L81.972,439.874L82.274,440.003L82.579,440.132L82.887,440.262L83.196,440.392L83.508,440.522L83.823,440.652L84.139,440.782L84.459,440.912L84.779,441.043L85.102,441.173L85.427,441.303L85.756,441.435L86.086,441.565L86.419,441.696L86.754,441.828L87.09,441.958L87.429,442.09L87.772,442.221L88.115,442.352L88.462,442.484L88.809,442.615L89.158,442.746L89.512,442.878L89.867,443.01L90.223,443.141L90.583,443.273L90.945,443.404L91.308,443.536L91.673,443.667L92.041,443.799L92.411,443.93L92.785,444.062L93.159,444.194L93.534,444.324L93.912,444.456L94.294,444.587L94.677,444.719L95.062,444.85L95.449,444.981L95.838,445.112L96.229,445.243L96.621,445.373L97.017,445.504L97.415,445.635L97.815,445.766L98.216,445.896L98.62,446.026L99.026,446.157L99.433,446.286L99.843,446.416L100.255,446.546L100.669,446.676L101.085,446.806L101.503,446.935L101.922,447.064L102.343,447.193L102.768,447.322L103.194,447.451L103.621,447.579L104.051,447.708L104.483,447.836L104.916,447.964L105.352,448.092L105.79,448.22L106.229,448.347L106.669,448.474L107.113,448.601L107.559,448.729L108.007,448.855L108.455,448.981L108.905,449.107L109.359,449.234L109.813,449.359L110.269,449.485L110.729,449.61L111.189,449.735L111.65,449.86L112.114,449.984L112.581,450.109L113.049,450.233L113.518,450.356L113.989,450.48L114.462,450.603L114.937,450.726L115.415,450.849L115.892,450.971L116.373,451.093L116.856,451.215L117.339,451.336L117.826,451.457L118.313,451.578L118.802,451.698L119.293,451.819L119.785,451.939L120.28,452.058L120.775,452.177L121.274,452.296L121.774,452.415L122.275,452.533L122.778,452.651L123.282,452.769L123.79,452.886L124.299,453.004L124.807,453.12L125.319,453.236L125.833,453.352L126.347,453.468L126.864,453.583L127.383,453.698L127.903,453.812L128.424,453.926L128.947,454.04L129.471,454.153L129.998,454.266L130.527,454.379L131.056,454.491L131.588,454.603L132.12,454.715L132.655,454.826L133.191,454.936L133.729,455.047L134.268,455.156L134.808,455.266L135.351,455.375L135.896,455.484L136.441,455.592L136.987,455.7L137.536,455.807L138.086,455.914L138.638,456.021L139.191,456.127L139.746,456.233L140.302,456.338L140.859,456.443L141.419,456.547L141.98,456.651L142.542,456.755L143.106,456.858L143.671,456.961L144.238,457.063L144.805,457.165L145.375,457.266L145.946,457.367L146.518,457.467L147.093,457.567L147.668,457.667L148.245,457.766L148.824,457.864L149.402,457.962L149.984,458.06L150.566,458.157L151.15,458.254L151.736,458.35L152.322,458.446L152.91,458.541L153.499,458.636L154.09,458.73L154.683,458.824L155.277,458.917L155.871,459.01L156.467,459.102L157.065,459.194L157.664,459.285L158.264,459.376L158.866,459.466L159.468,459.556L160.073,459.645L160.679,459.734L161.286,459.823L161.894,459.91L162.503,459.997L163.114,460.084L163.726,460.17L164.341,460.256L164.954,460.341L165.569,460.426L166.187,460.51L166.806,460.594L167.426,460.676L168.046,460.759L168.67,460.841L169.292,460.922L169.917,461.003L170.543,461.084L171.17,461.163L171.799,461.243L172.427,461.321L173.059,461.399L173.692,461.477L174.323,461.554L174.958,461.63L175.595,461.706L176.23,461.782L176.867,461.856L177.507,461.931L178.148,462.004L178.789,462.078L179.431,462.15L180.075,462.222L180.72,462.293L181.367,462.364L182.013,462.434L182.661,462.504L183.311,462.573L183.962,462.642L184.613,462.71L185.266,462.777L185.92,462.844L186.574,462.91L187.231,462.975L187.887,463.04L188.545,463.105L189.205,463.169L189.865,463.232L190.526,463.294L191.19,463.356L191.853,463.418L192.516,463.478L193.182,463.539L193.849,463.598L194.517,463.657L195.187,463.716L195.855,463.773L196.525,463.83L197.198,463.887L197.871,463.943L198.544,463.998L199.219,464.053L199.896,464.107L200.572,464.16L201.249,464.213L201.928,464.265L202.609,464.317L203.288,464.368L203.97,464.418L204.654,464.468L205.336,464.516L206.02,464.565L206.706,464.613L207.393,464.66L208.08,464.706L208.768,464.752L209.458,464.797L210.148,464.842L210.838,464.886L211.53,464.929L212.223,464.971L212.916,465.013L213.612,465.055L214.307,465.095L215.003,465.135L215.701,465.175L216.398,465.213L217.097,465.251L217.797,465.289L218.498,465.325L219.201,465.361L219.902,465.397L220.605,465.431L221.309,465.465L222.014,465.499L222.72,465.531L223.427,465.563L224.134,465.595L224.843,465.625L225.551,465.655L226.261,465.685L226.972,465.713L227.684,465.741L228.396,465.768L229.109,465.795L229.823,465.821L230.538,465.846L231.252,465.871L231.968,465.894L232.685,465.918L233.404,465.94L234.121,465.962L234.84,465.983L235.561,466.003L236.281,466.023L237.003,466.042L237.725,466.06L238.447,466.078L239.172,466.095L239.896,466.111L240.619,466.126L241.346,466.141L242.072,466.155L242.799,466.168L243.528,466.181L244.256,466.193L244.984,466.204L245.715,466.214L246.445,466.224L247.176,466.233L247.908,466.242L248.64,466.249L249.374,466.256L250.108,466.262L250.843,466.268L251.577,466.273L252.311,466.277L253.048,466.28L253.786,466.282L254.523,466.284L255.261,466.285L256,466.286L256.739,466.285L257.477,466.284L258.214,466.282L258.952,466.28L259.689,466.277L260.423,466.273L261.157,466.268L261.892,466.262L262.626,466.256L263.36,466.249L264.092,466.242L264.824,466.233L265.555,466.224L266.285,466.214L267.016,466.204L267.744,466.193L268.472,466.181L269.201,466.168L269.928,466.155L270.654,466.141L271.381,466.126L272.104,466.111L272.828,466.095L273.553,466.078L274.275,466.06L274.997,466.042L275.719,466.023L276.439,466.003L277.16,465.983L277.879,465.962L278.596,465.94L279.315,465.918L280.032,465.894L280.748,465.871L281.462,465.846L282.177,465.821L282.891,465.795L283.604,465.768L284.316,465.741L285.028,465.713L285.739,465.685L286.449,465.655L287.157,465.625L287.866,465.595L288.573,465.563L289.28,465.531L289.986,465.499L290.691,465.465L291.395,465.431L292.098,465.397L292.799,465.361L293.502,465.325L294.203,465.289L294.903,465.251L295.602,465.213L296.299,465.175L296.997,465.135L297.693,465.095L298.389,465.055L299.084,465.013L299.777,464.971L300.47,464.929L301.162,464.886L301.852,464.842L302.542,464.797L303.232,464.752L303.92,464.706L304.607,464.66L305.294,464.613L305.98,464.565L306.664,464.516L307.346,464.468L308.03,464.418L308.712,464.368L309.391,464.317L310.072,464.265L310.751,464.213L311.428,464.16L312.104,464.107L312.781,464.053L313.456,463.998L314.129,463.943L314.802,463.887L315.475,463.83L316.145,463.773L316.813,463.716L317.483,463.657L318.151,463.598L318.818,463.539L319.484,463.478L320.147,463.418L320.81,463.356L321.474,463.294L322.135,463.232L322.795,463.169L323.455,463.105L324.113,463.04L324.769,462.975L325.426,462.91L326.08,462.844L326.734,462.777L327.387,462.71L328.038,462.642L328.689,462.573L329.339,462.504L329.987,462.434L330.633,462.364L331.28,462.293L331.925,462.222L332.569,462.15L333.211,462.078L333.852,462.004L334.493,461.931L335.132,461.856L335.77,461.782L336.405,461.706L337.042,461.63L337.677,461.554L338.309,461.477L338.941,461.399L339.573,461.321L340.201,461.243L340.83,461.163L341.457,461.083L342.084,461.003L342.708,460.922L343.33,460.841L343.954,460.759L344.574,460.676L345.194,460.594L345.813,460.51L346.431,460.426L347.046,460.341L347.659,460.256L348.274,460.17L348.886,460.084L349.497,459.997L350.106,459.91L350.714,459.823L351.321,459.734L351.928,459.645L352.532,459.556L353.134,459.466L353.736,459.376L354.336,459.285L354.935,459.194L355.533,459.102L356.129,459.01L356.723,458.917L357.317,458.824L357.91,458.73L358.501,458.636L359.091,458.541L359.678,458.446L360.263,458.35L360.85,458.254L361.435,458.157L362.016,458.06L362.598,457.962L363.177,457.864L363.755,457.766L364.332,457.667L364.907,457.567L365.482,457.467L366.054,457.367L366.625,457.266L367.195,457.165L367.762,457.063L368.329,456.961L368.894,456.858L369.458,456.755L370.02,456.651L370.581,456.547L371.141,456.443L371.698,456.338L372.253,456.233L372.809,456.127L373.362,456.021L373.914,455.914L374.464,455.807L375.013,455.7L375.559,455.592L376.104,455.484L376.649,455.375L377.192,455.266L377.732,455.157L378.272,455.046L378.809,454.936L379.345,454.826L379.88,454.715L380.412,454.603L380.944,454.491L381.473,454.379L382.002,454.266L382.529,454.153L383.052,454.04L383.576,453.926L384.097,453.812L384.617,453.698L385.136,453.583L385.652,453.468L386.167,453.352L386.681,453.236L387.193,453.12L387.702,453.003L388.209,452.887L388.717,452.769L389.222,452.651L389.725,452.533L390.226,452.415L390.726,452.296L391.225,452.177L391.72,452.058L392.215,451.939L392.708,451.819L393.198,451.698L393.687,451.578L394.174,451.457L394.661,451.336L395.144,451.215L395.627,451.093L396.108,450.971L396.585,450.848L397.063,450.726L397.538,450.603L398.011,450.48L398.482,450.356L398.951,450.233L399.419,450.109L399.886,449.984L400.35,449.86L400.811,449.735L401.271,449.61L401.73,449.485L402.187,449.359L402.641,449.234L403.094,449.108L403.545,448.981L403.994,448.855L404.44,448.729L404.887,448.601L405.331,448.474L405.771,448.347L406.21,448.22L406.648,448.092L407.085,447.964L407.518,447.836L407.949,447.708L408.379,447.579L408.806,447.451L409.232,447.322L409.656,447.193L410.078,447.064L410.498,446.935L410.915,446.806L411.331,446.676L411.745,446.546L412.158,446.416L412.567,446.286L412.973,446.157L413.38,446.026L413.784,445.896L414.185,445.766L414.585,445.635L414.983,445.504L415.378,445.373L415.77,445.243L416.162,445.112L416.552,444.981L416.938,444.85L417.323,444.718L417.707,444.587L418.088,444.456L418.466,444.324L418.841,444.194L419.215,444.062L419.589,443.93L419.959,443.799L420.326,443.667L420.692,443.536L421.055,443.404L421.416,443.273L421.776,443.141L422.133,443.01L422.488,442.878L422.842,442.746L423.19,442.615L423.538,442.484L423.886,442.352L424.228,442.221L424.571,442.09L424.91,441.958L425.246,441.828L425.581,441.696L425.914,441.565L426.244,441.435L426.573,441.303L426.898,441.173L427.22,441.043L427.542,440.912L427.861,440.782L428.177,440.652L428.491,440.522L428.803,440.392L429.113,440.262L429.421,440.132L429.726,440.003L430.028,439.874L430.328,439.745L430.626,439.616L430.921,439.488L431.215,439.359L431.506,439.231L431.795,439.103L432.08,438.975L432.365,438.847L432.645,438.721L432.923,438.594L433.201,438.467L433.475,438.341L433.745,438.215L434.015,438.089L434.282,437.964L434.547,437.838L434.811,437.713L435.069,437.589L435.326,437.465L435.581,437.341L435.833,437.218L436.084,437.095L436.33,436.973L436.574,436.851L436.818,436.728L437.058,436.607L437.295,436.486L437.53,436.366L437.763,436.246L437.994,436.126L438.221,436.007L438.445,435.889L438.669,435.771L438.889,435.653L439.106,435.536L439.321,435.42L439.533,435.304L439.744,435.189L439.952,435.074L440.158,434.959L440.361,434.845L440.559,434.733L440.757,434.621L440.953,434.508L441.145,434.398L441.336,434.287L441.523,434.177L441.708,434.068L441.891,433.959L442.071,433.851L442.248,433.745L442.422,433.639L442.595,433.533L442.766,433.428L442.932,433.325L443.098,433.221L443.26,433.118L443.419,433.017L443.577,432.916L443.733,432.816L443.886,432.716L444.034,432.619L444.182,432.521L444.326,432.425L444.469,432.329L444.61,432.234L444.746,432.141L444.882,432.047L444.95,432L444.881,431.952L444.746,431.859L444.61,431.766L444.469,431.671L444.326,431.575L444.181,431.478L444.034,431.381L443.885,431.283L443.733,431.185L443.578,431.084L443.419,430.982L443.26,430.881L443.098,430.779L442.933,430.676L442.766,430.572L442.595,430.467L442.423,430.361L442.248,430.255L442.071,430.149L441.891,430.041L441.708,429.932L441.523,429.823L441.335,429.712L441.144,429.602L440.953,429.492L440.758,429.38L440.56,429.267L440.36,429.154L440.158,429.041L439.952,428.926L439.744,428.811L439.534,428.696L439.321,428.58L439.107,428.464L438.889,428.347L438.668,428.229L438.446,428.111L438.221,427.993L437.993,427.874L437.762,427.754L437.529,427.634L437.295,427.513L437.058,427.393L436.819,427.272L436.575,427.15L436.329,427.027L436.083,426.905L435.833,426.782L435.581,426.659L435.327,426.535L435.069,426.411L434.809,426.286L434.546,426.161L434.283,426.037L434.016,425.911L433.746,425.785L433.475,425.66L433.201,425.533L432.923,425.406L432.646,425.28L432.365,425.153L432.08,425.025L431.793,424.897L431.506,424.769L431.215,424.641L430.922,424.513L430.627,424.384L430.328,424.255L430.029,424.127L429.726,423.997L429.42,423.867L429.113,423.738L428.803,423.608L428.491,423.478L428.178,423.349L427.861,423.218L427.542,423.088L427.221,422.957L426.897,422.827L426.572,422.696L426.245,422.566L425.914,422.435L425.581,422.304L425.246,422.172L424.909,422.041L424.57,421.91L424.229,421.779L423.886,421.648L423.539,421.516L423.191,421.385L422.84,421.253L422.488,421.122L422.133,420.99L421.775,420.859L421.416,420.727L421.056,420.596L420.692,420.464L420.326,420.333L419.958,420.201L419.589,420.07L419.217,419.938L418.842,419.807L418.466,419.676L418.086,419.544L417.706,419.413L417.324,419.282L416.939,419.151L416.552,419.019L416.162,418.888L415.771,418.757L415.377,418.626L414.982,418.496L414.585,418.365L414.185,418.235L413.784,418.104L413.38,417.974L412.975,417.844L412.567,417.713L412.157,417.584L411.745,417.454L411.332,417.324L410.916,417.195L410.498,417.065L410.078,416.936L409.655,416.807L409.233,416.678L408.807,416.549L408.378,416.42L407.948,416.292L407.518,416.164L407.084,416.036L406.648,415.908L406.211,415.78L405.771,415.653L405.33,415.525L404.886,415.398L404.441,415.271L403.994,415.145L403.545,415.019L403.094,414.892L402.641,414.766L402.187,414.641L401.73,414.515L401.272,414.39L400.812,414.265L400.349,414.14L399.886,414.016L399.419,413.891L398.952,413.767L398.482,413.644L398.01,413.52L397.537,413.397L397.063,413.274L396.586,413.152L396.107,413.029L395.627,412.907L395.145,412.786L394.661,412.664L394.175,412.543L393.687,412.422L393.198,412.302L392.708,412.181L392.215,412.061L391.721,411.942L391.224,411.823L390.725,411.703L390.226,411.585L389.725,411.467L389.222,411.349L388.717,411.231L388.21,411.114L387.702,410.997L387.192,410.88L386.681,410.764L386.167,410.648L385.652,410.532L385.136,410.417L384.618,410.302L384.097,410.188L383.576,410.074L383.053,409.96L382.528,409.847L382.001,409.734L381.473,409.621L380.944,409.509L380.412,409.397L379.88,409.285L379.345,409.174L378.809,409.064L378.272,408.953L377.732,408.844L377.191,408.734L376.649,408.625L376.105,408.516L375.56,408.408L375.013,408.3L374.464,408.193L373.914,408.086L373.362,407.979L372.809,407.873L372.254,407.767L371.698,407.662L371.14,407.557L370.581,407.453L370.02,407.349L369.458,407.245L368.894,407.142L368.329,407.039L367.762,406.937L367.194,406.835L366.625,406.734L366.054,406.633L365.482,406.533L364.907,406.433L364.332,406.333L363.756,406.234L363.177,406.136L362.597,406.038L362.016,405.94L361.434,405.843L360.85,405.746L360.265,405.65L359.678,405.554L359.09,405.459L358.5,405.364L357.909,405.27L357.318,405.176L356.724,405.083L356.129,404.99L355.532,404.898L354.935,404.806L354.337,404.715L353.736,404.624L353.134,404.534L352.531,404.444L351.927,404.355L351.321,404.266L350.714,404.177L350.107,404.09L349.497,404.003L348.885,403.916L348.274,403.83L347.661,403.744L347.046,403.659L346.43,403.574L345.813,403.49L345.194,403.406L344.574,403.324L343.954,403.241L343.331,403.159L342.708,403.078L342.083,402.997L341.457,402.917L340.83,402.837L340.202,402.757L339.572,402.679L338.941,402.601L338.31,402.523L337.676,402.446L337.042,402.37L336.407,402.294L335.77,402.218L335.132,402.144L334.493,402.069L333.852,401.996L333.211,401.922L332.569,401.85L331.924,401.778L331.279,401.707L330.634,401.636L329.987,401.566L329.338,401.496L328.688,401.427L328.039,401.358L327.387,401.29L326.734,401.223L326.08,401.156L325.426,401.09L324.769,401.025L324.113,400.96L323.455,400.895L322.795,400.831L322.135,400.768L321.474,400.706L320.811,400.644L320.148,400.582L319.483,400.522L318.817,400.461L318.15,400.402L317.483,400.343L316.815,400.285L316.145,400.227L315.474,400.17L314.802,400.113L314.129,400.057L313.456,400.002L312.781,399.947L312.105,399.893L311.428,399.84L310.751,399.787L310.072,399.735L309.392,399.683L308.711,399.632L308.03,399.582L307.348,399.533L306.664,399.484L305.979,399.435L305.294,399.387L304.608,399.34L303.92,399.294L303.232,399.248L302.543,399.203L301.853,399.158L301.162,399.114L300.47,399.071L299.777,399.029L299.083,398.987L298.389,398.945L297.693,398.905L296.997,398.865L296.3,398.825L295.601,398.787L294.903,398.749L294.203,398.711L293.502,398.675L292.801,398.639L292.098,398.603L291.395,398.569L290.69,398.535L289.985,398.501L289.28,398.469L288.573,398.437L287.866,398.405L287.158,398.375L286.449,398.345L285.739,398.315L285.028,398.287L284.316,398.259L283.604,398.232L282.891,398.205L282.178,398.179L281.463,398.154L280.747,398.129L280.032,398.106L279.315,398.082L278.597,398.06L277.878,398.038L277.159,398.017L276.439,397.997L275.719,397.977L274.997,397.958L274.275,397.94L273.553,397.922L272.829,397.906L272.105,397.889L271.38,397.874L270.654,397.859L269.928,397.845L269.2,397.832L268.473,397.819L267.744,397.807L267.015,397.796L266.286,397.786L265.555,397.776L264.824,397.767L264.092,397.758L263.36,397.751L262.626,397.744L261.893,397.738L261.159,397.732L260.424,397.727L259.688,397.723L258.951,397.72L258.214,397.718L257.477,397.716L256.739,397.715L256,397.714L255.261,397.715Z" style="fill:white;"/>
        </g>
        <g transform="matrix(1,0,0,1.08333,0,-18.6667)">
            <path d="M256,46.769L256,224" style="fill:none;stroke:white;stroke-width:61.39px;"/>
        </g>
        <g transform="matrix(1,0,0,0.916667,0,290.667)">
            <path d="M256,32L256,206.545" style="fill:none;stroke:white;stroke-width:66.72px;"/>
        </g>
    </g>
</svg>
