<?xml version="1.0" encoding="UTF-8" standalone="no"?>
<!DOCTYPE svg PUBLIC "-//W3C//DTD SVG 1.1//EN" "http://www.w3.org/Graphics/SVG/1.1/DTD/svg11.dtd">
<svg width="100%" height="100%" viewBox="0 0 512 512" version="1.1" xmlns="http://www.w3.org/2000/svg" xmlns:xlink="http://www.w3.org/1999/xlink" xml:space="preserve" xmlns:serif="http://www.serif.com/" style="fill-rule:evenodd;clip-rule:evenodd;stroke-linecap:round;stroke-linejoin:round;stroke-miterlimit:1.5;">
    <g id="drum">
        <g transform="matrix(1,0,0,1.2,1.77636e-15,-294.4)">
            <path d="M256.828,352L257.655,352.002L258.481,352.004L259.307,352.007L260.132,352.01L260.956,352.015L261.78,352.02L262.603,352.026L263.426,352.033L264.248,352.041L265.069,352.049L265.89,352.059L266.709,352.069L267.529,352.08L268.347,352.092L269.165,352.104L269.983,352.118L270.799,352.132L271.615,352.147L272.431,352.162L273.245,352.179L274.059,352.196L274.872,352.215L275.685,352.233L276.496,352.253L277.308,352.274L278.118,352.295L278.928,352.317L279.736,352.34L280.545,352.364L281.352,352.388L282.159,352.413L282.965,352.439L283.77,352.466L284.575,352.494L285.379,352.522L286.182,352.551L286.984,352.581L287.785,352.612L288.586,352.643L289.386,352.675L290.185,352.708L290.984,352.742L291.782,352.777L292.578,352.812L293.375,352.848L294.17,352.885L294.964,352.922L295.758,352.961L296.551,353L297.343,353.04L298.135,353.08L298.925,353.122L299.715,353.164L300.504,353.207L301.292,353.25L302.079,353.295L302.865,353.34L303.651,353.386L304.435,353.433L305.219,353.48L306.002,353.528L306.784,353.577L307.566,353.627L308.346,353.677L309.126,353.728L309.904,353.78L310.682,353.832L311.459,353.886L312.235,353.94L313.011,353.995L313.785,354.05L314.558,354.106L315.331,354.163L316.102,354.221L316.873,354.279L317.643,354.339L318.412,354.398L319.18,354.459L319.947,354.52L320.713,354.582L321.478,354.645L322.242,354.709L323.006,354.773L323.768,354.838L324.53,354.904L325.29,354.97L326.05,355.037L326.808,355.105L327.566,355.173L328.323,355.243L329.078,355.312L329.833,355.383L330.587,355.454L331.34,355.526L332.091,355.599L332.842,355.673L333.592,355.747L334.341,355.822L335.089,355.897L335.836,355.973L336.581,356.05L337.326,356.128L338.07,356.206L338.813,356.285L339.555,356.365L340.295,356.445L341.035,356.526L341.774,356.608L342.511,356.691L343.248,356.774L343.983,356.858L344.718,356.942L345.451,357.027L346.184,357.113L346.915,357.2L347.645,357.287L348.375,357.375L349.103,357.464L349.83,357.553L350.556,357.643L351.281,357.733L352.004,357.825L352.727,357.917L353.449,358.009L354.169,358.102L354.889,358.196L355.607,358.291L356.324,358.386L357.04,358.482L357.755,358.579L358.469,358.676L359.181,358.774L359.893,358.872L360.603,358.972L361.313,359.072L362.021,359.172L362.728,359.273L363.434,359.375L364.138,359.478L364.842,359.581L365.544,359.684L366.245,359.789L366.945,359.894L367.644,360L368.342,360.106L369.038,360.213L369.734,360.321L370.428,360.429L371.121,360.538L371.812,360.647L372.503,360.757L373.192,360.868L373.88,360.98L374.567,361.092L375.253,361.204L375.937,361.318L376.62,361.432L377.302,361.546L377.983,361.662L378.662,361.777L379.341,361.894L380.018,362.011L380.693,362.129L381.368,362.247L382.041,362.366L382.713,362.485L383.384,362.606L384.053,362.726L384.721,362.848L385.388,362.97L386.054,363.092L386.718,363.215L387.381,363.339L388.043,363.464L388.703,363.589L389.362,363.714L390.02,363.841L390.677,363.967L391.332,364.095L391.986,364.223L392.638,364.352L393.29,364.481L393.94,364.611L394.588,364.741L395.235,364.872L395.881,365.004L396.526,365.136L397.169,365.269L397.811,365.402L398.451,365.536L399.09,365.671L399.728,365.806L400.365,365.941L401,366.078L401.633,366.215L402.266,366.352L402.896,366.49L403.526,366.629L404.154,366.768L404.781,366.908L405.406,367.048L406.03,367.189L406.652,367.33L407.273,367.472L407.893,367.615L408.511,367.758L409.128,367.902L409.744,368.046L410.358,368.191L410.97,368.336L411.581,368.482L412.191,368.629L412.799,368.776L413.406,368.924L414.011,369.072L414.615,369.221L415.217,369.37L415.818,369.52L416.418,369.67L417.016,369.821L417.612,369.973L418.207,370.125L418.8,370.278L419.392,370.431L419.983,370.585L420.572,370.739L421.16,370.894L421.746,371.049L422.33,371.205L422.913,371.361L423.494,371.518L424.074,371.676L424.653,371.834L425.23,371.992L425.805,372.151L426.379,372.311L426.951,372.471L427.522,372.632L428.091,372.793L428.659,372.955L429.225,373.117L429.789,373.28L430.352,373.443L430.914,373.607L431.473,373.771L432.032,373.936L432.588,374.101L433.143,374.267L433.697,374.434L434.249,374.6L434.799,374.768L435.347,374.936L435.895,375.104L436.44,375.273L436.984,375.443L437.526,375.612L438.067,375.783L438.606,375.954L439.143,376.125L439.679,376.297L440.213,376.47L440.745,376.643L441.276,376.816L441.805,376.99L442.333,377.165L442.858,377.34L443.383,377.515L443.905,377.691L444.426,377.867L444.945,378.044L445.463,378.222L445.979,378.399L446.493,378.578L447.005,378.757L447.516,378.936L448.025,379.116L448.532,379.296L449.038,379.477L449.542,379.658L450.044,379.84L450.545,380.022L451.043,380.205L451.54,380.388L452.036,380.571L452.529,380.755L453.021,380.94L453.511,381.125L454,381.31L454.487,381.496L454.971,381.683L455.455,381.87L455.936,382.057L456.416,382.245L456.893,382.433L457.37,382.622L457.844,382.811L458.316,383L458.787,383.19L459.256,383.381L459.723,383.572L460.189,383.763L460.652,383.955L461.114,384.147L461.574,384.34L462.032,384.533L462.489,384.727L462.943,384.921L463.396,385.116L463.847,385.311L464.296,385.506L464.743,385.702L465.188,385.898L465.632,386.095L466.074,386.292L466.513,386.49L466.951,386.688L467.388,386.886L467.822,387.085L468.254,387.284L468.685,387.484L469.113,387.684L469.54,387.885L469.965,388.086L470.388,388.287L470.809,388.489L471.229,388.691L471.646,388.894L472.061,389.097L472.475,389.301L472.887,389.504L473.296,389.709L473.704,389.914L474.11,390.119L474.514,390.324L474.916,390.53L475.316,390.737L475.714,390.943L476.11,391.151L476.505,391.358L476.897,391.566L477.288,391.775L477.676,391.983L478.062,392.193L478.447,392.402L478.829,392.612L479.21,392.823L479.589,393.033L479.965,393.245L480.34,393.456L480.712,393.668L481.083,393.88L481.452,394.093L481.818,394.306L482.183,394.52L482.546,394.734L482.906,394.948L483.265,395.162L483.622,395.377L483.976,395.593L484.329,395.809L484.679,396.025L485.028,396.241L485.374,396.458L485.719,396.676L486.061,396.893L486.401,397.111L486.739,397.33L487.076,397.548L487.41,397.767L487.742,397.987L488.072,398.207L488.4,398.427L488.726,398.648L489.049,398.868L489.371,399.09L489.691,399.311L490.008,399.533L490.324,399.756L490.637,399.979L490.948,400.202L491.257,400.425L491.564,400.649L491.869,400.873L492.172,401.097L492.472,401.322L492.771,401.547L493.067,401.773L493.361,401.999L493.653,402.225L493.943,402.451L494.231,402.678L494.517,402.905L494.8,403.133L495.081,403.361L495.361,403.589L495.638,403.818L495.912,404.046L496.185,404.276L496.455,404.505L496.724,404.735L496.99,404.965L497.254,405.196L497.515,405.427L497.775,405.658L498.032,405.889L498.287,406.121L498.54,406.353L498.791,406.586L499.039,406.818L499.285,407.051L499.529,407.285L499.771,407.518L500.01,407.752L500.248,407.987L500.483,408.221L500.715,408.456L500.946,408.692L501.174,408.927L501.4,409.163L501.624,409.399L501.845,409.636L502.065,409.872L502.282,410.109L502.496,410.347L502.709,410.584L502.919,410.822L503.126,411.061L503.332,411.299L503.535,411.538L503.736,411.777L503.935,412.017L504.131,412.256L504.325,412.496L504.516,412.737L504.706,412.977L504.893,413.218L505.077,413.459L505.26,413.701L505.44,413.942L505.617,414.184L505.793,414.426L505.966,414.669L506.136,414.912L506.305,415.155L506.47,415.398L506.634,415.642L506.795,415.886L506.954,416.13L507.11,416.374L507.264,416.619L507.416,416.864L507.565,417.109L507.712,417.355L507.856,417.6L507.999,417.846L508.138,418.093L508.275,418.339L508.41,418.586L508.543,418.833L508.673,419.08L508.8,419.328L508.925,419.576L509.048,419.824L509.168,420.072L509.286,420.32L509.402,420.569L509.514,420.818L509.625,421.068L509.733,421.317L509.839,421.567L509.942,421.817L510.042,422.067L510.14,422.318L510.236,422.568L510.329,422.819L510.42,423.07L510.508,423.322L510.594,423.573L510.677,423.825L510.758,424.077L510.836,424.33L510.912,424.582L510.985,424.835L511.056,425.088L511.124,425.341L511.19,425.595L511.253,425.849L511.314,426.102L511.372,426.357L511.427,426.611L511.48,426.865L511.531,427.12L511.578,427.375L511.624,427.63L511.667,427.886L511.707,428.141L511.745,428.397L511.78,428.653L511.812,428.91L511.842,429.166L511.869,429.423L511.894,429.679L511.916,429.937L511.936,430.194L511.953,430.451L511.967,430.709L511.979,430.967L511.988,431.225L511.995,431.483L511.999,431.741L512,432L511.999,432.259L511.995,432.517L511.988,432.775L511.979,433.033L511.967,433.291L511.953,433.549L511.936,433.806L511.916,434.063L511.894,434.321L511.869,434.577L511.842,434.834L511.812,435.09L511.78,435.347L511.745,435.603L511.707,435.859L511.667,436.114L511.624,436.37L511.578,436.625L511.531,436.88L511.48,437.135L511.427,437.389L511.372,437.643L511.314,437.898L511.253,438.151L511.19,438.405L511.124,438.659L511.056,438.912L510.985,439.165L510.912,439.418L510.836,439.67L510.758,439.923L510.677,440.175L510.594,440.427L510.508,440.678L510.42,440.93L510.329,441.181L510.236,441.432L510.14,441.682L510.042,441.933L509.942,442.183L509.839,442.433L509.733,442.683L509.625,442.932L509.514,443.182L509.402,443.431L509.286,443.68L509.168,443.928L509.048,444.176L508.925,444.424L508.8,444.672L508.673,444.92L508.543,445.167L508.41,445.414L508.275,445.661L508.138,445.907L507.999,446.154L507.856,446.4L507.712,446.645L507.565,446.891L507.416,447.136L507.264,447.381L507.11,447.626L506.954,447.87L506.795,448.114L506.634,448.358L506.47,448.602L506.305,448.845L506.136,449.088L505.966,449.331L505.793,449.574L505.617,449.816L505.44,450.058L505.26,450.299L505.077,450.541L504.893,450.782L504.706,451.023L504.516,451.263L504.325,451.504L504.131,451.744L503.935,451.983L503.736,452.223L503.535,452.462L503.332,452.701L503.126,452.939L502.919,453.178L502.709,453.416L502.496,453.653L502.282,453.891L502.065,454.128L501.845,454.364L501.624,454.601L501.4,454.837L501.174,455.073L500.946,455.308L500.715,455.544L500.483,455.779L500.248,456.013L500.01,456.248L499.771,456.482L499.529,456.715L499.285,456.949L499.039,457.182L498.791,457.414L498.54,457.647L498.287,457.879L498.032,458.111L497.775,458.342L497.515,458.573L497.254,458.804L496.99,459.035L496.724,459.265L496.455,459.495L496.185,459.724L495.912,459.954L495.638,460.182L495.361,460.411L495.081,460.639L494.8,460.867L494.517,461.095L494.231,461.322L493.943,461.549L493.653,461.775L493.361,462.001L493.067,462.227L492.771,462.453L492.472,462.678L492.172,462.903L491.869,463.127L491.564,463.351L491.257,463.575L490.948,463.798L490.637,464.021L490.324,464.244L490.008,464.467L489.691,464.689L489.371,464.91L489.049,465.132L488.726,465.352L488.4,465.573L488.072,465.793L487.742,466.013L487.41,466.233L487.076,466.452L486.739,466.67L486.401,466.889L486.061,467.107L485.719,467.324L485.374,467.542L485.028,467.759L484.679,467.975L484.329,468.191L483.976,468.407L483.622,468.623L483.265,468.838L482.906,469.052L482.546,469.266L482.183,469.48L481.818,469.694L481.452,469.907L481.083,470.12L480.712,470.332L480.34,470.544L479.965,470.755L479.589,470.967L479.21,471.177L478.829,471.388L478.447,471.598L478.062,471.807L477.676,472.017L477.288,472.225L476.897,472.434L476.505,472.642L476.11,472.849L475.714,473.057L475.316,473.263L474.916,473.47L474.514,473.676L474.11,473.881L473.704,474.086L473.296,474.291L472.887,474.496L472.475,474.699L472.061,474.903L471.646,475.106L471.229,475.309L470.809,475.511L470.388,475.713L469.965,475.914L469.54,476.115L469.113,476.316L468.685,476.516L468.254,476.716L467.822,476.915L467.388,477.114L466.951,477.312L466.513,477.51L466.074,477.708L465.632,477.905L465.188,478.102L464.743,478.298L464.296,478.494L463.847,478.689L463.396,478.884L462.943,479.079L462.489,479.273L462.032,479.467L461.574,479.66L461.114,479.853L460.652,480.045L460.189,480.237L459.723,480.428L459.256,480.619L458.787,480.81L458.316,481L457.844,481.189L457.37,481.378L456.893,481.567L456.416,481.755L455.936,481.943L455.455,482.13L454.971,482.317L454.487,482.504L454,482.69L453.511,482.875L453.021,483.06L452.529,483.245L452.036,483.429L451.54,483.612L451.043,483.795L450.545,483.978L450.044,484.16L449.542,484.342L449.038,484.523L448.532,484.704L448.025,484.884L447.516,485.064L447.005,485.243L446.493,485.422L445.979,485.601L445.463,485.778L444.945,485.956L444.426,486.133L443.905,486.309L443.383,486.485L442.858,486.66L442.333,486.835L441.805,487.01L441.276,487.184L440.745,487.357L440.213,487.53L439.679,487.703L439.143,487.875L438.606,488.046L438.067,488.217L437.526,488.388L436.984,488.557L436.44,488.727L435.895,488.896L435.347,489.064L434.799,489.232L434.249,489.4L433.697,489.566L433.143,489.733L432.588,489.899L432.032,490.064L431.473,490.229L430.914,490.393L430.352,490.557L429.789,490.72L429.225,490.883L428.659,491.045L428.091,491.207L427.522,491.368L426.951,491.529L426.379,491.689L425.805,491.849L425.23,492.008L424.653,492.166L424.074,492.324L423.494,492.482L422.913,492.639L422.33,492.795L421.746,492.951L421.16,493.106L420.572,493.261L419.983,493.415L419.392,493.569L418.8,493.722L418.207,493.875L417.612,494.027L417.016,494.179L416.418,494.33L415.818,494.48L415.217,494.63L414.615,494.779L414.011,494.928L413.406,495.076L412.799,495.224L412.191,495.371L411.581,495.518L410.97,495.664L410.358,495.809L409.744,495.954L409.128,496.098L408.511,496.242L407.893,496.385L407.273,496.528L406.652,496.67L406.03,496.811L405.406,496.952L404.781,497.092L404.154,497.232L403.526,497.371L402.896,497.51L402.266,497.648L401.633,497.785L401,497.922L400.365,498.059L399.728,498.194L399.09,498.329L398.451,498.464L397.811,498.598L397.169,498.731L396.526,498.864L395.881,498.996L395.235,499.128L394.588,499.259L393.94,499.389L393.29,499.519L392.638,499.648L391.986,499.777L391.332,499.905L390.677,500.033L390.02,500.159L389.362,500.286L388.703,500.411L388.043,500.536L387.381,500.661L386.718,500.785L386.054,500.908L385.388,501.03L384.721,501.152L384.053,501.274L383.384,501.394L382.713,501.515L382.041,501.634L381.368,501.753L380.693,501.871L380.018,501.989L379.341,502.106L378.662,502.223L377.983,502.338L377.302,502.454L376.62,502.568L375.937,502.682L375.253,502.796L374.567,502.908L373.88,503.02L373.192,503.132L372.503,503.243L371.812,503.353L371.121,503.462L370.428,503.571L369.734,503.679L369.038,503.787L368.342,503.894L367.644,504L366.945,504.106L366.245,504.211L365.544,504.316L364.842,504.419L364.138,504.522L363.434,504.625L362.728,504.727L362.021,504.828L361.313,504.928L360.603,505.028L359.893,505.128L359.181,505.226L358.469,505.324L357.755,505.421L357.04,505.518L356.324,505.614L355.607,505.709L354.889,505.804L354.169,505.898L353.449,505.991L352.727,506.083L352.004,506.175L351.281,506.267L350.556,506.357L349.83,506.447L349.103,506.536L348.375,506.625L347.645,506.713L346.915,506.8L346.184,506.887L345.451,506.973L344.718,507.058L343.983,507.142L343.248,507.226L342.511,507.309L341.774,507.392L341.035,507.474L340.295,507.555L339.555,507.635L338.813,507.715L338.07,507.794L337.326,507.872L336.581,507.95L335.836,508.027L335.089,508.103L334.341,508.178L333.592,508.253L332.842,508.327L332.091,508.401L331.34,508.474L330.587,508.546L329.833,508.617L329.078,508.688L328.323,508.757L327.566,508.827L326.808,508.895L326.05,508.963L325.29,509.03L324.53,509.096L323.768,509.162L323.006,509.227L322.242,509.291L321.478,509.355L320.713,509.418L319.947,509.48L319.18,509.541L318.412,509.602L317.643,509.661L316.873,509.721L316.102,509.779L315.331,509.837L314.558,509.894L313.785,509.95L313.011,510.005L312.235,510.06L311.459,510.114L310.682,510.168L309.904,510.22L309.126,510.272L308.346,510.323L307.566,510.373L306.784,510.423L306.002,510.472L305.219,510.52L304.435,510.567L303.651,510.614L302.865,510.66L302.079,510.705L301.292,510.75L300.504,510.793L299.715,510.836L298.925,510.878L298.135,510.92L297.343,510.96L296.551,511L295.758,511.039L294.964,511.078L294.17,511.115L293.375,511.152L292.578,511.188L291.782,511.223L290.984,511.258L290.185,511.292L289.386,511.325L288.586,511.357L287.785,511.388L286.984,511.419L286.182,511.449L285.379,511.478L284.575,511.506L283.77,511.534L282.965,511.561L282.159,511.587L281.352,511.612L280.545,511.636L279.736,511.66L278.928,511.683L278.118,511.705L277.308,511.726L276.496,511.747L275.685,511.767L274.872,511.785L274.059,511.804L273.245,511.821L272.431,511.838L271.615,511.853L270.799,511.868L269.983,511.882L269.165,511.896L268.347,511.908L267.529,511.92L266.709,511.931L265.89,511.941L265.069,511.951L264.248,511.959L263.426,511.967L262.603,511.974L261.78,511.98L260.956,511.985L260.132,511.99L259.307,511.993L258.481,511.996L257.655,511.998L256.828,512L256,512L255.172,512L254.345,511.998L253.519,511.996L252.693,511.993L251.868,511.99L251.044,511.985L250.22,511.98L249.397,511.974L248.574,511.967L247.752,511.959L246.931,511.951L246.11,511.941L245.291,511.931L244.471,511.92L243.653,511.908L242.835,511.896L242.017,511.882L241.201,511.868L240.385,511.853L239.569,511.838L238.755,511.821L237.941,511.804L237.128,511.785L236.315,511.767L235.504,511.747L234.692,511.726L233.882,511.705L233.072,511.683L232.264,511.66L231.455,511.636L230.648,511.612L229.841,511.587L229.035,511.561L228.23,511.534L227.425,511.506L226.621,511.478L225.818,511.449L225.016,511.419L224.215,511.388L223.414,511.357L222.614,511.325L221.815,511.292L221.016,511.258L220.218,511.223L219.422,511.188L218.625,511.152L217.83,511.115L217.036,511.078L216.242,511.039L215.449,511L214.657,510.96L213.865,510.92L213.075,510.878L212.285,510.836L211.496,510.793L210.708,510.75L209.921,510.705L209.135,510.66L208.349,510.614L207.565,510.567L206.781,510.52L205.998,510.472L205.216,510.423L204.434,510.373L203.654,510.323L202.874,510.272L202.096,510.22L201.318,510.168L200.541,510.114L199.765,510.06L198.989,510.005L198.215,509.95L197.442,509.894L196.669,509.837L195.898,509.779L195.127,509.721L194.357,509.661L193.588,509.602L192.82,509.541L192.053,509.48L191.287,509.418L190.522,509.355L189.758,509.291L188.994,509.227L188.232,509.162L187.47,509.096L186.71,509.03L185.95,508.963L185.192,508.895L184.434,508.827L183.677,508.757L182.922,508.688L182.167,508.617L181.413,508.546L180.66,508.474L179.909,508.401L179.158,508.327L178.408,508.253L177.659,508.178L176.911,508.103L176.164,508.027L175.419,507.95L174.674,507.872L173.93,507.794L173.187,507.715L172.445,507.635L171.705,507.555L170.965,507.474L170.226,507.392L169.489,507.309L168.752,507.226L168.017,507.142L167.282,507.058L166.549,506.973L165.816,506.887L165.085,506.8L164.355,506.713L163.625,506.625L162.897,506.536L162.17,506.447L161.444,506.357L160.719,506.267L159.996,506.175L159.273,506.083L158.551,505.991L157.831,505.898L157.111,505.804L156.393,505.709L155.676,505.614L154.96,505.518L154.245,505.421L153.531,505.324L152.819,505.226L152.107,505.128L151.397,505.028L150.687,504.928L149.979,504.828L149.272,504.727L148.566,504.625L147.862,504.522L147.158,504.419L146.456,504.316L145.755,504.211L145.055,504.106L144.356,504L143.658,503.894L142.962,503.787L142.266,503.679L141.572,503.571L140.879,503.462L140.188,503.353L139.497,503.243L138.808,503.132L138.12,503.02L137.433,502.908L136.747,502.796L136.063,502.682L135.38,502.568L134.698,502.454L134.017,502.338L133.338,502.223L132.659,502.106L131.982,501.989L131.307,501.871L130.632,501.753L129.959,501.634L129.287,501.515L128.616,501.394L127.947,501.274L127.279,501.152L126.612,501.03L125.946,500.908L125.282,500.785L124.619,500.661L123.957,500.536L123.297,500.411L122.638,500.286L121.98,500.159L121.323,500.033L120.668,499.905L120.014,499.777L119.362,499.648L118.71,499.519L118.06,499.389L117.412,499.259L116.765,499.128L116.119,498.996L115.474,498.864L114.831,498.731L114.189,498.598L113.549,498.464L112.91,498.329L112.272,498.194L111.635,498.059L111,497.922L110.367,497.785L109.734,497.648L109.104,497.51L108.474,497.371L107.846,497.232L107.219,497.092L106.594,496.952L105.97,496.811L105.348,496.67L104.727,496.528L104.107,496.385L103.489,496.242L102.872,496.098L102.256,495.954L101.642,495.809L101.03,495.664L100.419,495.518L99.809,495.371L99.201,495.224L98.594,495.076L97.989,494.928L97.385,494.779L96.783,494.63L96.182,494.48L95.582,494.33L94.984,494.179L94.388,494.027L93.793,493.875L93.2,493.722L92.608,493.569L92.017,493.415L91.428,493.261L90.84,493.106L90.254,492.951L89.67,492.795L89.087,492.639L88.506,492.482L87.926,492.324L87.347,492.166L86.77,492.008L86.195,491.849L85.621,491.689L85.049,491.529L84.478,491.368L83.909,491.207L83.341,491.045L82.775,490.883L82.211,490.72L81.648,490.557L81.086,490.393L80.527,490.229L79.968,490.064L79.412,489.899L78.857,489.733L78.303,489.566L77.751,489.4L77.201,489.232L76.653,489.064L76.105,488.896L75.56,488.727L75.016,488.557L74.474,488.388L73.933,488.217L73.394,488.046L72.857,487.875L72.321,487.703L71.787,487.53L71.255,487.357L70.724,487.184L70.195,487.01L69.667,486.835L69.142,486.66L68.617,486.485L68.095,486.309L67.574,486.133L67.055,485.956L66.537,485.778L66.021,485.601L65.507,485.422L64.995,485.243L64.484,485.064L63.975,484.884L63.468,484.704L62.962,484.523L62.458,484.342L61.956,484.16L61.455,483.978L60.957,483.795L60.46,483.612L59.964,483.429L59.471,483.245L58.979,483.06L58.489,482.875L58,482.69L57.513,482.504L57.029,482.317L56.545,482.13L56.064,481.943L55.584,481.755L55.107,481.567L54.63,481.378L54.156,481.189L53.684,481L53.213,480.81L52.744,480.619L52.277,480.428L51.811,480.237L51.348,480.045L50.886,479.853L50.426,479.66L49.968,479.467L49.511,479.273L49.057,479.079L48.604,478.884L48.153,478.689L47.704,478.494L47.257,478.298L46.812,478.102L46.368,477.905L45.926,477.708L45.487,477.51L45.049,477.312L44.612,477.114L44.178,476.915L43.746,476.716L43.315,476.516L42.887,476.316L42.46,476.115L42.035,475.914L41.612,475.713L41.191,475.511L40.771,475.309L40.354,475.106L39.939,474.903L39.525,474.699L39.113,474.496L38.704,474.291L38.296,474.086L37.89,473.881L37.486,473.676L37.084,473.47L36.684,473.263L36.286,473.057L35.89,472.849L35.495,472.642L35.103,472.434L34.712,472.225L34.324,472.017L33.938,471.807L33.553,471.598L33.171,471.388L32.79,471.177L32.411,470.967L32.035,470.755L31.66,470.544L31.288,470.332L30.917,470.12L30.548,469.907L30.182,469.694L29.817,469.48L29.454,469.266L29.094,469.052L28.735,468.838L28.378,468.623L28.024,468.407L27.671,468.191L27.321,467.975L26.972,467.759L26.626,467.542L26.281,467.324L25.939,467.107L25.599,466.889L25.261,466.67L24.924,466.452L24.59,466.233L24.258,466.013L23.928,465.793L23.6,465.573L23.274,465.352L22.951,465.132L22.629,464.91L22.309,464.689L21.992,464.467L21.676,464.244L21.363,464.021L21.052,463.798L20.743,463.575L20.436,463.351L20.131,463.127L19.828,462.903L19.528,462.678L19.229,462.453L18.933,462.227L18.639,462.001L18.347,461.775L18.057,461.549L17.769,461.322L17.483,461.095L17.2,460.867L16.919,460.639L16.639,460.411L16.362,460.182L16.088,459.954L15.815,459.724L15.545,459.495L15.276,459.265L15.01,459.035L14.746,458.804L14.485,458.573L14.225,458.342L13.968,458.111L13.713,457.879L13.46,457.647L13.209,457.414L12.961,457.182L12.715,456.949L12.471,456.715L12.229,456.482L11.99,456.248L11.752,456.013L11.517,455.779L11.285,455.544L11.054,455.308L10.826,455.073L10.6,454.837L10.376,454.601L10.155,454.364L9.935,454.128L9.718,453.891L9.504,453.653L9.291,453.416L9.081,453.178L8.874,452.939L8.668,452.701L8.465,452.462L8.264,452.223L8.065,451.983L7.869,451.744L7.675,451.504L7.484,451.263L7.294,451.023L7.107,450.782L6.923,450.541L6.74,450.299L6.56,450.058L6.383,449.816L6.207,449.574L6.034,449.331L5.864,449.088L5.695,448.845L5.53,448.602L5.366,448.358L5.205,448.114L5.046,447.87L4.89,447.626L4.736,447.381L4.584,447.136L4.435,446.891L4.288,446.645L4.144,446.4L4.001,446.154L3.862,445.907L3.725,445.661L3.59,445.414L3.457,445.167L3.327,444.92L3.2,444.672L3.075,444.424L2.952,444.176L2.832,443.928L2.714,443.68L2.598,443.431L2.486,443.182L2.375,442.932L2.267,442.683L2.161,442.433L2.058,442.183L1.958,441.933L1.86,441.682L1.764,441.432L1.671,441.181L1.58,440.93L1.492,440.678L1.406,440.427L1.323,440.175L1.242,439.923L1.164,439.67L1.088,439.418L1.015,439.165L0.944,438.912L0.876,438.659L0.81,438.405L0.747,438.151L0.686,437.898L0.628,437.643L0.573,437.389L0.52,437.135L0.469,436.88L0.422,436.625L0.376,436.37L0.333,436.114L0.293,435.859L0.255,435.603L0.22,435.347L0.188,435.09L0.158,434.834L0.131,434.577L0.106,434.321L0.084,434.063L0.064,433.806L0.047,433.549L0.033,433.291L0.021,433.033L0.012,432.775L0.005,432.517L0.001,432.259L0,432L0.001,431.741L0.005,431.483L0.012,431.225L0.021,430.967L0.033,430.709L0.047,430.451L0.064,430.194L0.084,429.937L0.106,429.679L0.131,429.423L0.158,429.166L0.188,428.91L0.22,428.653L0.255,428.397L0.293,428.141L0.333,427.886L0.376,427.63L0.422,427.375L0.469,427.12L0.52,426.865L0.573,426.611L0.628,426.357L0.686,426.102L0.747,425.849L0.81,425.595L0.876,425.341L0.944,425.088L1.015,424.835L1.088,424.582L1.164,424.33L1.242,424.077L1.323,423.825L1.406,423.573L1.492,423.322L1.58,423.07L1.671,422.819L1.764,422.568L1.86,422.318L1.958,422.067L2.058,421.817L2.161,421.567L2.267,421.317L2.375,421.068L2.486,420.818L2.598,420.569L2.714,420.32L2.832,420.072L2.952,419.824L3.075,419.576L3.2,419.328L3.327,419.08L3.457,418.833L3.59,418.586L3.725,418.339L3.862,418.093L4.001,417.846L4.144,417.6L4.288,417.355L4.435,417.109L4.584,416.864L4.736,416.619L4.89,416.374L5.046,416.13L5.205,415.886L5.366,415.642L5.53,415.398L5.695,415.155L5.864,414.912L6.034,414.669L6.207,414.426L6.383,414.184L6.56,413.942L6.74,413.701L6.923,413.459L7.107,413.218L7.294,412.977L7.484,412.737L7.675,412.496L7.869,412.256L8.065,412.017L8.264,411.777L8.465,411.538L8.668,411.299L8.874,411.061L9.081,410.822L9.291,410.584L9.504,410.347L9.718,410.109L9.935,409.872L10.155,409.636L10.376,409.399L10.6,409.163L10.826,408.927L11.054,408.692L11.285,408.456L11.517,408.221L11.752,407.987L11.99,407.752L12.229,407.518L12.471,407.285L12.715,407.051L12.961,406.818L13.209,406.586L13.46,406.353L13.713,406.121L13.968,405.889L14.225,405.658L14.485,405.427L14.746,405.196L15.01,404.965L15.276,404.735L15.545,404.505L15.815,404.276L16.088,404.046L16.362,403.818L16.639,403.589L16.919,403.361L17.2,403.133L17.483,402.905L17.769,402.678L18.057,402.451L18.347,402.225L18.639,401.999L18.933,401.773L19.229,401.547L19.528,401.322L19.828,401.097L20.131,400.873L20.436,400.649L20.743,400.425L21.052,400.202L21.363,399.979L21.676,399.756L21.992,399.533L22.309,399.311L22.629,399.09L22.951,398.868L23.274,398.648L23.6,398.427L23.928,398.207L24.258,397.987L24.59,397.767L24.924,397.548L25.261,397.33L25.599,397.111L25.939,396.893L26.281,396.676L26.626,396.458L26.972,396.241L27.321,396.025L27.671,395.809L28.024,395.593L28.378,395.377L28.735,395.162L29.094,394.948L29.454,394.734L29.817,394.52L30.182,394.306L30.548,394.093L30.917,393.88L31.288,393.668L31.66,393.456L32.035,393.245L32.411,393.033L32.79,392.823L33.171,392.612L33.553,392.402L33.938,392.193L34.324,391.983L34.712,391.775L35.103,391.566L35.495,391.358L35.89,391.151L36.286,390.943L36.684,390.737L37.084,390.53L37.486,390.324L37.89,390.119L38.296,389.914L38.704,389.709L39.113,389.504L39.525,389.301L39.939,389.097L40.354,388.894L40.771,388.691L41.191,388.489L41.612,388.287L42.035,388.086L42.46,387.885L42.887,387.684L43.315,387.484L43.746,387.284L44.178,387.085L44.612,386.886L45.049,386.688L45.487,386.49L45.926,386.292L46.368,386.095L46.812,385.898L47.257,385.702L47.704,385.506L48.153,385.311L48.604,385.116L49.057,384.921L49.511,384.727L49.968,384.533L50.426,384.34L50.886,384.147L51.348,383.955L51.811,383.763L52.277,383.572L52.744,383.381L53.213,383.19L53.684,383L54.156,382.811L54.63,382.622L55.107,382.433L55.584,382.245L56.064,382.057L56.545,381.87L57.029,381.683L57.513,381.496L58,381.31L58.489,381.125L58.979,380.94L59.471,380.755L59.964,380.571L60.46,380.388L60.957,380.205L61.455,380.022L61.956,379.84L62.458,379.658L62.962,379.477L63.468,379.296L63.975,379.116L64.484,378.936L64.995,378.757L65.507,378.578L66.021,378.399L66.537,378.222L67.055,378.044L67.574,377.867L68.095,377.691L68.617,377.515L69.142,377.34L69.667,377.165L70.195,376.99L70.724,376.816L71.255,376.643L71.787,376.47L72.321,376.297L72.857,376.125L73.394,375.954L73.933,375.783L74.474,375.612L75.016,375.443L75.56,375.273L76.105,375.104L76.653,374.936L77.201,374.768L77.751,374.6L78.303,374.434L78.857,374.267L79.412,374.101L79.968,373.936L80.527,373.771L81.086,373.607L81.648,373.443L82.211,373.28L82.775,373.117L83.341,372.955L83.909,372.793L84.478,372.632L85.049,372.471L85.621,372.311L86.195,372.151L86.77,371.992L87.347,371.834L87.926,371.676L88.506,371.518L89.087,371.361L89.67,371.205L90.254,371.049L90.84,370.894L91.428,370.739L92.017,370.585L92.608,370.431L93.2,370.278L93.793,370.125L94.388,369.973L94.984,369.821L95.582,369.67L96.182,369.52L96.783,369.37L97.385,369.221L97.989,369.072L98.594,368.924L99.201,368.776L99.809,368.629L100.419,368.482L101.03,368.336L101.642,368.191L102.256,368.046L102.872,367.902L103.489,367.758L104.107,367.615L104.727,367.472L105.348,367.33L105.97,367.189L106.594,367.048L107.219,366.908L107.846,366.768L108.474,366.629L109.104,366.49L109.734,366.352L110.367,366.215L111,366.078L111.635,365.941L112.272,365.806L112.91,365.671L113.549,365.536L114.189,365.402L114.831,365.269L115.474,365.136L116.119,365.004L116.765,364.872L117.412,364.741L118.06,364.611L118.71,364.481L119.362,364.352L120.014,364.223L120.668,364.095L121.323,363.967L121.98,363.841L122.638,363.714L123.297,363.589L123.957,363.464L124.619,363.339L125.282,363.215L125.946,363.092L126.612,362.97L127.279,362.848L127.947,362.726L128.616,362.606L129.287,362.485L129.959,362.366L130.632,362.247L131.307,362.129L131.982,362.011L132.659,361.894L133.338,361.777L134.017,361.662L134.698,361.546L135.38,361.432L136.063,361.318L136.747,361.204L137.433,361.092L138.12,360.98L138.808,360.868L139.497,360.757L140.188,360.647L140.879,360.538L141.572,360.429L142.266,360.321L142.962,360.213L143.658,360.106L144.356,360L145.055,359.894L145.755,359.789L146.456,359.684L147.158,359.581L147.862,359.478L148.566,359.375L149.272,359.273L149.979,359.172L150.687,359.072L151.397,358.972L152.107,358.872L152.819,358.774L153.531,358.676L154.245,358.579L154.96,358.482L155.676,358.386L156.393,358.291L157.111,358.196L157.831,358.102L158.551,358.009L159.273,357.917L159.996,357.825L160.719,357.733L161.444,357.643L162.17,357.553L162.897,357.464L163.625,357.375L164.355,357.287L165.085,357.2L165.816,357.113L166.549,357.027L167.282,356.942L168.017,356.858L168.752,356.774L169.489,356.691L170.226,356.608L170.965,356.526L171.705,356.445L172.445,356.365L173.187,356.285L173.93,356.206L174.674,356.128L175.419,356.05L176.164,355.973L176.911,355.897L177.659,355.822L178.408,355.747L179.158,355.673L179.909,355.599L180.66,355.526L181.413,355.454L182.167,355.383L182.922,355.312L183.677,355.243L184.434,355.173L185.192,355.105L185.95,355.037L186.71,354.97L187.47,354.904L188.232,354.838L188.994,354.773L189.758,354.709L190.522,354.645L191.287,354.582L192.053,354.52L192.82,354.459L193.588,354.398L194.357,354.339L195.127,354.279L195.898,354.221L196.669,354.163L197.442,354.106L198.215,354.05L198.989,353.995L199.765,353.94L200.541,353.886L201.318,353.832L202.096,353.78L202.874,353.728L203.654,353.677L204.434,353.627L205.216,353.577L205.998,353.528L206.781,353.48L207.565,353.433L208.349,353.386L209.135,353.34L209.921,353.295L210.708,353.25L211.496,353.207L212.285,353.164L213.075,353.122L213.865,353.08L214.657,353.04L215.449,353L216.242,352.961L217.036,352.922L217.83,352.885L218.625,352.848L219.422,352.812L220.218,352.777L221.016,352.742L221.815,352.708L222.614,352.675L223.414,352.643L224.215,352.612L225.016,352.581L225.818,352.551L226.621,352.522L227.425,352.494L228.23,352.466L229.035,352.439L229.841,352.413L230.648,352.388L231.455,352.364L232.264,352.34L233.072,352.317L233.882,352.295L234.692,352.274L235.504,352.253L236.315,352.233L237.128,352.215L237.941,352.196L238.755,352.179L239.569,352.162L240.385,352.147L241.201,352.132L242.017,352.118L242.835,352.104L243.653,352.092L244.471,352.08L245.291,352.069L246.11,352.059L246.931,352.049L247.752,352.041L248.574,352.033L249.397,352.026L250.22,352.02L251.044,352.015L251.868,352.01L252.693,352.007L253.519,352.004L254.345,352.002L255.172,352L256,352L256.828,352ZM255.211,378.667L254.422,378.668L253.633,378.67L252.846,378.673L252.059,378.676L251.272,378.681L250.487,378.686L249.701,378.692L248.917,378.698L248.133,378.706L247.35,378.714L246.567,378.723L245.785,378.732L245.004,378.743L244.224,378.754L243.443,378.766L242.664,378.779L241.886,378.792L241.108,378.807L240.331,378.822L239.554,378.837L238.779,378.854L238.004,378.871L237.229,378.889L236.456,378.908L235.682,378.928L234.91,378.948L234.139,378.969L233.368,378.991L232.598,379.013L231.829,379.037L231.061,379.061L230.293,379.085L229.525,379.111L228.759,379.137L227.994,379.164L227.229,379.192L226.465,379.22L225.702,379.25L224.939,379.28L224.178,379.31L223.417,379.342L222.657,379.374L221.897,379.407L221.139,379.44L220.381,379.475L219.624,379.51L218.868,379.545L218.113,379.582L217.359,379.619L216.605,379.657L215.852,379.696L215.1,379.735L214.349,379.775L213.599,379.816L212.85,379.857L212.101,379.9L211.353,379.943L210.606,379.986L209.861,380.03L209.115,380.076L208.371,380.121L207.628,380.168L206.885,380.215L206.144,380.263L205.403,380.311L204.663,380.361L203.924,380.41L203.186,380.461L202.449,380.512L201.713,380.564L200.978,380.617L200.243,380.671L199.51,380.725L198.778,380.779L198.046,380.835L197.316,380.891L196.586,380.948L195.857,381.005L195.129,381.064L194.403,381.122L193.677,381.182L192.952,381.242L192.228,381.303L191.505,381.365L190.783,381.427L190.062,381.49L189.342,381.553L188.623,381.618L187.906,381.683L187.189,381.748L186.473,381.814L185.758,381.881L185.044,381.949L184.331,382.017L183.619,382.086L182.908,382.156L182.198,382.226L181.49,382.297L180.782,382.368L180.075,382.44L179.37,382.513L178.665,382.586L177.962,382.66L177.26,382.735L176.558,382.81L175.858,382.887L175.158,382.963L174.461,383.04L173.764,383.118L173.068,383.197L172.373,383.276L171.679,383.356L170.987,383.436L170.295,383.517L169.605,383.599L168.916,383.681L168.228,383.764L167.541,383.848L166.855,383.932L166.17,384.017L165.487,384.102L164.804,384.188L164.123,384.275L163.443,384.362L162.764,384.45L162.086,384.539L161.41,384.628L160.734,384.718L160.06,384.808L159.387,384.899L158.715,384.99L158.044,385.083L157.375,385.175L156.707,385.269L156.04,385.362L155.374,385.457L154.71,385.552L154.046,385.648L153.384,385.744L152.723,385.841L152.063,385.938L151.405,386.036L150.748,386.135L150.092,386.234L149.438,386.334L148.784,386.434L148.132,386.535L147.481,386.637L146.832,386.739L146.184,386.842L145.537,386.945L144.891,387.049L144.247,387.153L143.603,387.258L142.962,387.363L142.321,387.469L141.682,387.576L141.044,387.683L140.408,387.791L139.773,387.899L139.139,388.008L138.507,388.117L137.876,388.227L137.246,388.338L136.617,388.449L135.99,388.56L135.364,388.672L134.74,388.785L134.117,388.898L133.496,389.012L132.876,389.126L132.257,389.241L131.639,389.356L131.023,389.472L130.409,389.588L129.796,389.705L129.184,389.823L128.574,389.941L127.965,390.059L127.357,390.178L126.751,390.297L126.147,390.417L125.544,390.538L124.942,390.659L124.341,390.78L123.743,390.902L123.145,391.025L122.549,391.148L121.955,391.271L121.362,391.395L120.771,391.52L120.181,391.645L119.593,391.77L119.006,391.896L118.42,392.023L117.836,392.15L117.254,392.277L116.673,392.405L116.094,392.533L115.516,392.662L114.94,392.792L114.365,392.921L113.792,393.052L113.22,393.182L112.65,393.314L112.082,393.445L111.515,393.577L110.95,393.71L110.386,393.843L109.824,393.976L109.263,394.11L108.704,394.245L108.146,394.38L107.591,394.515L107.036,394.651L106.484,394.787L105.933,394.923L105.384,395.06L104.836,395.198L104.29,395.336L103.746,395.474L103.203,395.613L102.662,395.752L102.122,395.891L101.584,396.032L101.048,396.172L100.514,396.313L99.981,396.454L99.45,396.595L98.92,396.738L98.393,396.88L97.867,397.023L97.343,397.166L96.82,397.31L96.299,397.454L95.78,397.598L95.263,397.743L94.747,397.888L94.233,398.034L93.721,398.179L93.211,398.326L92.702,398.472L92.195,398.619L91.69,398.767L91.187,398.915L90.685,399.063L90.185,399.211L89.687,399.36L89.191,399.509L88.697,399.659L88.204,399.808L87.714,399.959L87.224,400.109L86.737,400.26L86.252,400.411L85.769,400.563L85.287,400.715L84.807,400.867L84.33,401.019L83.853,401.172L83.379,401.325L82.907,401.479L82.437,401.632L81.968,401.787L81.501,401.941L81.037,402.095L80.574,402.25L80.113,402.406L79.653,402.561L79.196,402.717L78.741,402.873L78.288,403.029L77.837,403.186L77.388,403.342L76.94,403.5L76.494,403.657L76.051,403.814L75.609,403.972L75.17,404.13L74.732,404.289L74.297,404.447L73.863,404.606L73.431,404.765L73.001,404.924L72.574,405.084L72.148,405.243L71.725,405.403L71.303,405.564L70.883,405.724L70.466,405.884L70.051,406.045L69.637,406.206L69.226,406.367L68.817,406.528L68.409,406.69L68.004,406.851L67.601,407.013L67.2,407.175L66.801,407.337L66.404,407.499L66.01,407.661L65.617,407.824L65.227,407.986L64.838,408.149L64.452,408.312L64.068,408.475L63.686,408.638L63.307,408.801L62.928,408.965L62.553,409.128L62.18,409.291L61.809,409.455L61.44,409.619L61.073,409.782L60.708,409.946L60.346,410.11L59.986,410.274L59.627,410.438L59.272,410.602L58.918,410.766L58.567,410.93L58.218,411.094L57.871,411.258L57.526,411.422L57.184,411.586L56.844,411.75L56.506,411.914L56.17,412.078L55.837,412.243L55.506,412.407L55.177,412.57L54.851,412.734L54.527,412.898L54.204,413.062L53.885,413.226L53.568,413.389L53.253,413.553L52.94,413.717L52.63,413.88L52.322,414.043L52.016,414.206L51.713,414.369L51.412,414.532L51.113,414.695L50.817,414.858L50.523,415.02L50.232,415.182L49.943,415.344L49.656,415.507L49.371,415.668L49.09,415.83L48.81,415.991L48.533,416.152L48.258,416.313L47.986,416.474L47.716,416.634L47.448,416.794L47.183,416.954L46.92,417.114L46.66,417.273L46.402,417.432L46.147,417.591L45.894,417.749L45.644,417.907L45.395,418.065L45.15,418.222L44.907,418.379L44.666,418.536L44.428,418.692L44.192,418.848L43.958,419.003L43.728,419.158L43.499,419.313L43.273,419.467L43.05,419.621L42.829,419.774L42.61,419.927L42.395,420.079L42.181,420.231L41.97,420.382L41.761,420.533L41.555,420.683L41.351,420.833L41.151,420.982L40.952,421.13L40.756,421.278L40.562,421.426L40.371,421.573L40.182,421.719L39.996,421.864L39.812,422.009L39.631,422.153L39.452,422.296L39.276,422.439L39.102,422.581L38.931,422.723L38.762,422.864L38.596,423.003L38.432,423.142L38.27,423.281L38.111,423.418L37.954,423.555L37.8,423.691L37.649,423.826L37.5,423.961L37.353,424.094L37.208,424.227L37.066,424.359L36.927,424.489L36.789,424.619L36.655,424.748L36.522,424.876L36.392,425.003L36.264,425.129L36.139,425.254L36.016,425.379L35.895,425.502L35.777,425.624L35.661,425.745L35.547,425.865L35.436,425.984L35.326,426.102L35.219,426.219L35.115,426.335L35.012,426.449L34.912,426.563L34.814,426.675L34.718,426.787L34.625,426.897L34.533,427.006L34.444,427.113L34.356,427.22L34.271,427.325L34.188,427.429L34.107,427.533L34.028,427.634L33.951,427.734L33.876,427.834L33.803,427.932L33.732,428.028L33.663,428.124L33.596,428.218L33.531,428.311L33.467,428.403L33.406,428.493L33.346,428.582L33.288,428.67L33.232,428.756L33.178,428.841L33.125,428.925L33.073,429.008L33.024,429.089L32.976,429.169L32.93,429.248L32.886,429.325L32.842,429.401L32.801,429.475L32.761,429.549L32.722,429.621L32.685,429.691L32.649,429.761L32.615,429.829L32.582,429.896L32.55,429.962L32.519,430.026L32.49,430.089L32.462,430.151L32.435,430.212L32.409,430.272L32.385,430.33L32.361,430.387L32.338,430.443L32.317,430.498L32.296,430.552L32.277,430.604L32.258,430.656L32.241,430.706L32.224,430.756L32.208,430.804L32.192,430.852L32.178,430.898L32.164,430.944L32.152,430.988L32.139,431.032L32.128,431.075L32.117,431.117L32.107,431.158L32.097,431.198L32.088,431.238L32.079,431.277L32.071,431.316L32.064,431.353L32.057,431.39L32.05,431.427L32.044,431.463L32.039,431.498L32.034,431.533L32.029,431.568L32.025,431.602L32.021,431.636L32.017,431.67L32.014,431.703L32.011,431.737L32.008,431.77L32.006,431.803L32.004,431.835L32.003,431.868L32.002,431.901L32.001,431.934L32,431.967L32,432L32,432.033L32.001,432.066L32.002,432.099L32.003,432.132L32.004,432.165L32.006,432.197L32.008,432.23L32.011,432.263L32.014,432.297L32.017,432.33L32.021,432.364L32.025,432.398L32.029,432.432L32.034,432.467L32.039,432.502L32.044,432.537L32.05,432.573L32.057,432.61L32.064,432.647L32.071,432.684L32.079,432.723L32.088,432.762L32.097,432.802L32.107,432.842L32.117,432.883L32.128,432.925L32.139,432.968L32.152,433.012L32.164,433.056L32.178,433.102L32.192,433.148L32.208,433.196L32.224,433.244L32.241,433.294L32.258,433.344L32.277,433.396L32.296,433.448L32.317,433.502L32.338,433.557L32.361,433.613L32.385,433.67L32.409,433.728L32.435,433.788L32.462,433.849L32.49,433.911L32.519,433.974L32.55,434.038L32.582,434.104L32.615,434.171L32.649,434.239L32.685,434.309L32.722,434.379L32.761,434.451L32.801,434.525L32.842,434.599L32.886,434.675L32.93,434.752L32.976,434.831L33.024,434.911L33.073,434.992L33.125,435.075L33.178,435.159L33.232,435.244L33.288,435.33L33.346,435.418L33.406,435.507L33.467,435.597L33.531,435.689L33.596,435.782L33.663,435.876L33.732,435.972L33.803,436.068L33.876,436.166L33.951,436.266L34.028,436.366L34.107,436.467L34.188,436.571L34.271,436.675L34.356,436.78L34.444,436.887L34.533,436.994L34.625,437.103L34.718,437.213L34.814,437.325L34.912,437.437L35.012,437.551L35.115,437.665L35.219,437.781L35.326,437.898L35.436,438.016L35.547,438.135L35.661,438.255L35.777,438.376L35.895,438.498L36.016,438.621L36.139,438.746L36.264,438.871L36.392,438.997L36.522,439.124L36.655,439.252L36.789,439.381L36.927,439.511L37.066,439.641L37.208,439.773L37.353,439.906L37.5,440.039L37.649,440.174L37.8,440.309L37.954,440.445L38.112,440.582L38.27,440.719L38.431,440.857L38.596,440.997L38.763,441.137L38.931,441.277L39.102,441.419L39.276,441.561L39.452,441.703L39.631,441.847L39.813,441.991L39.996,442.136L40.182,442.281L40.371,442.427L40.562,442.574L40.756,442.722L40.952,442.87L41.151,443.018L41.352,443.167L41.555,443.317L41.761,443.467L41.97,443.618L42.181,443.769L42.395,443.921L42.61,444.073L42.829,444.226L43.05,444.379L43.274,444.533L43.499,444.687L43.728,444.842L43.959,444.997L44.192,445.152L44.428,445.308L44.666,445.464L44.906,445.621L45.15,445.778L45.395,445.935L45.644,446.093L45.894,446.251L46.147,446.409L46.402,446.568L46.661,446.727L46.92,446.886L47.182,447.046L47.449,447.206L47.716,447.366L47.986,447.526L48.258,447.687L48.533,447.848L48.81,448.009L49.089,448.17L49.372,448.332L49.656,448.493L49.943,448.656L50.232,448.818L50.523,448.98L50.817,449.142L51.114,449.305L51.412,449.468L51.713,449.631L52.016,449.794L52.322,449.957L52.63,450.12L52.94,450.283L53.252,450.447L53.568,450.611L53.885,450.774L54.205,450.938L54.527,451.102L54.85,451.265L55.177,451.43L55.506,451.593L55.837,451.757L56.171,451.922L56.506,452.086L56.844,452.25L57.183,452.413L57.526,452.578L57.871,452.742L58.217,452.906L58.567,453.07L58.918,453.234L59.272,453.398L59.628,453.562L59.985,453.726L60.346,453.89L60.709,454.054L61.072,454.217L61.439,454.381L61.808,454.545L62.18,454.709L62.553,454.872L62.929,455.036L63.307,455.199L63.686,455.362L64.068,455.525L64.452,455.688L64.839,455.851L65.226,456.013L65.617,456.176L66.01,456.339L66.405,456.501L66.802,456.663L67.2,456.825L67.601,456.987L68.005,457.149L68.409,457.31L68.816,457.472L69.226,457.633L69.638,457.794L70.051,457.955L70.466,458.116L70.883,458.276L71.303,458.436L71.725,458.597L72.148,458.757L72.574,458.916L73.001,459.076L73.431,459.235L73.863,459.394L74.297,459.553L74.732,459.711L75.169,459.869L75.609,460.028L76.051,460.186L76.495,460.343L76.94,460.5L77.387,460.658L77.837,460.814L78.288,460.971L78.741,461.127L79.197,461.283L79.653,461.439L80.113,461.594L80.574,461.75L81.036,461.904L81.501,462.059L81.968,462.214L82.436,462.367L82.907,462.521L83.379,462.675L83.853,462.828L84.33,462.981L84.807,463.133L85.287,463.285L85.769,463.437L86.252,463.589L86.738,463.74L87.225,463.891L87.714,464.041L88.204,464.192L88.697,464.341L89.191,464.491L89.687,464.64L90.186,464.789L90.685,464.937L91.187,465.085L91.69,465.233L92.195,465.381L92.702,465.528L93.211,465.674L93.721,465.821L94.233,465.966L94.747,466.112L95.263,466.257L95.78,466.402L96.299,466.546L96.82,466.69L97.343,466.834L97.867,466.977L98.393,467.12L98.921,467.262L99.45,467.404L99.981,467.546L100.514,467.687L101.049,467.828L101.585,467.969L102.122,468.109L102.661,468.248L103.202,468.387L103.746,468.526L104.29,468.664L104.836,468.802L105.384,468.94L105.933,469.077L106.484,469.213L107.036,469.349L107.591,469.485L108.146,469.62L108.704,469.755L109.263,469.89L109.823,470.023L110.386,470.157L110.95,470.29L111.515,470.423L112.082,470.555L112.65,470.686L113.22,470.818L113.792,470.948L114.365,471.079L114.94,471.208L115.516,471.338L116.094,471.466L116.674,471.595L117.254,471.723L117.836,471.85L118.42,471.977L119.005,472.104L119.593,472.23L120.181,472.355L120.771,472.48L121.362,472.605L121.955,472.729L122.55,472.852L123.145,472.975L123.743,473.098L124.342,473.22L124.942,473.341L125.544,473.462L126.147,473.583L126.751,473.702L127.357,473.822L127.965,473.941L128.574,474.059L129.184,474.177L129.796,474.295L130.408,474.411L131.023,474.528L131.64,474.644L132.257,474.759L132.876,474.874L133.496,474.988L134.117,475.102L134.74,475.215L135.365,475.328L135.99,475.44L136.617,475.551L137.246,475.662L137.875,475.773L138.506,475.883L139.139,475.992L139.773,476.101L140.408,476.209L141.045,476.317L141.683,476.424L142.321,476.531L142.961,476.636L143.603,476.742L144.247,476.847L144.891,476.951L145.537,477.055L146.183,477.158L146.832,477.261L147.482,477.363L148.133,477.465L148.784,477.566L149.437,477.666L150.092,477.766L150.748,477.865L151.405,477.964L152.063,478.062L152.723,478.159L153.385,478.256L154.047,478.352L154.709,478.448L155.374,478.543L156.04,478.638L156.707,478.731L157.375,478.825L158.045,478.918L158.715,479.01L159.387,479.101L160.06,479.192L160.734,479.282L161.409,479.372L162.086,479.461L162.764,479.55L163.443,479.638L164.123,479.725L164.804,479.812L165.486,479.898L166.17,479.983L166.855,480.068L167.541,480.152L168.228,480.236L168.916,480.319L169.605,480.401L170.295,480.483L170.986,480.564L171.679,480.644L172.373,480.724L173.067,480.803L173.764,480.882L174.461,480.96L175.159,481.037L175.858,481.113L176.558,481.189L177.259,481.265L177.962,481.34L178.666,481.414L179.37,481.487L180.075,481.56L180.782,481.632L181.49,481.703L182.199,481.774L182.909,481.845L183.619,481.914L184.331,481.983L185.044,482.051L185.758,482.119L186.473,482.186L187.188,482.252L187.906,482.317L188.624,482.382L189.342,482.447L190.062,482.51L190.783,482.573L191.505,482.635L192.228,482.697L192.952,482.758L193.677,482.818L194.403,482.878L195.129,482.936L195.858,482.995L196.586,483.052L197.315,483.109L198.047,483.165L198.778,483.221L199.51,483.275L200.243,483.329L200.978,483.383L201.713,483.436L202.45,483.488L203.186,483.539L203.924,483.59L204.663,483.639L205.403,483.689L206.143,483.737L206.885,483.785L207.628,483.832L208.371,483.879L209.115,483.925L209.86,483.97L210.606,484.014L211.353,484.057L212.101,484.1L212.85,484.143L213.599,484.184L214.349,484.225L215.1,484.265L215.852,484.304L216.605,484.343L217.359,484.381L218.113,484.418L218.868,484.455L219.625,484.49L220.381,484.525L221.139,484.56L221.897,484.593L222.657,484.626L223.417,484.658L224.178,484.69L224.939,484.72L225.701,484.75L226.465,484.78L227.23,484.808L227.994,484.836L228.759,484.863L229.526,484.889L230.292,484.915L231.06,484.939L231.829,484.963L232.599,484.987L233.368,485.009L234.139,485.031L234.911,485.052L235.683,485.072L236.456,485.092L237.229,485.111L238.003,485.129L238.779,485.146L239.555,485.163L240.331,485.178L241.108,485.193L241.886,485.208L242.664,485.221L243.444,485.234L244.224,485.246L245.004,485.257L245.786,485.268L246.567,485.277L247.35,485.286L248.133,485.294L248.917,485.302L249.701,485.308L250.486,485.314L251.273,485.319L252.058,485.324L252.845,485.327L253.634,485.33L254.422,485.332L255.21,485.333L256,485.333L256.79,485.333L257.578,485.332L258.366,485.33L259.155,485.327L259.942,485.324L260.727,485.319L261.514,485.314L262.299,485.308L263.083,485.302L263.867,485.294L264.65,485.286L265.433,485.277L266.214,485.268L266.996,485.257L267.776,485.246L268.556,485.234L269.336,485.221L270.114,485.208L270.892,485.193L271.669,485.178L272.445,485.163L273.221,485.146L273.997,485.129L274.771,485.111L275.544,485.092L276.317,485.072L277.089,485.052L277.861,485.031L278.632,485.009L279.401,484.987L280.171,484.963L280.94,484.939L281.708,484.915L282.474,484.889L283.241,484.863L284.006,484.836L284.77,484.808L285.535,484.78L286.299,484.75L287.061,484.72L287.822,484.69L288.583,484.658L289.343,484.626L290.103,484.593L290.861,484.56L291.619,484.525L292.375,484.49L293.132,484.455L293.887,484.418L294.641,484.381L295.395,484.343L296.148,484.304L296.9,484.265L297.651,484.225L298.401,484.184L299.15,484.143L299.899,484.1L300.647,484.057L301.394,484.014L302.14,483.97L302.885,483.925L303.629,483.879L304.372,483.832L305.115,483.785L305.857,483.737L306.597,483.689L307.337,483.639L308.076,483.59L308.813,483.539L309.55,483.488L310.287,483.436L311.022,483.383L311.757,483.329L312.49,483.275L313.222,483.221L313.953,483.165L314.685,483.109L315.414,483.052L316.142,482.995L316.871,482.936L317.597,482.878L318.323,482.818L319.048,482.758L319.772,482.697L320.495,482.635L321.217,482.573L321.938,482.51L322.658,482.447L323.376,482.382L324.094,482.317L324.812,482.252L325.527,482.186L326.242,482.119L326.956,482.051L327.669,481.983L328.381,481.914L329.091,481.845L329.801,481.774L330.51,481.703L331.218,481.632L331.925,481.56L332.63,481.487L333.334,481.414L334.038,481.34L334.741,481.265L335.442,481.189L336.142,481.113L336.841,481.037L337.539,480.96L338.236,480.882L338.933,480.803L339.627,480.724L340.321,480.644L341.014,480.564L341.705,480.483L342.395,480.401L343.084,480.319L343.772,480.236L344.459,480.152L345.145,480.068L345.83,479.983L346.514,479.898L347.196,479.812L347.877,479.725L348.557,479.638L349.236,479.55L349.914,479.461L350.591,479.372L351.266,479.282L351.94,479.192L352.613,479.101L353.285,479.01L353.955,478.918L354.625,478.825L355.293,478.731L355.96,478.638L356.626,478.543L357.291,478.448L357.953,478.352L358.615,478.256L359.277,478.159L359.937,478.062L360.595,477.964L361.252,477.865L361.908,477.766L362.563,477.666L363.216,477.566L363.867,477.465L364.518,477.363L365.168,477.261L365.816,477.158L366.463,477.055L367.109,476.951L367.753,476.847L368.396,476.742L369.039,476.636L369.679,476.531L370.317,476.424L370.955,476.317L371.592,476.209L372.227,476.101L372.86,475.992L373.494,475.883L374.125,475.773L374.754,475.662L375.383,475.551L376.01,475.44L376.635,475.328L377.26,475.215L377.883,475.102L378.504,474.988L379.124,474.874L379.743,474.759L380.36,474.644L380.977,474.528L381.592,474.411L382.204,474.295L382.816,474.177L383.426,474.059L384.035,473.941L384.643,473.822L385.249,473.702L385.853,473.583L386.456,473.462L387.058,473.341L387.658,473.22L388.257,473.097L388.855,472.975L389.45,472.852L390.045,472.728L390.638,472.604L391.229,472.48L391.819,472.355L392.407,472.23L392.995,472.104L393.58,471.977L394.164,471.85L394.746,471.723L395.326,471.595L395.906,471.466L396.484,471.338L397.06,471.208L397.635,471.079L398.208,470.948L398.78,470.818L399.35,470.686L399.918,470.555L400.485,470.423L401.051,470.29L401.614,470.157L402.177,470.023L402.737,469.89L403.296,469.755L403.854,469.62L404.409,469.485L404.964,469.349L405.516,469.213L406.067,469.077L406.616,468.94L407.164,468.802L407.71,468.664L408.254,468.526L408.798,468.387L409.339,468.248L409.878,468.109L410.415,467.969L410.951,467.828L411.486,467.687L412.019,467.546L412.55,467.404L413.079,467.262L413.607,467.12L414.133,466.977L414.657,466.834L415.18,466.69L415.701,466.546L416.22,466.402L416.737,466.257L417.253,466.112L417.767,465.966L418.278,465.821L418.789,465.674L419.298,465.528L419.805,465.381L420.31,465.233L420.814,465.085L421.315,464.937L421.814,464.789L422.312,464.64L422.809,464.491L423.303,464.341L423.795,464.192L424.286,464.041L424.775,463.891L425.262,463.74L425.748,463.589L426.231,463.437L426.713,463.285L427.193,463.133L427.67,462.981L428.147,462.828L428.621,462.675L429.093,462.521L429.564,462.367L430.032,462.214L430.499,462.059L430.964,461.904L431.426,461.75L431.887,461.594L432.347,461.439L432.803,461.283L433.259,461.127L433.712,460.971L434.163,460.814L434.613,460.658L435.06,460.5L435.505,460.343L435.949,460.186L436.39,460.028L436.831,459.869L437.268,459.711L437.703,459.553L438.137,459.394L438.569,459.235L438.999,459.076L439.426,458.916L439.852,458.757L440.275,458.597L440.697,458.436L441.117,458.276L441.534,458.116L441.949,457.955L442.362,457.794L442.774,457.633L443.184,457.472L443.591,457.31L443.996,457.149L444.399,456.987L444.8,456.825L445.198,456.663L445.596,456.501L445.99,456.339L446.383,456.176L446.774,456.014L447.161,455.851L447.548,455.688L447.932,455.525L448.314,455.362L448.693,455.199L449.071,455.036L449.447,454.872L449.82,454.709L450.192,454.545L450.56,454.381L450.927,454.218L451.292,454.054L451.654,453.89L452.014,453.726L452.372,453.562L452.729,453.398L453.081,453.234L453.433,453.07L453.783,452.906L454.129,452.742L454.474,452.578L454.817,452.413L455.156,452.25L455.494,452.086L455.829,451.922L456.163,451.757L456.494,451.593L456.822,451.43L457.15,451.265L457.474,451.102L457.795,450.938L458.115,450.774L458.432,450.611L458.748,450.447L459.06,450.283L459.37,450.12L459.678,449.957L459.984,449.794L460.287,449.63L460.588,449.468L460.886,449.305L461.183,449.143L461.477,448.98L461.768,448.818L462.057,448.656L462.344,448.494L462.628,448.332L462.911,448.17L463.19,448.009L463.467,447.848L463.742,447.687L464.014,447.526L464.284,447.366L464.552,447.206L464.818,447.045L465.08,446.886L465.339,446.727L465.598,446.568L465.853,446.409L466.106,446.251L466.357,446.093L466.604,445.936L466.85,445.778L467.094,445.62L467.334,445.464L467.572,445.308L467.808,445.152L468.041,444.997L468.273,444.842L468.501,444.687L468.727,444.533L468.95,444.379L469.171,444.226L469.389,444.074L469.605,443.921L469.819,443.769L470.03,443.618L470.239,443.467L470.445,443.317L470.648,443.167L470.849,443.018L471.048,442.869L471.244,442.722L471.438,442.574L471.629,442.427L471.818,442.282L472.004,442.136L472.187,441.991L472.368,441.847L472.548,441.703L472.724,441.56L472.897,441.419L473.069,441.277L473.238,441.137L473.404,440.996L473.569,440.857L473.729,440.72L473.888,440.582L474.045,440.445L474.2,440.309L474.351,440.174L474.5,440.039L474.648,439.905L474.792,439.773L474.934,439.641L475.073,439.511L475.21,439.381L475.346,439.251L475.478,439.124L475.608,438.997L475.736,438.87L475.861,438.746L475.984,438.621L476.105,438.498L476.223,438.376L476.339,438.255L476.453,438.135L476.564,438.016L476.674,437.898L476.781,437.781L476.886,437.665L476.988,437.55L477.088,437.437L477.186,437.325L477.282,437.213L477.375,437.104L477.467,436.995L477.556,436.887L477.643,436.78L477.729,436.674L477.812,436.57L477.893,436.468L477.971,436.366L478.049,436.265L478.124,436.166L478.196,436.068L478.268,435.971L478.337,435.876L478.404,435.782L478.469,435.689L478.532,435.598L478.594,435.507L478.654,435.418L478.712,435.33L478.768,435.243L478.823,435.158L478.875,435.075L478.926,434.992L478.976,434.91L479.023,434.832L479.07,434.753L479.115,434.675L479.158,434.599L479.199,434.525L479.239,434.451L479.278,434.379L479.315,434.309L479.351,434.239L479.385,434.171L479.418,434.104L479.45,434.038L479.481,433.973L479.51,433.91L479.538,433.848L479.565,433.788L479.591,433.728L479.615,433.671L479.639,433.613L479.662,433.557L479.683,433.502L479.704,433.448L479.723,433.396L479.742,433.344L479.76,433.293L479.776,433.245L479.792,433.197L479.808,433.148L479.822,433.102L479.836,433.055L479.849,433.011L479.86,432.969L479.872,432.926L479.883,432.883L479.893,432.842L479.903,432.802L479.912,432.762L479.921,432.722L479.929,432.684L479.936,432.648L479.943,432.61L479.95,432.573L479.956,432.537L479.961,432.502L479.966,432.466L479.971,432.432L479.975,432.398L479.979,432.364L479.983,432.331L479.986,432.297L479.989,432.262L479.992,432.231L479.994,432.198L479.996,432.165L479.997,432.132L479.998,432.099L479.999,432.066L480,432.033L480,432L480,431.967L479.999,431.934L479.998,431.901L479.997,431.868L479.996,431.835L479.994,431.802L479.992,431.769L479.989,431.738L479.986,431.703L479.983,431.669L479.979,431.636L479.975,431.602L479.971,431.568L479.966,431.534L479.961,431.498L479.956,431.463L479.95,431.427L479.943,431.39L479.936,431.352L479.929,431.316L479.921,431.278L479.912,431.238L479.903,431.198L479.893,431.158L479.883,431.117L479.872,431.074L479.86,431.031L479.849,430.989L479.836,430.945L479.822,430.898L479.808,430.852L479.792,430.803L479.776,430.755L479.76,430.707L479.742,430.656L479.723,430.604L479.704,430.552L479.683,430.498L479.662,430.443L479.639,430.387L479.615,430.329L479.591,430.272L479.565,430.212L479.538,430.152L479.51,430.09L479.481,430.027L479.45,429.962L479.418,429.896L479.385,429.829L479.351,429.761L479.315,429.691L479.278,429.621L479.239,429.549L479.199,429.475L479.158,429.401L479.115,429.325L479.07,429.247L479.023,429.168L478.976,429.09L478.926,429.008L478.875,428.925L478.823,428.842L478.768,428.757L478.712,428.67L478.654,428.582L478.594,428.493L478.532,428.402L478.469,428.311L478.404,428.218L478.337,428.124L478.268,428.029L478.196,427.932L478.124,427.834L478.049,427.735L477.971,427.634L477.893,427.532L477.812,427.43L477.729,427.326L477.643,427.22L477.556,427.113L477.467,427.005L477.375,426.896L477.282,426.787L477.186,426.675L477.088,426.563L476.988,426.45L476.886,426.335L476.781,426.219L476.674,426.102L476.564,425.984L476.453,425.865L476.339,425.745L476.223,425.624L476.105,425.502L475.984,425.379L475.861,425.254L475.736,425.13L475.608,425.003L475.478,424.876L475.346,424.749L475.21,424.619L475.073,424.489L474.934,424.359L474.792,424.227L474.648,424.095L474.5,423.961L474.351,423.826L474.2,423.691L474.045,423.555L473.889,423.418L473.729,423.28L473.568,423.143L473.404,423.003L473.238,422.864L473.069,422.723L472.897,422.581L472.724,422.44L472.547,422.296L472.368,422.153L472.188,422.009L472.004,421.864L471.818,421.718L471.629,421.573L471.438,421.426L471.244,421.278L471.048,421.13L470.849,420.982L470.648,420.833L470.445,420.683L470.239,420.533L470.03,420.382L469.819,420.231L469.605,420.079L469.389,419.926L469.171,419.774L468.95,419.621L468.727,419.467L468.501,419.313L468.272,419.158L468.041,419.003L467.808,418.848L467.572,418.692L467.335,418.536L467.094,418.379L466.85,418.222L466.604,418.064L466.357,417.907L466.106,417.749L465.853,417.591L465.598,417.432L465.34,417.273L465.08,417.114L464.817,416.954L464.552,416.794L464.285,416.634L464.014,416.473L463.742,416.313L463.467,416.152L463.19,415.991L462.91,415.83L462.629,415.668L462.344,415.506L462.058,415.345L461.769,415.183L461.477,415.02L461.183,414.857L460.887,414.695L460.588,414.532L460.287,414.369L459.984,414.206L459.678,414.043L459.37,413.88L459.06,413.717L458.747,413.553L458.432,413.389L458.115,413.226L457.796,413.062L457.474,412.898L457.15,412.735L456.822,412.57L456.494,412.406L456.163,412.243L455.829,412.078L455.494,411.914L455.157,411.751L454.816,411.586L454.474,411.422L454.129,411.258L453.782,411.094L453.433,410.93L453.081,410.766L452.728,410.602L452.373,410.438L452.014,410.274L451.654,410.11L451.292,409.946L450.927,409.782L450.56,409.619L450.191,409.455L449.82,409.291L449.447,409.128L449.072,408.965L448.693,408.801L448.314,408.638L447.932,408.475L447.548,408.312L447.162,408.149L446.773,407.986L446.383,407.824L445.99,407.661L445.596,407.499L445.199,407.337L444.799,407.175L444.399,407.013L443.996,406.851L443.591,406.69L443.183,406.528L442.774,406.367L442.363,406.206L441.949,406.045L441.534,405.884L441.117,405.724L440.697,405.564L440.275,405.403L439.852,405.243L439.426,405.084L438.999,404.924L438.569,404.765L438.137,404.606L437.703,404.447L437.268,404.289L436.83,404.13L436.39,403.972L435.949,403.814L435.506,403.657L435.06,403.5L434.612,403.342L434.163,403.186L433.712,403.029L433.259,402.873L432.804,402.717L432.347,402.561L431.887,402.406L431.426,402.25L430.963,402.095L430.499,401.941L430.032,401.787L429.563,401.632L429.093,401.479L428.621,401.325L428.147,401.172L427.67,401.019L427.193,400.867L426.713,400.715L426.231,400.563L425.748,400.411L425.263,400.26L424.776,400.109L424.286,399.959L423.795,399.808L423.303,399.659L422.809,399.509L422.312,399.36L421.814,399.211L421.315,399.063L420.814,398.915L420.31,398.767L419.805,398.619L419.298,398.472L418.79,398.326L418.279,398.179L417.766,398.033L417.253,397.888L416.737,397.743L416.22,397.598L415.701,397.454L415.18,397.31L414.657,397.166L414.133,397.023L413.607,396.88L413.08,396.738L412.55,396.595L412.019,396.454L411.486,396.313L410.951,396.172L410.416,396.032L409.878,395.891L409.338,395.752L408.797,395.613L408.254,395.474L407.71,395.336L407.164,395.198L406.616,395.06L406.067,394.923L405.516,394.787L404.963,394.651L404.409,394.515L403.854,394.38L403.296,394.245L402.737,394.11L402.176,393.976L401.614,393.843L401.051,393.71L400.485,393.577L399.918,393.445L399.35,393.314L398.78,393.182L398.208,393.052L397.635,392.921L397.06,392.792L396.484,392.662L395.906,392.533L395.327,392.405L394.746,392.277L394.164,392.15L393.58,392.023L392.994,391.896L392.407,391.77L391.819,391.645L391.229,391.52L390.638,391.396L390.045,391.271L389.451,391.148L388.855,391.025L388.257,390.902L387.659,390.78L387.058,390.659L386.457,390.538L385.853,390.417L385.249,390.297L384.643,390.178L384.035,390.059L383.426,389.941L382.816,389.823L382.204,389.705L381.591,389.588L380.977,389.472L380.36,389.356L379.743,389.241L379.124,389.126L378.504,389.012L377.883,388.898L377.26,388.785L376.636,388.673L376.01,388.56L375.383,388.449L374.754,388.338L374.125,388.227L373.493,388.117L372.861,388.008L372.227,387.899L371.592,387.791L370.955,387.683L370.318,387.576L369.679,387.47L369.038,387.363L368.396,387.258L367.753,387.153L367.109,387.049L366.463,386.945L365.816,386.842L365.168,386.739L364.519,386.637L363.868,386.535L363.216,386.434L362.562,386.334L361.908,386.234L361.252,386.135L360.595,386.036L359.937,385.938L359.277,385.841L358.616,385.744L357.954,385.648L357.29,385.552L356.626,385.457L355.96,385.362L355.293,385.269L354.625,385.175L353.956,385.083L353.285,384.99L352.613,384.899L351.94,384.808L351.266,384.718L350.59,384.628L349.914,384.539L349.236,384.45L348.557,384.362L347.877,384.275L347.196,384.188L346.513,384.102L345.83,384.017L345.145,383.932L344.459,383.848L343.772,383.764L343.084,383.681L342.395,383.599L341.705,383.517L341.013,383.436L340.321,383.356L339.627,383.276L338.932,383.197L338.236,383.118L337.539,383.04L336.842,382.963L336.142,382.887L335.442,382.81L334.74,382.735L334.038,382.66L333.335,382.586L332.63,382.513L331.925,382.44L331.218,382.368L330.51,382.297L329.802,382.226L329.092,382.156L328.381,382.086L327.669,382.017L326.956,381.949L326.242,381.881L325.527,381.814L324.811,381.748L324.094,381.683L323.377,381.618L322.658,381.553L321.938,381.49L321.217,381.427L320.495,381.365L319.772,381.303L319.048,381.242L318.323,381.182L317.597,381.122L316.871,381.064L316.143,381.005L315.414,380.948L314.684,380.891L313.954,380.835L313.222,380.779L312.49,380.725L311.757,380.671L311.022,380.617L310.287,380.564L309.551,380.512L308.814,380.461L308.076,380.41L307.337,380.361L306.597,380.311L305.856,380.263L305.115,380.215L304.373,380.168L303.629,380.121L302.885,380.076L302.139,380.03L301.394,379.986L300.647,379.942L299.899,379.9L299.151,379.857L298.401,379.816L297.651,379.775L296.9,379.735L296.148,379.696L295.395,379.657L294.641,379.619L293.887,379.582L293.132,379.545L292.376,379.51L291.619,379.475L290.861,379.44L290.103,379.407L289.343,379.374L288.583,379.342L287.822,379.31L287.061,379.28L286.298,379.25L285.535,379.22L284.771,379.192L284.006,379.164L283.241,379.137L282.475,379.111L281.707,379.085L280.939,379.061L280.171,379.037L279.402,379.013L278.632,378.991L277.861,378.969L277.09,378.948L276.318,378.928L275.544,378.908L274.771,378.889L273.996,378.871L273.221,378.854L272.446,378.837L271.669,378.822L270.892,378.807L270.114,378.792L269.336,378.779L268.557,378.766L267.776,378.754L266.996,378.743L266.215,378.732L265.433,378.723L264.65,378.714L263.867,378.706L263.083,378.698L262.299,378.692L261.513,378.686L260.728,378.681L259.941,378.676L259.154,378.673L258.367,378.67L257.578,378.668L256.789,378.667L256,378.667L255.211,378.667Z" style="fill:white;"/>
        </g>
        <path d="M480,32L192,224" style="fill:none;stroke:white;stroke-width:64px;"/>
        <path d="M287.998,511.256C277.515,511.747 266.836,512 256,512C245.164,512 234.485,511.747 224.002,511.256L287.998,511.256ZM48,471.947C17.795,456.191 0,436.869 0,416L0,224C37.051,315.164 453.804,327.177 512,224L512,416C512,436.869 494.205,456.191 464,471.947L464,384.744C464,367.083 449.661,352.744 432,352.744C414.339,352.744 400,367.083 400,384.744L400,495.364C367.293,503.73 329.158,509.328 288,511.256L288,400C288,382.339 273.661,368 256,368C238.339,368 224,382.339 224,400L224,511.256C182.842,509.328 144.707,503.73 112,495.364L112,384.744C112,367.083 97.661,352.744 80,352.744C62.339,352.744 48,367.083 48,384.744L48,471.947Z" style="fill:white;"/>
    </g>
</svg>
