<?xml version="1.0" encoding="UTF-8" standalone="no"?>
<!DOCTYPE svg PUBLIC "-//W3C//DTD SVG 1.1//EN" "http://www.w3.org/Graphics/SVG/1.1/DTD/svg11.dtd">
<svg width="100%" height="100%" viewBox="0 0 508 508" version="1.1" xmlns="http://www.w3.org/2000/svg" xmlns:xlink="http://www.w3.org/1999/xlink" xml:space="preserve" xmlns:serif="http://www.serif.com/" style="fill-rule:evenodd;clip-rule:evenodd;stroke-linejoin:round;stroke-miterlimit:1.5;">
    <g transform="matrix(1,0,0,1,-4,0)">
        <g id="guitar">
            <g transform="matrix(0.90566,0,0,0.90566,45.5849,-35.3208)">
                <circle cx="197" cy="357" r="53" style="fill:white;"/>
            </g>
            <path d="M400,112L224,288" style="fill:none;stroke:white;stroke-width:64px;"/>
            <g transform="matrix(0.707107,0.707107,-0.707107,0.707107,400.055,-91.4844)">
                <path d="M96,48C96,39.169 103.169,32 112,32L176,32C184.831,32 192,39.169 192,48L192,48C194.742,47.982 197.484,47.982 200.225,48.002C208.71,48.181 216.296,55.881 215.99,64.563C215.706,72.634 208.581,79.822 200.225,79.998C197.447,80.018 194.679,80.215 192,80.059L192,96C194.742,95.982 197.484,95.982 200.225,96.002C208.376,96.174 215.701,103.242 215.99,111.437C216.286,119.847 209.071,127.811 200.225,127.998C197.447,128.018 194.679,128.215 192,128.059L192,144C192,152.831 184.831,160 176,160L112,160C103.169,160 96,152.831 96,144L96,128C90.923,128.051 85.842,128.573 81.437,126.592C73.103,122.844 69.379,111.146 74.657,103.17C77.513,98.854 82.544,96.112 87.775,96.002C90.516,95.982 93.258,95.982 96,96L96,80C90.923,80.051 85.842,80.573 81.437,78.592C71.88,74.294 68.861,59.268 77.639,51.808C82.372,47.786 89.283,47.95 96,48ZM128.449,56.013C129.904,56.135 130.301,56.294 131.061,56.609C133.682,57.694 135.629,60.259 135.95,63.104C135.994,63.501 135.989,63.601 136,64L136,128C135.828,134.125 127.74,138.497 122.669,133.965C121.217,132.667 120.268,130.827 120.05,128.896C120.006,128.499 120.011,128.399 120,128L120,64C120.041,62.54 120.177,62.135 120.449,61.358C121.436,58.538 124.101,56.389 127.104,56.05C127.968,55.953 128.172,56.005 128.449,56.013ZM160.449,56.013C161.904,56.135 162.301,56.294 163.061,56.609C165.682,57.694 167.629,60.259 167.95,63.104C167.994,63.501 167.989,63.601 168,64L168,128C167.948,129.836 167.705,130.438 167.208,131.471C164.855,136.356 156.917,137.479 153.476,132.629C152.522,131.286 152.046,129.643 152,128L152,64C152.041,62.54 152.177,62.135 152.449,61.358C153.436,58.538 156.101,56.389 159.104,56.05C159.968,55.953 160.172,56.005 160.449,56.013Z" style="fill:white;"/>
            </g>
            <g transform="matrix(1,0,0,1,0,-1.91145)">
                <path d="M73,440.911C45.727,417.19 13.575,349.14 22.52,292.837C29.123,251.276 58.118,216.116 128,209.911C169.838,206.197 151.112,171.458 176,145.911C201.26,119.984 257.002,133.746 304,177.911" style="fill:none;stroke:white;stroke-width:32px;stroke-linecap:round;"/>
            </g>
            <g transform="matrix(0,-1,-1,0,513.911,512)">
                <path d="M73,440.911C45.727,417.19 13.575,349.14 22.52,292.837C29.123,251.276 58.118,216.116 128,209.911C169.838,206.197 151.112,171.458 176,145.911C201.26,119.984 257.002,133.746 304,177.911" style="fill:none;stroke:white;stroke-width:32px;stroke-linecap:round;"/>
            </g>
            <g transform="matrix(0.6,0.6,-0.707107,0.707107,282.843,-58.8427)">
                <path d="M320,400C320,391.169 311.551,384 301.144,384L178.856,384C168.449,384 160,391.169 160,400C160,408.831 168.449,416 178.856,416L301.144,416C311.551,416 320,408.831 320,400Z" style="stroke:white;stroke-width:34.51px;stroke-linecap:round;"/>
            </g>
        </g>
    </g>
</svg>
