<?xml version="1.0" encoding="UTF-8" standalone="no"?>
<!DOCTYPE svg PUBLIC "-//W3C//DTD SVG 1.1//EN" "http://www.w3.org/Graphics/SVG/1.1/DTD/svg11.dtd">
<svg width="100%" height="100%" viewBox="0 0 512 512" version="1.1" xmlns="http://www.w3.org/2000/svg" xmlns:xlink="http://www.w3.org/1999/xlink" xml:space="preserve" xmlns:serif="http://www.serif.com/" style="fill-rule:evenodd;clip-rule:evenodd;stroke-linecap:round;stroke-linejoin:round;stroke-miterlimit:1.5;">
    <g id="keyboard">
        <g transform="matrix(0.875,0,0,0.875,32,32)">
            <path d="M512,36.571C512,16.387 495.613,0 475.429,0L36.571,0C16.387,0 0,16.387 0,36.571L0,475.429C0,495.613 16.387,512 36.571,512L475.429,512C495.613,512 512,495.613 512,475.429L512,36.571Z" style="fill:none;stroke:white;stroke-width:73.14px;"/>
        </g>
        <g>
            <g transform="matrix(1,0,0,1,16,2.84217e-14)">
                <path d="M160,64L160,256" style="fill:none;stroke:white;stroke-width:128px;"/>
            </g>
            <path d="M176,480L176,256" style="fill:none;stroke:white;stroke-width:64px;"/>
        </g>
        <g>
            <g transform="matrix(1,0,0,1,176,2.84217e-14)">
                <path d="M160,64L160,256" style="fill:none;stroke:white;stroke-width:128px;"/>
            </g>
            <g transform="matrix(1,0,0,1,160,0)">
                <path d="M176,480L176,256" style="fill:none;stroke:white;stroke-width:64px;"/>
            </g>
        </g>
    </g>
</svg>
