<?xml version="1.0" encoding="UTF-8" standalone="no"?>
<!DOCTYPE svg PUBLIC "-//W3C//DTD SVG 1.1//EN" "http://www.w3.org/Graphics/SVG/1.1/DTD/svg11.dtd">
<svg width="100%" height="100%" viewBox="0 0 320 512" version="1.1" xmlns="http://www.w3.org/2000/svg" xmlns:xlink="http://www.w3.org/1999/xlink" xml:space="preserve" xmlns:serif="http://www.serif.com/" style="fill-rule:evenodd;clip-rule:evenodd;stroke-linecap:round;stroke-linejoin:round;stroke-miterlimit:1.5;">
    <g transform="matrix(1,0,0,1,-96,0)">
        <g id="microphone" transform="matrix(1,0,0,1,0,16)">
            <g transform="matrix(1,0,0,1,0,-16)">
                <path d="M320,0C337.661,0 352,14.339 352,32L352,64L296,64C291.585,64 288,67.585 288,72L288,88C288,92.415 291.585,96 296,96L352,96L352,160L296,160C291.585,160 288,163.585 288,168L288,184C288,188.415 291.585,192 296,192L352,192L352,256L296,256C291.585,256 288,259.585 288,264L288,280C288,284.415 291.585,288 296,288L352,288L352,320C352,337.661 337.661,352 320,352L192,352C174.339,352 160,337.661 160,320L160,288L216,288C220.415,288 224,284.415 224,280L224,264C224,259.585 220.415,256 216,256L160,256L160,192L216,192C220.415,192 224,188.415 224,184L224,168C224,163.585 220.415,160 216,160L160,160L160,96L216,96C220.415,96 224,92.415 224,88L224,72C224,67.585 220.415,64 216,64L160,64L160,32C160,14.339 174.339,0 192,0L320,0Z" style="fill:white;"/>
            </g>
            <path d="M400,160C400,160 400,290.099 400,352C400,360.487 396.629,368.626 390.627,374.627C384.626,380.629 376.487,384 368,384C312.591,384 199.409,384 144,384C135.513,384 127.374,380.629 121.373,374.627C115.371,368.626 112,360.487 112,352C112,290.099 112,160 112,160" style="fill:none;stroke:white;stroke-width:32px;"/>
            <path d="M368,480C368,471.169 360.831,464 352,464L160,464C151.169,464 144,471.169 144,480L144,496L368,496L368,480Z" style="fill:white;"/>
            <path d="M256,384L256,480" style="fill:none;stroke:white;stroke-width:32px;"/>
        </g>
    </g>
</svg>
