<?xml version="1.0" encoding="UTF-8" standalone="no"?>
<!DOCTYPE svg PUBLIC "-//W3C//DTD SVG 1.1//EN" "http://www.w3.org/Graphics/SVG/1.1/DTD/svg11.dtd">
<svg width="100%" height="100%" viewBox="0 0 496 512" version="1.1" xmlns="http://www.w3.org/2000/svg" xmlns:xlink="http://www.w3.org/1999/xlink" xml:space="preserve" xmlns:serif="http://www.serif.com/" style="fill-rule:evenodd;clip-rule:evenodd;stroke-linejoin:round;stroke-miterlimit:1.41421;">
    <g transform="matrix(1,0,0,1,-8,0)">
        <g id="xylophone">
            <g transform="matrix(1,0,0,1,8,0)">
                <path d="M96,0C104.831,0 112,7.169 112,16L112,496C112,504.831 104.831,512 96,512L16,512C7.169,512 0,504.831 0,496L0,16C0,7.169 7.169,0 16,0L96,0ZM56,400C69.246,400 80,410.754 80,424C80,437.246 69.246,448 56,448C42.754,448 32,437.246 32,424C32,410.754 42.754,400 56,400ZM56,64C69.246,64 80,74.754 80,88C80,101.246 69.246,112 56,112C42.754,112 32,101.246 32,88C32,74.754 42.754,64 56,64Z" style="fill:white;"/>
            </g>
            <g transform="matrix(1,0,0,1,8,0)">
                <path d="M224,32C232.831,32 240,39.169 240,48L240,464C240,472.831 232.831,480 224,480L144,480C135.169,480 128,472.831 128,464L128,48C128,39.169 135.169,32 144,32L224,32ZM184,368C197.246,368 208,378.754 208,392C208,405.246 197.246,416 184,416C170.754,416 160,405.246 160,392C160,378.754 170.754,368 184,368ZM184,96C197.246,96 208,106.754 208,120C208,133.246 197.246,144 184,144C170.754,144 160,133.246 160,120C160,106.754 170.754,96 184,96Z" style="fill:white;"/>
            </g>
            <g transform="matrix(1,0,0,1,8,0)">
                <path d="M352,64C360.831,64 368,71.169 368,80L368,432C368,440.831 360.831,448 352,448L272,448C263.169,448 256,440.831 256,432L256,80C256,71.169 263.169,64 272,64L352,64ZM312,336C325.246,336 336,346.754 336,360C336,373.246 325.246,384 312,384C298.754,384 288,373.246 288,360C288,346.754 298.754,336 312,336ZM312,128C325.246,128 336,138.754 336,152C336,165.246 325.246,176 312,176C298.754,176 288,165.246 288,152C288,138.754 298.754,128 312,128Z" style="fill:white;"/>
            </g>
            <g transform="matrix(1,0,0,1,8,0)">
                <path d="M480,96C488.831,96 496,103.169 496,112L496,400C496,408.831 488.831,416 480,416L400,416C391.169,416 384,408.831 384,400L384,112C384,103.169 391.169,96 400,96L480,96ZM440,304C453.246,304 464,314.754 464,328C464,341.246 453.246,352 440,352C426.754,352 416,341.246 416,328C416,314.754 426.754,304 440,304ZM440,160C453.246,160 464,170.754 464,184C464,197.246 453.246,208 440,208C426.754,208 416,197.246 416,184C416,170.754 426.754,160 440,160Z" style="fill:white;"/>
            </g>
        </g>
    </g>
</svg>
